<svg width="17" height="33" viewBox="0 0 17 33" fill="none" xmlns="http://www.w3.org/2000/svg">
<path d="M17 16.0793C16.9917 18.7888 14.9283 20.8677 12.3595 20.8926C11.2242 20.905 10.1097 21.0254 9.06972 21.5067C7.5077 22.2287 6.56303 23.3947 6.48016 25.1872C6.40144 26.8926 5.17502 28.1913 3.54256 28.3573C1.98054 28.515 0.52624 27.4901 0.107767 25.9424C-0.397716 24.0627 0.936427 22.0046 2.82577 21.9299C5.99539 21.8054 7.36683 19.6602 7.58642 17.0336C7.70243 15.6685 7.59885 14.3117 7.01465 13.0419C6.26885 11.4278 5.06315 10.4444 3.24424 10.3199C1.91424 10.2287 0.907423 9.6187 0.356364 8.37803C-0.157405 7.22035 4.02691e-05 6.10832 0.741691 5.09172C1.49577 4.05437 2.88792 3.58964 4.14748 3.92574C5.39047 4.25769 6.46773 5.36143 6.4843 6.5938C6.52988 9.85521 9.06558 11.4818 12.0115 11.4859C13.6854 11.4859 15.0817 12.0668 16.0968 13.4361C16.71 14.2619 16.9793 15.2038 16.9959 16.0793L17 16.0793Z" fill="#1AB7DA"/>
</svg>
