<svg width="14" height="26" viewBox="0 0 14 26" fill="none" xmlns="http://www.w3.org/2000/svg">
<path d="M13.8586 13.3392C13.8521 15.4684 12.2307 17.102 10.2121 17.1215C9.32003 17.1313 8.44421 17.2259 7.627 17.6041C6.39956 18.1714 5.65724 19.0877 5.59212 20.4962C5.53026 21.8363 4.56654 22.8569 3.28375 22.9873C2.05631 23.1112 0.91352 22.3059 0.584683 21.0897C0.187474 19.6126 1.23585 17.9954 2.7205 17.9367C5.21119 17.8389 6.28887 16.1531 6.46142 14.0892C6.55259 13.0164 6.47119 11.9502 6.01212 10.9525C5.42608 9.6841 4.47863 8.91134 3.04933 8.81352C2.00422 8.74179 1.21305 8.26248 0.780031 7.28757C0.376311 6.37786 0.500032 5.50402 1.08282 4.70518C1.67538 3.89003 2.76933 3.52484 3.7591 3.78895C4.73584 4.0498 5.58235 4.91711 5.59538 5.88551C5.63119 8.44834 7.62375 9.72649 9.93863 9.72975C11.254 9.72975 12.3512 10.1862 13.1489 11.2622C13.6307 11.9111 13.8424 12.6512 13.8554 13.3392L13.8586 13.3392Z" fill="#1AB7DA"/>
</svg>
