<svg width="27" height="26" viewBox="0 0 27 26" fill="none" xmlns="http://www.w3.org/2000/svg">
<path fill-rule="evenodd" clip-rule="evenodd" d="M26.5194 11.2116L24.3325 10.1216C24.3325 10.1216 24.9183 8.79824 25.4481 7.65224C23.5809 6.90301 21.6647 6.38953 18.6374 7.41883C18.251 7.55332 17.8838 7.73771 17.5451 7.96732C17.6461 7.61766 17.7171 7.26005 17.7575 6.89835C18.2243 2.60842 15.5075 0.23938 15.5075 0.23938L13.834 2.0179C13.834 2.0179 12.7347 1.0843 11.7918 0.23938C10.5361 1.81018 9.48808 3.50701 9.59311 6.69062C9.62013 7.23719 9.73357 7.77601 9.92921 8.28708C9.72381 8.14938 9.50908 8.01635 9.28268 7.89265C5.4899 5.83171 1.81381 7.59155 1.81381 7.59155L3.08118 9.77619C3.08118 9.77619 1.57341 10.5674 0.441406 11.1229C1.41936 12.8804 2.99483 14.2575 5.98938 15.3708C6.34243 15.502 6.71282 15.5806 7.0887 15.6043C6.8553 15.8377 6.62189 16.0711 6.38849 16.3465C3.58767 19.6351 4.75468 23.0684 4.75468 23.0684L7.13071 22.5013C7.13071 22.5013 7.53216 23.9017 7.85893 25.1084C9.77049 24.4875 11.8664 24.1748 13.4372 21.3739C13.5669 21.1434 13.68 20.904 13.7757 20.6574C13.8722 20.8486 13.9797 21.0341 14.0978 21.2129C16.4995 24.8073 20.1055 24.8656 20.1055 24.8656L20.2479 22.4243C20.2479 22.4243 21.695 22.4429 22.9554 22.4779C22.9087 20.4707 22.6286 18.5101 20.5 16.1224C20.2559 15.8541 19.9862 15.6102 19.6948 15.3942C20.0627 15.3882 20.4296 15.3523 20.7917 15.2868C25.0373 14.5003 26.5194 11.2116 26.5194 11.2116ZM17.5638 14.2458C17.4818 14.2453 17.4025 14.2171 17.3385 14.1659C17.2745 14.1146 17.2297 14.0433 17.2114 13.9634L15.2274 13.8211C15.2087 13.9152 15.1814 14.0074 15.1457 14.0965L16.6185 14.841C16.6723 14.7924 16.742 14.765 16.8146 14.764C16.8932 14.764 16.9686 14.7952 17.0242 14.8508C17.0798 14.9064 17.111 14.9818 17.111 15.0604C17.111 15.139 17.0798 15.2144 17.0242 15.27C16.9686 15.3256 16.8932 15.3568 16.8146 15.3568C16.736 15.3568 16.6606 15.3256 16.605 15.27C16.5494 15.2144 16.5181 15.139 16.5181 15.0604C16.5181 15.0604 16.5181 15.0441 16.5181 15.0347L15.0477 14.2902C14.9644 14.4362 14.8571 14.5672 14.7303 14.6776L15.5869 16.0197C15.6044 16.0142 15.6224 16.0103 15.6406 16.008C15.7192 16.008 15.7946 16.0393 15.8502 16.0949C15.9057 16.1504 15.937 16.2258 15.937 16.3045C15.9373 16.3436 15.9298 16.3824 15.9151 16.4186C15.9003 16.4548 15.8785 16.4878 15.851 16.5156C15.8234 16.5433 15.7906 16.5654 15.7545 16.5804C15.7184 16.5955 15.6797 16.6032 15.6406 16.6032C15.6014 16.6032 15.5627 16.5955 15.5266 16.5804C15.4905 16.5654 15.4577 16.5433 15.4301 16.5156C15.4026 16.4878 15.3808 16.4548 15.366 16.4186C15.3513 16.3824 15.3438 16.3436 15.3441 16.3045C15.345 16.2436 15.3654 16.1847 15.4025 16.1364C15.1224 15.6929 14.8408 15.251 14.5576 14.8107C14.4515 14.8788 14.338 14.9344 14.2191 14.9764L14.8633 16.8436C14.9345 16.8472 15.0016 16.8781 15.0507 16.9298C15.0998 16.9815 15.1272 17.0501 15.1271 17.1214C15.1265 17.1959 15.0964 17.2671 15.0435 17.3196C14.9906 17.372 14.9192 17.4015 14.8447 17.4014C14.8079 17.4014 14.7715 17.3942 14.7375 17.3801C14.7035 17.366 14.6726 17.3454 14.6466 17.3194C14.6206 17.2934 14.6 17.2625 14.5859 17.2285C14.5718 17.1946 14.5646 17.1581 14.5646 17.1214C14.5646 17.0819 14.5731 17.0429 14.5896 17.007C14.6061 16.9711 14.6302 16.9393 14.6603 16.9136L14.0091 15.0231C13.9138 15.042 13.8168 15.0514 13.7197 15.0511H13.6776V17.2007C13.7311 17.2217 13.7771 17.2584 13.8095 17.3058C13.842 17.3532 13.8595 17.4093 13.8597 17.4668C13.86 17.5049 13.8527 17.5427 13.8383 17.5779C13.8239 17.6132 13.8026 17.6452 13.7756 17.6721C13.7487 17.6991 13.7167 17.7204 13.6814 17.7348C13.6461 17.7492 13.6084 17.7565 13.5703 17.7562C13.4935 17.7562 13.4199 17.7257 13.3656 17.6714C13.3114 17.6172 13.2809 17.5436 13.2809 17.4668C13.2811 17.4093 13.2986 17.3532 13.331 17.3058C13.3635 17.2584 13.4094 17.2217 13.4629 17.2007V15.0301C13.2924 15.002 13.1281 14.9443 12.9774 14.8597C12.5215 15.3576 12.0672 15.854 11.6144 16.3488C11.6431 16.3969 11.6592 16.4515 11.6611 16.5075C11.6611 16.5522 11.6522 16.5964 11.6351 16.6376C11.6179 16.6788 11.5928 16.7162 11.5611 16.7477C11.5294 16.7791 11.4918 16.804 11.4505 16.8209C11.4092 16.8377 11.3649 16.8463 11.3203 16.846C11.2758 16.846 11.2318 16.8372 11.1908 16.8202C11.1497 16.8032 11.1124 16.7783 11.081 16.7468C11.0495 16.7154 11.0246 16.6781 11.0076 16.637C10.9906 16.596 10.9818 16.552 10.9818 16.5075C10.9818 16.4178 11.0175 16.3317 11.081 16.2682C11.1444 16.2047 11.2305 16.1691 11.3203 16.1691C11.3678 16.1694 11.4147 16.1798 11.458 16.1994L12.7954 14.7407C12.6951 14.6637 12.6042 14.5752 12.5246 14.4769L10.7554 15.3288C10.7554 15.3428 10.7554 15.3545 10.7554 15.3685C10.7554 15.4589 10.7195 15.5456 10.6556 15.6095C10.5917 15.6734 10.5051 15.7093 10.4147 15.7093C10.3243 15.7093 10.2376 15.6734 10.1737 15.6095C10.1098 15.5456 10.0739 15.4589 10.0739 15.3685C10.0739 15.3238 10.0827 15.2795 10.0999 15.2381C10.117 15.1968 10.1421 15.1592 10.1737 15.1276C10.2054 15.0959 10.2429 15.0708 10.2843 15.0537C10.3256 15.0366 10.3699 15.0277 10.4147 15.0277C10.4605 15.0277 10.5059 15.0371 10.548 15.0551C10.5901 15.0732 10.6281 15.0996 10.6598 15.1328L12.3939 14.2972C12.3185 14.1657 12.2619 14.0243 12.2259 13.8771L9.8055 13.8047C9.78324 13.8555 9.74665 13.8986 9.70021 13.9289C9.65378 13.9592 9.59952 13.9752 9.54409 13.9751C9.46857 13.9751 9.39614 13.9451 9.34274 13.8917C9.28934 13.8383 9.25934 13.7659 9.25934 13.6903C9.25934 13.6148 9.28934 13.5424 9.34274 13.489C9.39614 13.4356 9.46857 13.4056 9.54409 13.4056C9.60192 13.4057 9.65835 13.4234 9.70588 13.4563C9.75341 13.4892 9.78979 13.5359 9.81017 13.59L12.1909 13.66C12.1885 13.6149 12.1885 13.5697 12.1909 13.5246C12.1907 13.3809 12.2112 13.2378 12.2516 13.0998L9.86385 11.9889C9.82564 12.0347 9.77783 12.0717 9.72379 12.0971C9.66975 12.1225 9.6108 12.1357 9.55109 12.1359C9.49726 12.1359 9.44395 12.1253 9.39424 12.1046C9.34454 12.0839 9.2994 12.0536 9.26145 12.0154C9.22349 11.9773 9.19345 11.9319 9.17306 11.8821C9.15267 11.8323 9.14233 11.7789 9.14264 11.7251C9.14233 11.6713 9.15267 11.6179 9.17306 11.5681C9.19345 11.5183 9.22349 11.473 9.26145 11.4348C9.2994 11.3966 9.34454 11.3663 9.39424 11.3456C9.44395 11.325 9.49726 11.3143 9.55109 11.3143C9.66004 11.3143 9.76453 11.3576 9.84156 11.4346C9.9186 11.5117 9.96188 11.6162 9.96188 11.7251C9.96418 11.7484 9.96418 11.7718 9.96188 11.7951L12.3332 12.8968C12.4216 12.7021 12.5496 12.5281 12.709 12.3856L10.8838 10.4647C10.8053 10.5111 10.716 10.5361 10.6247 10.5371C10.5562 10.5374 10.4883 10.5242 10.4248 10.4981C10.3614 10.4721 10.3038 10.4338 10.2552 10.3855C10.2066 10.3371 10.1681 10.2796 10.1418 10.2163C10.1155 10.153 10.1019 10.0851 10.1019 10.0166C10.1019 9.87794 10.157 9.74496 10.2551 9.64691C10.3531 9.54886 10.4861 9.49378 10.6247 9.49378C10.6933 9.49378 10.7612 9.50733 10.8245 9.53363C10.8878 9.55993 10.9453 9.59847 10.9936 9.64705C11.042 9.69563 11.0803 9.75329 11.1063 9.8167C11.1323 9.88012 11.1455 9.94805 11.1452 10.0166C11.1449 10.1258 11.1097 10.2321 11.0449 10.32L12.8794 12.2526C13.0821 12.1157 13.3153 12.0307 13.5586 12.0052C13.5773 11.3283 13.5936 10.6515 13.6123 9.97693C13.5167 9.95128 13.4322 9.89486 13.3719 9.81639C13.3115 9.73792 13.2787 9.64177 13.2785 9.54279C13.2785 9.42372 13.3257 9.30951 13.4096 9.22509C13.4936 9.14068 13.6076 9.09294 13.7267 9.09232C13.8461 9.09232 13.9607 9.13979 14.0452 9.22427C14.1297 9.30875 14.1771 9.42332 14.1771 9.54279C14.177 9.64476 14.1424 9.74368 14.0788 9.82339C14.0152 9.90309 13.9264 9.95887 13.827 9.98159C13.8107 10.6538 13.792 11.326 13.7757 11.9982C14.0009 12.0041 14.2219 12.0608 14.4222 12.1639L15.2601 10.7472C15.2017 10.6832 15.1686 10.6003 15.1668 10.5137C15.1668 10.4184 15.2046 10.327 15.272 10.2596C15.3394 10.1922 15.4309 10.1543 15.5262 10.1543C15.6215 10.1543 15.7129 10.1922 15.7804 10.2596C15.8478 10.327 15.8856 10.4184 15.8856 10.5137C15.8859 10.5611 15.8769 10.6081 15.8589 10.652C15.841 10.6959 15.8146 10.7358 15.7812 10.7694C15.7478 10.803 15.708 10.8297 15.6643 10.8479C15.6205 10.8661 15.5736 10.8755 15.5262 10.8755C15.5001 10.8726 15.4743 10.8671 15.4492 10.8592C15.1691 11.326 14.8882 11.7998 14.6066 12.2806C14.7461 12.3789 14.8683 12.4995 14.9684 12.6377L16.4411 11.27C16.4094 11.2103 16.3925 11.1438 16.3921 11.0762C16.3918 11.021 16.4025 10.9662 16.4235 10.9151C16.4445 10.864 16.4754 10.8176 16.5145 10.7785C16.5535 10.7394 16.6 10.7085 16.6511 10.6875C16.7022 10.6665 16.757 10.6558 16.8122 10.6561C16.9237 10.6561 17.0305 10.7004 17.1093 10.7792C17.1881 10.858 17.2324 10.9648 17.2324 11.0762C17.2317 11.1875 17.1873 11.294 17.1086 11.3726C17.03 11.4513 16.9235 11.4958 16.8122 11.4964C16.7294 11.4976 16.6481 11.474 16.5788 11.4287L15.0734 12.8151C15.1324 12.9287 15.1764 13.0495 15.2041 13.1745L17.2067 12.8781C17.2189 12.7944 17.2607 12.7178 17.3245 12.6621C17.3883 12.6065 17.4698 12.5755 17.5545 12.5747C17.6498 12.5747 17.7412 12.6126 17.8086 12.68C17.876 12.7474 17.9139 12.8388 17.9139 12.9341C17.9139 13.0295 17.876 13.1209 17.8086 13.1883C17.7412 13.2557 17.6498 13.2936 17.5545 13.2936C17.4871 13.2933 17.4213 13.2741 17.3643 13.2382C17.3074 13.2023 17.2616 13.1511 17.2324 13.0905L15.2391 13.3846C15.2391 13.4289 15.2391 13.4733 15.2391 13.52C15.2391 13.5667 15.2391 13.569 15.2391 13.5947L17.2067 13.737C17.234 13.6678 17.2816 13.6085 17.3433 13.5668C17.4049 13.5252 17.4777 13.5031 17.5521 13.5036C17.6505 13.5036 17.7449 13.5427 17.8145 13.6123C17.8841 13.6819 17.9232 13.7763 17.9232 13.8747C17.9221 13.9704 17.884 14.0619 17.8171 14.1301C17.7501 14.1984 17.6594 14.2382 17.5638 14.2412V14.2458Z" fill="white" fill-opacity="0.5"/>
</svg>
