<svg width="27" height="26" viewBox="0 0 27 26" fill="none" xmlns="http://www.w3.org/2000/svg">
<path fill-rule="evenodd" clip-rule="evenodd" d="M26.4413 11.2116L24.2543 10.1216C24.2543 10.1216 24.8402 8.79824 25.37 7.65224C23.5028 6.90301 21.5865 6.38953 18.5593 7.41883C18.1729 7.55332 17.8057 7.73771 17.467 7.96732C17.568 7.61766 17.639 7.26005 17.6794 6.89835C18.1462 2.60842 15.4294 0.23938 15.4294 0.23938L13.7559 2.0179C13.7559 2.0179 12.6566 1.0843 11.7136 0.23938C10.4579 1.81018 9.40995 3.50701 9.51498 6.69062C9.54201 7.23719 9.65545 7.77601 9.85108 8.28708C9.64569 8.14938 9.43096 8.01635 9.20456 7.89265C5.41177 5.83171 1.73569 7.59155 1.73569 7.59155L3.00306 9.77619C3.00306 9.77619 1.49528 10.5674 0.363281 11.1229C1.34124 12.8804 2.9167 14.2575 5.91125 15.3708C6.26431 15.502 6.63469 15.5806 7.01057 15.6043C6.77717 15.8377 6.54377 16.0711 6.31037 16.3465C3.50954 19.6351 4.67655 23.0684 4.67655 23.0684L7.05259 22.5013C7.05259 22.5013 7.45404 23.9017 7.7808 25.1084C9.69237 24.4875 11.7883 24.1748 13.3591 21.3739C13.4888 21.1434 13.6019 20.904 13.6975 20.6574C13.7941 20.8486 13.9016 21.0341 14.0196 21.2129C16.4214 24.8073 20.0274 24.8656 20.0274 24.8656L20.1698 22.4243C20.1698 22.4243 21.6169 22.4429 22.8773 22.4779C22.8306 20.4707 22.5505 18.5101 20.4219 16.1224C20.1777 15.8541 19.908 15.6102 19.6166 15.3942C19.9846 15.3882 20.3515 15.3523 20.7136 15.2868C24.9592 14.5003 26.4413 11.2116 26.4413 11.2116ZM17.4857 14.2458C17.4037 14.2453 17.3243 14.2171 17.2604 14.1659C17.1964 14.1146 17.1516 14.0433 17.1332 13.9634L15.1493 13.8211C15.1306 13.9152 15.1033 14.0074 15.0676 14.0965L16.5404 14.841C16.5942 14.7924 16.6639 14.765 16.7364 14.764C16.8151 14.764 16.8905 14.7952 16.946 14.8508C17.0016 14.9064 17.0329 14.9818 17.0329 15.0604C17.0329 15.139 17.0016 15.2144 16.946 15.27C16.8905 15.3256 16.8151 15.3568 16.7364 15.3568C16.6578 15.3568 16.5824 15.3256 16.5268 15.27C16.4713 15.2144 16.44 15.139 16.44 15.0604C16.44 15.0604 16.44 15.0441 16.44 15.0347L14.9696 14.2902C14.8863 14.4362 14.779 14.5672 14.6522 14.6776L15.5087 16.0197C15.5263 16.0142 15.5442 16.0103 15.5624 16.008C15.641 16.008 15.7164 16.0393 15.772 16.0949C15.8276 16.1504 15.8589 16.2258 15.8589 16.3045C15.8592 16.3436 15.8517 16.3824 15.837 16.4186C15.8222 16.4548 15.8004 16.4878 15.7729 16.5156C15.7453 16.5433 15.7125 16.5654 15.6764 16.5804C15.6403 16.5955 15.6016 16.6032 15.5624 16.6032C15.5233 16.6032 15.4846 16.5955 15.4485 16.5804C15.4123 16.5654 15.3796 16.5433 15.352 16.5156C15.3244 16.4878 15.3027 16.4548 15.2879 16.4186C15.2731 16.3824 15.2657 16.3436 15.266 16.3045C15.2669 16.2436 15.2873 16.1847 15.3244 16.1364C15.0443 15.6929 14.7626 15.251 14.4794 14.8107C14.3734 14.8788 14.2598 14.9344 14.141 14.9764L14.7852 16.8436C14.8564 16.8472 14.9235 16.8781 14.9726 16.9298C15.0217 16.9815 15.049 17.0501 15.0489 17.1214C15.0483 17.1959 15.0183 17.2671 14.9654 17.3196C14.9125 17.372 14.841 17.4015 14.7665 17.4014C14.7298 17.4014 14.6933 17.3942 14.6593 17.3801C14.6254 17.366 14.5945 17.3454 14.5685 17.3194C14.5425 17.2934 14.5218 17.2625 14.5078 17.2285C14.4937 17.1946 14.4864 17.1581 14.4864 17.1214C14.4864 17.0819 14.495 17.0429 14.5115 17.007C14.528 16.9711 14.5521 16.9393 14.5821 16.9136L13.931 15.0231C13.8356 15.042 13.7387 15.0514 13.6415 15.0511H13.5995V17.2007C13.653 17.2217 13.699 17.2584 13.7314 17.3058C13.7639 17.3532 13.7814 17.4093 13.7816 17.4668C13.7819 17.5049 13.7746 17.5427 13.7602 17.5779C13.7457 17.6132 13.7244 17.6452 13.6975 17.6721C13.6706 17.6991 13.6385 17.7204 13.6033 17.7348C13.568 17.7492 13.5302 17.7565 13.4922 17.7562C13.4154 17.7562 13.3418 17.7257 13.2875 17.6714C13.2332 17.6172 13.2027 17.5436 13.2027 17.4668C13.203 17.4093 13.2204 17.3532 13.2529 17.3058C13.2853 17.2584 13.3313 17.2217 13.3848 17.2007V15.0301C13.2143 15.002 13.05 14.9443 12.8993 14.8597C12.4434 15.3576 11.989 15.854 11.5362 16.3488C11.565 16.3969 11.581 16.4515 11.5829 16.5075C11.5829 16.5522 11.5741 16.5964 11.5569 16.6376C11.5398 16.6788 11.5147 16.7162 11.483 16.7477C11.4513 16.7791 11.4137 16.804 11.3724 16.8209C11.3311 16.8377 11.2868 16.8463 11.2422 16.846C11.1977 16.846 11.1537 16.8372 11.1126 16.8202C11.0716 16.8032 11.0343 16.7783 11.0028 16.7468C10.9714 16.7154 10.9465 16.6781 10.9295 16.637C10.9125 16.596 10.9037 16.552 10.9037 16.5075C10.9037 16.4178 10.9394 16.3317 11.0028 16.2682C11.0663 16.2047 11.1524 16.1691 11.2422 16.1691C11.2897 16.1694 11.3366 16.1798 11.3799 16.1994L12.7173 14.7407C12.617 14.6637 12.5261 14.5752 12.4465 14.4769L10.6773 15.3288C10.6773 15.3428 10.6773 15.3545 10.6773 15.3685C10.6773 15.4589 10.6414 15.5456 10.5775 15.6095C10.5136 15.6734 10.4269 15.7093 10.3366 15.7093C10.2462 15.7093 10.1595 15.6734 10.0956 15.6095C10.0317 15.5456 9.99579 15.4589 9.99579 15.3685C9.99579 15.3238 10.0046 15.2795 10.0217 15.2381C10.0389 15.1968 10.064 15.1592 10.0956 15.1276C10.1272 15.0959 10.1648 15.0708 10.2061 15.0537C10.2475 15.0366 10.2918 15.0277 10.3366 15.0277C10.3824 15.0277 10.4277 15.0371 10.4699 15.0551C10.512 15.0732 10.55 15.0996 10.5816 15.1328L12.3158 14.2972C12.2404 14.1657 12.1838 14.0243 12.1478 13.8771L9.72738 13.8047C9.70512 13.8555 9.66852 13.8986 9.62209 13.9289C9.57565 13.9592 9.52139 13.9752 9.46597 13.9751C9.39045 13.9751 9.31802 13.9451 9.26462 13.8917C9.21122 13.8383 9.18122 13.7659 9.18122 13.6903C9.18122 13.6148 9.21122 13.5424 9.26462 13.489C9.31802 13.4356 9.39045 13.4056 9.46597 13.4056C9.52379 13.4057 9.58023 13.4234 9.62776 13.4563C9.67529 13.4892 9.71166 13.5359 9.73204 13.59L12.1127 13.66C12.1104 13.6149 12.1104 13.5697 12.1127 13.5246C12.1126 13.3809 12.1331 13.2378 12.1734 13.0998L9.78573 11.9889C9.74751 12.0347 9.6997 12.0717 9.64567 12.0971C9.59163 12.1225 9.53268 12.1357 9.47297 12.1359C9.41913 12.1359 9.36583 12.1253 9.31612 12.1046C9.26641 12.0839 9.22128 12.0536 9.18332 12.0154C9.14536 11.9773 9.11532 11.9319 9.09494 11.8821C9.07455 11.8323 9.06421 11.7789 9.06451 11.7251C9.06421 11.6713 9.07455 11.6179 9.09494 11.5681C9.11532 11.5183 9.14536 11.473 9.18332 11.4348C9.22128 11.3966 9.26641 11.3663 9.31612 11.3456C9.36583 11.325 9.41913 11.3143 9.47297 11.3143C9.58192 11.3143 9.6864 11.3576 9.76344 11.4346C9.84048 11.5117 9.88376 11.6162 9.88376 11.7251C9.88605 11.7484 9.88605 11.7718 9.88376 11.7951L12.2551 12.8968C12.3435 12.7021 12.4715 12.5281 12.6309 12.3856L10.8057 10.4647C10.7272 10.5111 10.6378 10.5361 10.5466 10.5371C10.4781 10.5374 10.4101 10.5242 10.3467 10.4981C10.2833 10.4721 10.2256 10.4338 10.1771 10.3855C10.1285 10.3371 10.0899 10.2796 10.0636 10.2163C10.0373 10.153 10.0238 10.0851 10.0238 10.0166C10.0238 9.87794 10.0789 9.74496 10.1769 9.64691C10.275 9.54886 10.408 9.49378 10.5466 9.49378C10.6152 9.49378 10.683 9.50733 10.7463 9.53363C10.8096 9.55993 10.8671 9.59847 10.9155 9.64705C10.9639 9.69563 11.0021 9.75329 11.0282 9.8167C11.0542 9.88012 11.0674 9.94805 11.0671 10.0166C11.0668 10.1258 11.0316 10.2321 10.9667 10.32L12.8013 12.2526C13.004 12.1157 13.2372 12.0307 13.4805 12.0052C13.4992 11.3283 13.5155 10.6515 13.5342 9.97693C13.4386 9.95128 13.3541 9.89486 13.2937 9.81639C13.2334 9.73792 13.2006 9.64177 13.2004 9.54279C13.2004 9.42372 13.2475 9.30951 13.3315 9.22509C13.4155 9.14068 13.5295 9.09294 13.6485 9.09232C13.768 9.09232 13.8826 9.13979 13.9671 9.22427C14.0515 9.30875 14.099 9.42332 14.099 9.54279C14.0989 9.64476 14.0642 9.74368 14.0007 9.82339C13.9371 9.90309 13.8483 9.95887 13.7489 9.98159C13.7326 10.6538 13.7139 11.326 13.6975 11.9982C13.9228 12.0041 14.1438 12.0608 14.3441 12.1639L15.182 10.7472C15.1236 10.6832 15.0904 10.6003 15.0886 10.5137C15.0886 10.4184 15.1265 10.327 15.1939 10.2596C15.2613 10.1922 15.3527 10.1543 15.4481 10.1543C15.5434 10.1543 15.6348 10.1922 15.7022 10.2596C15.7696 10.327 15.8075 10.4184 15.8075 10.5137C15.8078 10.5611 15.7987 10.6081 15.7808 10.652C15.7629 10.6959 15.7365 10.7358 15.7031 10.7694C15.6696 10.803 15.6299 10.8297 15.5862 10.8479C15.5424 10.8661 15.4955 10.8755 15.4481 10.8755C15.4219 10.8726 15.3961 10.8671 15.371 10.8592C15.091 11.326 14.8101 11.7998 14.5285 12.2806C14.6679 12.3789 14.7902 12.4995 14.8902 12.6377L16.363 11.27C16.3312 11.2103 16.3144 11.1438 16.314 11.0762C16.3137 11.021 16.3243 10.9662 16.3453 10.9151C16.3663 10.864 16.3973 10.8176 16.4363 10.7785C16.4754 10.7394 16.5219 10.7085 16.573 10.6875C16.6241 10.6665 16.6789 10.6558 16.7341 10.6561C16.8455 10.6561 16.9524 10.7004 17.0312 10.7792C17.11 10.858 17.1542 10.9648 17.1542 11.0762C17.1536 11.1875 17.1092 11.294 17.0305 11.3726C16.9519 11.4513 16.8453 11.4958 16.7341 11.4964C16.6513 11.4976 16.57 11.474 16.5007 11.4287L14.9953 12.8151C15.0543 12.9287 15.0982 13.0495 15.126 13.1745L17.1286 12.8781C17.1408 12.7944 17.1826 12.7178 17.2464 12.6621C17.3101 12.6065 17.3917 12.5755 17.4763 12.5747C17.5717 12.5747 17.6631 12.6126 17.7305 12.68C17.7979 12.7474 17.8358 12.8388 17.8358 12.9341C17.8358 13.0295 17.7979 13.1209 17.7305 13.1883C17.6631 13.2557 17.5717 13.2936 17.4763 13.2936C17.409 13.2933 17.3431 13.2741 17.2862 13.2382C17.2292 13.2023 17.1835 13.1511 17.1542 13.0905L15.161 13.3846C15.161 13.4289 15.161 13.4733 15.161 13.52C15.161 13.5667 15.161 13.569 15.161 13.5947L17.1286 13.737C17.1559 13.6678 17.2035 13.6085 17.2651 13.5668C17.3268 13.5252 17.3996 13.5031 17.474 13.5036C17.5724 13.5036 17.6668 13.5427 17.7364 13.6123C17.806 13.6819 17.8451 13.7763 17.8451 13.8747C17.8439 13.9704 17.8059 14.0619 17.739 14.1301C17.672 14.1984 17.5813 14.2382 17.4857 14.2412V14.2458Z" fill="white" fill-opacity="0.5"/>
</svg>
