<svg width="23" height="22" viewBox="0 0 23 22" fill="none" xmlns="http://www.w3.org/2000/svg">
<path d="M7.99715 8.84982C8.93355 7.87889 8.93355 6.3047 7.99715 5.33377C7.06075 4.36284 5.54255 4.36284 4.60615 5.33377C3.66975 6.3047 3.66975 7.87889 4.60615 8.84982C5.54255 9.82075 7.06075 9.82075 7.99715 8.84982Z" fill="white"/>
<path d="M8.86986 15.618C8.43502 15.6175 8.01811 15.4382 7.7106 15.1195C7.40308 14.8007 7.23008 14.3685 7.22955 13.9176C7.22997 13.4667 7.40287 13.0344 7.71031 12.7156C8.01775 12.3967 8.43462 12.2173 8.86945 12.2168H10.0832C10.159 12.2169 10.2347 12.2224 10.3097 12.2334C9.87674 11.535 9.28085 10.961 8.5772 10.5647C7.87355 10.1683 7.08486 9.96238 6.28408 9.96586C3.65012 9.97544 1.53467 12.2301 1.53467 14.9633V15.9257C1.53467 16.0205 1.55269 16.1144 1.58769 16.202C1.62269 16.2896 1.674 16.3692 1.73868 16.4362C1.80335 16.5032 1.88013 16.5564 1.96463 16.5926C2.04912 16.6289 2.13967 16.6475 2.23111 16.6474H10.3712C10.4626 16.6475 10.5532 16.6289 10.6377 16.5926C10.7222 16.5564 10.799 16.5032 10.8636 16.4362C10.9283 16.3692 10.9796 16.2896 11.0146 16.202C11.0496 16.1144 11.0676 16.0205 11.0676 15.9257V15.2748C10.7843 15.4969 10.4389 15.6174 10.0836 15.618H8.86986Z" fill="white"/>
<path d="M18.3985 8.84982C19.3349 7.87889 19.3349 6.3047 18.3985 5.33377C17.4621 4.36284 15.9439 4.36284 15.0075 5.33377C14.0711 6.3047 14.0711 7.87889 15.0075 8.84982C15.9439 9.82075 17.4621 9.82075 18.3985 8.84982Z" fill="white"/>
<path d="M16.6867 9.96585C15.0207 9.97168 13.5627 10.8762 12.7156 12.2309C12.7838 12.2216 12.8525 12.2169 12.9213 12.2168H14.135C14.5699 12.2173 14.9867 12.3967 15.2942 12.7156C15.6016 13.0344 15.7745 13.4667 15.7749 13.9176C15.7744 14.3684 15.6015 14.8005 15.294 15.1193C14.9866 15.4381 14.5698 15.6174 14.135 15.6179H12.9213C12.566 15.6173 12.2206 15.4969 11.9373 15.2748V15.9257C11.9373 16.0205 11.9553 16.1144 11.9903 16.202C12.0253 16.2896 12.0766 16.3692 12.1413 16.4362C12.2059 16.5032 12.2827 16.5564 12.3672 16.5926C12.4517 16.6288 12.5423 16.6475 12.6337 16.6474H20.7734C20.8648 16.6475 20.9554 16.6288 21.0399 16.5926C21.1244 16.5564 21.2011 16.5032 21.2658 16.4362C21.3305 16.3692 21.3818 16.2896 21.4168 16.202C21.4518 16.1144 21.4698 16.0205 21.4698 15.9257V14.9079C21.4698 14.2574 21.346 13.6133 21.1054 13.0126C20.8648 12.4119 20.5122 11.8663 20.0679 11.4071C19.6235 10.948 19.096 10.5843 18.5158 10.337C17.9356 10.0897 17.314 9.96355 16.6867 9.96585Z" fill="white"/>
<path d="M12.9212 15.0349H14.135C14.4206 15.0345 14.6945 14.9166 14.8965 14.7072C15.0985 14.4977 15.2121 14.2138 15.2126 13.9176C15.2123 13.6213 15.0986 13.3372 14.8966 13.1277C14.6946 12.9182 14.4207 12.8002 14.135 12.7998H12.9212C12.7098 12.7997 12.503 12.8646 12.3272 12.9864C12.0906 13.1486 11.925 13.4008 11.8661 13.6885H11.1391C11.0824 13.4099 10.9254 13.1642 10.7001 13.0014C10.5197 12.8699 10.3045 12.7995 10.084 12.7998H8.87024C8.58444 12.8001 8.31042 12.918 8.10833 13.1276C7.90623 13.3371 7.79256 13.6212 7.79224 13.9176C7.79266 14.2138 7.90633 14.4977 8.10833 14.7072C8.31033 14.9166 8.58417 15.0345 8.86984 15.0349H10.0836C10.2828 15.0349 10.4781 14.9776 10.6479 14.8696C10.8177 14.7615 10.9553 14.6069 11.0455 14.4227C11.0884 14.3353 11.12 14.2425 11.1395 14.1466H11.8665C11.8867 14.2455 11.9198 14.341 11.9649 14.4306C12.0556 14.6125 12.1928 14.7651 12.3614 14.8716C12.5301 14.9782 12.7237 15.0347 12.9212 15.0349ZM10.084 14.5768H8.87024C8.70162 14.5767 8.53992 14.5072 8.42064 14.3836C8.30136 14.26 8.23426 14.0924 8.23404 13.9176C8.23415 13.7427 8.30116 13.5751 8.42036 13.4514C8.53956 13.3277 8.70121 13.2581 8.86984 13.2579H10.0836C10.2134 13.2581 10.34 13.2995 10.4465 13.3764C10.553 13.4534 10.6342 13.5623 10.6792 13.6885H10.6563C10.6023 13.6885 10.5501 13.7091 10.5097 13.7463C10.4693 13.7835 10.4434 13.8348 10.437 13.8905C10.437 13.8992 10.437 13.9084 10.437 13.9176C10.437 13.9267 10.437 13.9355 10.437 13.9442C10.4433 13.9999 10.4692 14.0513 10.5096 14.0887C10.55 14.126 10.6022 14.1466 10.6563 14.1466H10.6792C10.6341 14.2727 10.5529 14.3814 10.4466 14.4583C10.3402 14.5352 10.2137 14.5765 10.084 14.5768ZM12.9212 13.2579H14.135C14.3036 13.2581 14.4653 13.3277 14.5845 13.4514C14.7037 13.5751 14.7707 13.7427 14.7708 13.9176C14.7706 14.0923 14.7035 14.2599 14.5843 14.3835C14.4651 14.5071 14.3035 14.5766 14.135 14.5768H12.9212C12.7915 14.5766 12.6649 14.5353 12.5584 14.4584C12.4519 14.3815 12.3707 14.2727 12.3256 14.1466H12.393C12.4318 14.1465 12.4699 14.1358 12.5035 14.1157C12.537 14.0955 12.5649 14.0665 12.5842 14.0317C12.6036 13.997 12.6138 13.9576 12.6139 13.9176C12.6138 13.8774 12.6035 13.8379 12.5842 13.803C12.5648 13.7683 12.5369 13.7394 12.5034 13.7193C12.4698 13.6993 12.4318 13.6886 12.393 13.6885H12.3256C12.3706 13.5623 12.4519 13.4534 12.5583 13.3764C12.6648 13.2995 12.7914 13.2581 12.9212 13.2579Z" fill="white"/>
</svg>
