<svg width="33" height="32" viewBox="0 0 33 32" fill="none" xmlns="http://www.w3.org/2000/svg">
<rect x="0.5" width="32" height="32" rx="16" fill="#134A9B"/>
<g clip-path="url(#clip0_1_12151)">
<path fill-rule="evenodd" clip-rule="evenodd" d="M24.4106 10.5409C24.0486 10.2123 23.5903 9.99683 23.089 9.94146C21.9994 9.81952 20.9 9.75813 19.7968 9.72733C18.7009 9.69674 17.6002 9.69674 16.5019 9.69744C15.4038 9.69674 14.3033 9.69674 13.207 9.72733C12.1038 9.75813 11.0041 9.81952 9.91394 9.94146C9.41308 9.99683 8.95499 10.2124 8.59336 10.5411C8.23411 10.8677 7.97013 11.3063 7.85463 11.8104C7.69874 12.4862 7.61991 13.1913 7.58008 13.9008C7.54004 14.6132 7.53906 15.3167 7.53906 15.9996C7.53906 16.6816 7.53906 17.3842 7.57805 18.097C7.61697 18.8062 7.69489 19.5112 7.85085 20.1872C7.96698 20.6915 8.23117 21.1303 8.59035 21.4568C8.95177 21.7853 9.40944 22.0007 9.91009 22.0562C11.0004 22.1781 12.1002 22.2395 13.2034 22.2702C14.2995 22.3008 15.4002 22.3008 16.4984 22.3001C17.5972 22.3008 18.6978 22.3008 19.7938 22.2702C20.8968 22.2395 21.9963 22.1781 23.0864 22.0562C23.5871 22.0007 24.0447 21.7853 24.4062 21.4569C24.7656 21.1305 25.0301 20.6917 25.147 20.1872C25.3023 19.5112 25.3802 18.8062 25.4192 18.097C25.4577 17.3978 25.458 16.6883 25.458 15.9996H25.4587V15.965H25.458C25.458 14.5966 25.458 13.1473 25.1508 11.8104C25.0346 11.306 24.7702 10.8674 24.4106 10.5409Z" fill="white"/>
<path fill-rule="evenodd" clip-rule="evenodd" d="M19.8999 15.6614C18.8789 15.1283 17.865 14.5991 16.8521 14.0707C16.0101 13.6313 15.169 13.1924 14.3253 12.7519L14.0469 12.6064V19.0325L14.3246 18.8887C15.2564 18.406 16.1842 17.9252 17.1118 17.4441L19.8992 15.9987L20.2236 15.8304L19.8999 15.6614Z" fill="#134A9B"/>
</g>
<defs>
<clipPath id="clip0_1_12151">
<rect width="17.92" height="17.9196" fill="white" transform="translate(7.53906 7.04102)"/>
</clipPath>
</defs>
</svg>
