<svg width="337" height="207" viewBox="0 0 337 207" fill="none" xmlns="http://www.w3.org/2000/svg">
<g opacity="0.3" clip-path="url(#clip0_46_791)">
<path d="M171.034 22.093C181.764 22.3878 190.473 26.7517 197.428 35.0962C201.649 40.1383 206.018 45.2689 211.13 49.3379C222.93 58.7734 235.176 59.0683 248.076 51.3135C256.428 46.2714 265.048 46.1829 273.281 51.4904C281.514 56.8274 285.022 64.818 283.446 74.342C281.841 83.9839 275.956 90.5887 266.237 92.9476C257.052 95.1885 248.67 92.9475 242.874 85.4876C233.036 72.7497 217.788 68.4743 201.203 76.1996C190.919 80.9763 182.061 87.6401 175.79 97.164C168.121 108.84 167.378 120.753 174.987 132.96C183.072 145.963 177.187 162.328 162.979 167.075C152.19 170.702 140.687 166.338 135.099 156.549C129.6 146.877 131.8 134.493 140.687 127.535C148.593 121.313 153.26 113.558 153.676 103.474C153.943 96.8692 152.309 90.6182 149.336 84.78C147.583 81.3301 145.502 77.9982 143.302 74.8137C129.035 54.1146 140.39 26.8992 165.268 22.4468C167.111 22.1225 169.043 22.1814 171.093 22.0635L171.034 22.093Z" fill="#1E60C1"/>
<path d="M47.7765 56.2039C47.7765 63.3395 45.5175 69.62 41.4455 75.3697C36.3629 82.5643 32.2908 90.2011 31.1019 99.1058C29.6158 110.31 33.1231 119.51 42.04 126.587C49.9463 132.867 53.0672 140.976 50.6893 150.706C48.4304 160.024 42.1886 165.891 32.7069 167.69C22.7795 169.548 14.5165 166.216 8.92859 157.871C3.51901 149.792 3.34067 141.123 8.66108 132.926C14.5165 123.903 16.6566 114.321 12.4359 104.443C10.1175 98.9584 6.37241 93.7099 2.12203 89.464C-6.61652 80.7067 -17.0195 74.4262 -29.7707 72.9519C-41.2735 71.5955 -50.6957 75.3992 -58.1858 84.186C-65.4382 92.7369 -75.3063 95.4496 -84.9959 91.7344C-97.7471 86.8397 -103.573 72.4506 -97.7174 60.2434C-91.9808 48.2722 -76.6141 42.9057 -65.4085 50.3362C-46.9803 62.5433 -28.4034 54.9065 -16.9007 41.0186C-13.9581 37.4803 -11.3127 33.5587 -7.83516 30.6396C2.95427 21.6759 15.2596 19.8183 28.0702 25.5975C41.1185 31.4652 47.2712 42.1686 47.6873 56.2039H47.7765Z" fill="#1E60C1"/>
<path d="M58.5063 80.4424C58.5063 62.1906 73.5461 47.3297 92.0338 47.1823C110.432 47.0644 125.888 62.3381 125.859 80.6193C125.859 98.989 110.611 113.997 92.0041 113.997C73.3975 113.997 58.4469 99.0185 58.4766 80.4424H58.5063Z" fill="#1E60C1"/>
<path d="M253.25 -11.0339C253.19 7.51277 238.24 22.1672 219.366 22.0788C200.967 21.9903 186.046 6.98202 186.106 -11.3877C186.135 -29.8753 201.383 -44.8837 219.901 -44.7362C238.626 -44.5593 253.309 -29.7574 253.25 -11.0339Z" fill="#1E60C1"/>
<path d="M222.841 102.625C235.949 102.625 246.53 113.034 246.56 125.889C246.56 138.893 235.889 149.36 222.662 149.331C209.703 149.301 199.033 138.627 199.181 125.86C199.3 112.886 209.822 102.596 222.87 102.625H222.841Z" fill="#1E60C1"/>
<path d="M115.605 168.207C115.575 181.151 105.023 191.618 92.0937 191.559C79.1643 191.5 68.5234 180.915 68.5234 168.089C68.5234 155.115 79.3723 144.441 92.391 144.588C105.439 144.736 115.664 155.115 115.634 168.207H115.605Z" fill="#1E60C1"/>
<path d="M303.956 -7.6377C317.272 -7.37232 327.467 3.15416 327.229 16.3344C326.991 29.3376 316.232 39.3628 302.767 39.1269C290.075 38.891 279.821 28.1877 280.059 15.3613C280.297 2.38752 290.937 -7.87358 303.926 -7.6082L303.956 -7.6377Z" fill="#1E60C1"/>
</g>
<defs>
<clipPath id="clip0_46_791">
<rect width="494" height="503" fill="white" transform="translate(-157 -296)"/>
</clipPath>
</defs>
</svg>
