<svg width="20" height="20" viewBox="0 0 20 20" fill="none" xmlns="http://www.w3.org/2000/svg">
<path d="M3.33275 3.33331L16.6661 16.6666M13.7494 13.9632C12.6223 14.5704 11.3483 14.9999 9.99942 14.9999C7.05721 14.9999 4.47138 12.9565 2.98852 11.4823C2.5971 11.0932 2.40142 10.8986 2.27685 10.5167C2.18801 10.2444 2.18798 9.75545 2.27685 9.4831C2.40146 9.1012 2.59754 8.90619 2.98974 8.51637C3.73714 7.77349 4.76452 6.88631 5.97634 6.18894M16.2494 12.1945C16.527 11.9504 16.7811 11.7103 17.0092 11.4835L17.0117 11.481C17.4022 11.0928 17.598 10.8982 17.7223 10.5172C17.8112 10.2448 17.811 9.75568 17.7222 9.48331C17.5977 9.10154 17.4017 8.90643 17.0106 8.51757C15.5277 7.04338 12.9416 4.99998 9.99942 4.99998C9.71817 4.99998 9.44018 5.01865 9.16609 5.05371M11.1018 11.25C10.808 11.5093 10.4221 11.6666 9.99942 11.6666C9.07895 11.6666 8.33275 10.9205 8.33275 9.99998C8.33275 9.55039 8.51077 9.14255 8.80015 8.84275" stroke="#A9A9A9" stroke-width="1.66667" stroke-linecap="round" stroke-linejoin="round"/>
</svg>
