<svg width="67" height="67" viewBox="0 0 67 67" fill="none" xmlns="http://www.w3.org/2000/svg">
<path d="M24.8595 20.8957C25.1064 21.5732 25.3031 22.2726 25.6091 22.9217C26.0659 23.8943 25.937 24.22 24.8726 24.4713C24.4355 24.574 23.9983 24.6746 23.5612 24.7817C23.5066 24.7948 23.4629 24.8516 23.2749 24.9915C23.7055 25.2494 24.0333 25.5226 24.4092 25.6581C26.6604 26.4711 28.9028 27.3191 31.1867 28.0294C33.8422 28.8534 36.2792 30.1604 38.8035 31.275C38.9849 31.3559 39.1423 31.5023 39.2865 31.6444C40.4121 32.7481 41.5333 33.8562 42.6524 34.9687C43.2337 35.5479 43.4545 35.561 44.1058 35.043C45.8717 33.6464 47.6421 32.2542 49.4146 30.862C49.5238 30.7767 49.6462 30.7046 49.9151 30.5232C49.8276 31.3319 49.7796 32.0094 49.679 32.6782C48.9534 37.5324 47.1656 41.9385 44.156 45.8376C43.9899 46.054 43.9222 46.3949 43.92 46.6791C43.9047 51.0415 43.9003 55.4039 43.9222 59.7642C43.9244 60.256 43.7583 60.4964 43.3321 60.6887C41.1203 61.6875 38.7817 62.1662 36.3863 62.3825C33.1276 62.6776 29.8754 62.6579 26.6866 61.823C25.7665 61.5826 24.8988 61.1367 24.0115 60.7739C23.5743 60.5947 23.4563 60.2844 23.5219 59.797C24.1754 54.9472 24.7852 50.093 25.4539 45.2475C25.5698 44.4082 25.443 43.7504 24.9556 43.0335C21.4893 37.9389 18.071 32.8115 14.6397 27.6907C14.4233 27.3694 14.2091 27.0394 14.0474 26.6897C13.796 26.152 13.8397 25.645 14.2003 25.1335C16.8471 21.3874 19.4764 17.6304 22.1078 13.8734C22.6935 13.0363 22.9624 12.9773 23.9 13.3904C27.3991 14.9378 30.9048 16.4742 34.4127 18.0041C35.2257 18.3582 35.5295 18.7232 35.4814 19.5909C35.4377 20.3646 35.3437 21.1405 35.206 21.9054C35.0749 22.642 34.6924 22.9261 33.9471 23.0179C32.7079 23.1709 31.4665 23.3086 30.2338 23.5096C28.94 23.7195 27.845 23.3239 26.879 22.5086C26.4134 22.1131 25.9982 21.6563 25.5807 21.206C25.4343 21.0487 25.3534 20.8301 25.2441 20.64C25.1196 20.7296 24.9906 20.8126 24.8595 20.8957Z" fill="#1AB7DA"/>
<path d="M39.2272 29.8235C38.8819 29.6924 38.5825 29.6115 38.3158 29.4695C37.2514 28.8968 36.1958 28.3111 35.1423 27.721C34.4823 27.3516 34.4277 27.0697 34.9063 26.4577C36.8362 23.988 38.7704 21.5248 40.7047 19.0573C41.4128 18.1547 42.1187 17.2498 42.8269 16.3494C43.3339 15.7068 43.7077 15.6478 44.2956 16.2248C45.3928 17.2979 46.4571 18.406 47.5281 19.5075C47.8494 19.8376 47.8166 20.2222 47.5827 20.5785C47.3926 20.867 47.1609 21.1314 46.9314 21.3915C44.5819 24.071 42.2324 26.7484 39.8698 29.417C39.7102 29.6006 39.4436 29.6902 39.2272 29.8235Z" fill="#134A9B"/>
<path d="M49.1886 21.6123C49.4661 21.7959 49.7219 21.8986 49.8858 22.0844C50.7928 23.1138 51.6867 24.1541 52.5631 25.2098C52.9981 25.7343 52.9434 26.0644 52.3992 26.5058C49.6322 28.7504 46.8587 30.9863 44.0983 33.2375C43.6765 33.5828 43.3006 33.6003 42.8963 33.2418C42.2537 32.6714 41.6089 32.1031 40.9664 31.5305C40.5424 31.1524 40.5664 30.7656 40.9358 30.359C43.4142 27.6314 45.8883 24.8994 48.3755 22.1806C48.5832 21.9533 48.8891 21.8178 49.1886 21.6123Z" fill="#134A9B"/>
<path d="M31.1209 14.7275C30.6729 14.5767 30.3538 14.4914 30.0565 14.3647C28.6446 13.7614 27.2371 13.1517 25.8318 12.5353C25.1368 12.2315 24.986 11.7704 25.3553 11.1147C25.4559 10.9377 25.5804 10.7737 25.7006 10.6076C26.9967 8.8395 28.2949 7.07573 29.5888 5.30977C29.8445 4.96008 30.1658 4.85298 30.5505 5.04531C30.804 5.17208 31.0488 5.33163 31.2695 5.50866C32.3689 6.39382 33.4639 7.28773 34.5545 8.18601C35.2364 8.7477 35.2866 9.05369 34.7883 9.80771C33.9884 11.0207 33.1688 12.2206 32.3579 13.4292C32.1875 13.6849 32.0563 13.9756 31.8465 14.192C31.628 14.4171 31.3373 14.5723 31.1209 14.7275Z" fill="#134A9B"/>
<path d="M36.648 21.6339C36.648 21.2929 36.6371 21.1028 36.6502 20.9126C36.6939 20.2176 36.742 19.5248 36.7901 18.8297C36.8513 17.9686 36.4404 17.3785 35.7039 16.9982C34.9411 16.6026 34.1783 16.2048 33.3937 15.853C32.926 15.6432 32.8801 15.3459 33.1139 14.9765C34.0778 13.4554 35.0394 11.9298 36.0426 10.4349C36.4579 9.81637 37.1245 9.75955 37.6949 10.26C39.0806 11.473 40.4444 12.7145 41.817 13.945C42.1972 14.2859 42.171 14.6793 41.8956 15.0443C40.3351 17.0988 38.7615 19.1445 37.1879 21.1858C37.0808 21.3213 36.9169 21.4131 36.648 21.6339Z" fill="#134A9B"/>
<path d="M26.9045 24.8831C26.9898 24.8481 27.0116 24.8284 27.0269 24.8328C29.0573 25.5038 31.02 24.8918 32.998 24.5246C33.3783 24.4547 33.7629 24.3804 34.1476 24.3651C34.3202 24.3585 34.565 24.4503 34.6546 24.5815C34.7202 24.6776 34.6459 24.9705 34.5366 25.0732C33.9443 25.6327 33.3498 26.1966 32.6964 26.6774C32.4756 26.8392 32.0407 26.8654 31.7697 26.7692C30.1917 26.2163 28.6312 25.6109 27.0663 25.0186C27.016 24.9989 26.9789 24.9464 26.9045 24.8831Z" fill="#1AB7DA"/>
</svg>
