<svg width="313" height="71" viewBox="0 0 313 71" fill="none" xmlns="http://www.w3.org/2000/svg">
<path d="M126.261 52.428H119.553C118.2 45.6227 116.85 38.8301 115.472 31.8893C115.347 32.1602 115.271 32.3126 115.209 32.4734C112.573 38.9825 109.933 45.4873 107.31 52.0006C107.164 52.3646 106.98 52.4619 106.612 52.4577C104.858 52.4365 103.103 52.4365 101.353 52.4577C100.973 52.4619 100.806 52.3349 100.664 51.9837C98.0116 45.5169 95.3466 39.0586 92.6858 32.6004C92.6273 32.4522 92.5521 32.3126 92.431 32.0459C91.0233 38.9317 89.649 45.6777 88.2706 52.4238H81.5079C83.8303 40.9546 86.1486 29.5236 88.4711 18.0671C90.2547 18.0671 92.0049 18.0586 93.7551 18.084C93.893 18.084 94.0851 18.321 94.152 18.4903C95.5972 22.0284 97.03 25.5707 98.4669 29.113C100.209 33.4214 101.951 37.7297 103.697 42.0381C103.751 42.1735 103.818 42.3089 103.918 42.5248C104.027 42.2878 104.114 42.1227 104.185 41.9492C107.36 34.1324 110.539 26.3198 113.701 18.4988C113.839 18.1644 114.002 18.0586 114.348 18.0629C115.885 18.084 117.423 18.0798 118.956 18.0629C119.26 18.0629 119.382 18.1475 119.444 18.4649C121.103 26.7303 122.773 34.9958 124.444 43.2569C125.029 46.1475 125.622 49.0381 126.207 51.9329C126.236 52.081 126.245 52.2291 126.27 52.428H126.261Z" fill="white"/>
<path d="M128.906 44.832C131.124 44.2098 133.217 43.6216 135.326 43.0291C136.133 44.832 137.691 45.6192 139.412 46.0889C142.139 46.838 144.842 46.7407 147.377 45.3568C148.092 44.9674 148.752 44.3918 149.29 43.7697C150.067 42.8682 150.005 41.7806 149.261 40.8495C148.355 39.7153 147.135 39.0297 145.778 38.6826C144.345 38.3144 142.87 38.1155 141.412 37.8404C139.186 37.4215 136.943 37.049 134.921 35.9148C132.983 34.8271 131.346 33.4136 130.356 31.3652C128.798 28.1445 129.621 24.4287 132.444 21.7921C134.483 19.8918 136.935 18.8296 139.637 18.3979C142.808 17.89 145.928 18.127 148.919 19.3924C151.216 20.3616 153.192 21.7582 154.441 24.0182C154.65 24.3991 154.817 24.8011 155.03 25.254C152.92 25.965 150.857 26.6633 148.802 27.3574C147.528 25.3725 145.598 24.6699 143.43 24.4795C141.371 24.2975 139.403 24.6319 137.657 25.8549C137.532 25.9396 137.411 26.0327 137.298 26.1258C135.928 27.2558 135.899 28.5932 137.235 29.7528C138.184 30.578 139.311 31.0182 140.527 31.2467C142.849 31.6869 145.193 32.0466 147.494 32.5926C150.13 33.2147 152.444 34.5097 154.257 36.5962C157.382 40.1935 157.227 45.0097 153.91 48.4251C151.713 50.6851 148.998 51.9462 145.953 52.4795C142.24 53.127 138.605 52.8477 135.143 51.2225C133.05 50.2407 131.22 48.8991 129.967 46.893C129.57 46.2624 129.282 45.5599 128.906 44.8235V44.832Z" fill="white"/>
<path d="M234.736 23.8154C233.069 25.174 231.432 26.5029 229.795 27.836C229.206 27.3451 228.667 26.8372 228.074 26.4097C222.526 22.3977 213.387 24.7211 211.649 32.9781C210.847 36.7912 211.587 40.3378 214.314 43.2326C216.645 45.7084 219.59 46.6776 222.936 46.4321C225.618 46.2332 227.865 45.0863 229.744 43.1056C231.411 44.4599 233.057 45.8015 234.703 47.1431C231.257 51.3499 224.402 53.94 217.51 52.1667C210.187 50.2834 205.083 43.9224 204.745 36.3172C204.406 28.7205 208.863 21.8686 215.864 19.3209C222.769 16.807 230.467 18.8638 234.728 23.8154H234.736Z" fill="white"/>
<path d="M184.07 43.1206C185.741 44.4834 187.378 45.8165 189.015 47.1497C185.31 51.5892 178.159 54.0523 171.175 51.9912C164.588 50.0487 159.12 43.9586 159.032 35.6974C158.953 28.1176 163.535 21.5958 170.511 19.2047C177.378 16.8474 184.897 18.9846 189.028 23.822C187.378 25.1636 185.728 26.5052 184.145 27.796C183.209 27.1061 182.378 26.3528 181.426 25.8238C175.578 22.5692 167.424 25.4386 165.924 33.0989C165.185 36.8697 165.912 40.3528 168.585 43.2137C170.908 45.698 173.853 46.6799 177.198 46.4429C179.822 46.2567 182.044 45.1648 183.886 43.2772C183.932 43.2307 183.986 43.1926 184.066 43.1291L184.07 43.1206Z" fill="white"/>
<path d="M255.867 27.8116H262.492V30.8757C262.667 30.7191 262.759 30.6429 262.847 30.5583C265.374 28.1544 268.39 27.0498 271.836 27.2106C272.906 27.2614 274.004 27.4222 275.019 27.7566C277.613 28.6157 279.025 30.5498 279.459 33.2372C279.564 33.8848 279.593 34.5492 279.597 35.2052C279.606 40.7155 279.601 46.23 279.601 51.7403V52.4386H272.881V51.8376C272.881 47.1187 272.885 42.4041 272.876 37.6852C272.876 37.1478 272.843 36.5976 272.738 36.0728C272.392 34.363 271.285 33.3346 269.572 33.0722C266.911 32.6659 264.668 33.4869 262.843 35.4718C262.655 35.6792 262.521 36.0262 262.521 36.3098C262.5 41.4646 262.509 46.6236 262.509 51.7783V52.447H255.867V27.8116Z" fill="white"/>
<path d="M308.689 44.7156C310.076 45.8414 311.458 46.9713 312.845 48.1013C308.672 53.3154 300.226 54.0729 295.034 49.2906C289.754 44.4278 289.737 35.9719 294.992 31.0965C300.205 26.2634 308.668 27.0378 312.845 32.2434C311.458 33.3734 310.071 34.5034 308.689 35.6291C305.585 31.9133 300.51 32.8952 298.342 35.4091C296.045 38.0669 296.087 42.4345 298.434 45.0711C300.477 47.3607 305.472 48.478 308.689 44.7156Z" fill="white"/>
<path d="M243.985 52.4644H237.406V18.2812H243.985V52.4644Z" fill="white"/>
<path d="M33.9855 21.5834C31.2578 21.5749 29.1651 19.4673 29.1401 16.8433C29.1275 15.6837 29.0064 14.5453 28.5218 13.483C27.795 11.8875 26.6213 10.9225 24.8168 10.8379C23.1 10.7575 21.7925 9.50477 21.6255 7.83729C21.4667 6.24177 22.4985 4.75628 24.0565 4.32883C25.9487 3.8125 28.0206 5.17526 28.0958 7.10513C28.2211 10.3427 30.3806 11.7436 33.0248 11.9679C34.399 12.0864 35.7649 11.9806 37.0431 11.3838C38.668 10.6221 39.658 9.3905 39.7833 7.53258C39.8752 6.17405 40.4892 5.14564 41.7382 4.58276C42.9036 4.05797 44.0231 4.21879 45.0464 4.97635C46.0907 5.7466 46.5585 7.16861 46.2202 8.45519C45.886 9.72484 44.7749 10.8252 43.5343 10.8421C40.2511 10.8887 38.6137 13.4788 38.6095 16.4878C38.6095 18.1976 38.0247 19.6239 36.6463 20.6608C35.8151 21.2871 34.8669 21.5622 33.9855 21.5791V21.5834Z" fill="white"/>
<path d="M44.9552 46.5667C46.4631 46.6091 47.687 47.2354 48.6644 48.4331C49.2576 49.1568 49.8716 49.8932 50.5901 50.4773C52.2484 51.8315 53.9694 51.8739 55.7822 50.7608C56.956 50.0371 58.1673 50.0244 59.3244 50.7862C60.4815 51.5522 60.9743 52.6991 60.753 54.0661C60.5274 55.45 59.7003 56.3981 58.3344 56.7366C57.0437 57.0583 55.8658 56.7366 55.0512 55.6659C53.6686 53.8376 51.5258 53.2239 49.1949 54.3328C47.7497 55.0184 46.5049 55.9748 45.6235 57.3418C44.5458 59.0178 44.4414 60.7276 45.5107 62.4797C46.6469 64.3461 45.8198 66.6949 43.8232 67.3763C42.3069 67.8968 40.6904 67.2705 39.9051 65.8654C39.1323 64.4773 39.4414 62.6997 40.6904 61.701C41.8015 60.808 42.4573 59.6949 42.5158 58.2475C42.5533 57.2995 42.3236 56.4023 41.9059 55.5643C41.6594 55.0692 41.367 54.5909 41.0579 54.1338C39.0529 51.1629 40.6486 47.2566 44.1448 46.6175C44.4038 46.571 44.6753 46.5794 44.9635 46.5625L44.9552 46.5667Z" fill="white"/>
<path d="M11.8413 26.2408C11.812 23.8708 10.9181 22.2668 8.81704 21.4161C7.26734 20.7855 6.4904 19.1096 6.92064 17.5098C7.33 15.9863 8.83793 14.9028 10.3083 15.0721C12.0626 15.2752 13.32 16.5915 13.3367 18.3309C13.3408 18.843 13.157 19.3551 13.0819 19.8714C12.7978 21.8647 13.6165 23.3714 15.2122 24.4463C15.868 24.8907 16.6199 25.2124 17.3676 25.4832C19.4561 26.2366 20.7343 28.1114 20.6215 30.3587C20.5171 32.4917 19.0092 34.2607 16.8788 34.7347C16.0142 34.9294 15.1579 34.8448 14.3141 34.5739C13.1403 34.1973 11.9415 34.0237 10.7134 34.2692C9.16792 34.5739 8.11111 35.4669 7.53885 36.9693C6.84128 38.8018 5.01588 39.6356 3.26568 38.9627C1.69927 38.3575 0.851317 36.6011 1.32751 34.9421C1.79116 33.3339 3.45783 32.1743 5.00753 32.6483C8.2239 33.6344 10.3459 31.5945 11.2272 29.089C11.4068 28.5812 11.5656 28.0648 11.6742 27.5401C11.7744 27.0661 11.7953 26.5709 11.8371 26.245L11.8413 26.2408Z" fill="white"/>
<path d="M27.6271 51.4657C27.6271 52.4898 27.3096 53.3913 26.7373 54.2166C26.0231 55.2492 25.4508 56.3453 25.2837 57.6234C25.0749 59.2317 25.5678 60.5521 26.8209 61.5678C27.932 62.4693 28.3706 63.6331 28.0364 65.0297C27.719 66.3671 26.8418 67.2093 25.5093 67.4675C24.1141 67.7341 22.9529 67.2559 22.1676 66.0582C21.4074 64.8985 21.3823 63.6543 22.13 62.4777C22.9529 61.1827 23.2536 59.8073 22.6605 58.3895C22.3347 57.6023 21.8084 56.849 21.211 56.2395C19.983 54.9826 18.521 54.0811 16.729 53.8695C15.1125 53.6748 13.7883 54.2208 12.7357 55.482C11.7165 56.7093 10.3297 57.0987 8.96796 56.5654C7.17599 55.8629 6.35728 53.7976 7.18016 52.0455C7.98634 50.3272 10.1459 49.5569 11.7207 50.6235C14.3105 52.3756 16.9212 51.2794 18.5377 49.2861C18.9512 48.7782 19.323 48.2154 19.8117 47.7964C21.328 46.5098 23.0573 46.2432 24.8576 47.0727C26.6914 47.9149 27.5561 49.4511 27.6145 51.4657H27.6271Z" fill="white"/>
<path d="M57.7524 15.2031C59.3439 15.2031 60.6221 16.2739 60.9479 17.8694C61.2528 19.3591 60.4675 20.9843 59.0348 21.4964C56.6664 22.347 55.4467 24.4419 55.9939 27.2987C56.3197 29 56.9421 30.5786 58.2495 31.7763C59.4316 32.8597 60.7975 33.2406 62.3723 32.8343C64.1309 32.3815 65.785 33.266 66.3572 34.9292C66.9128 36.5248 66.1735 38.2938 64.6446 39.0175C62.9654 39.8132 60.9103 39.0768 60.2837 37.2908C59.4358 34.8785 57.1467 33.6723 54.4233 34.2394C53.7716 34.3748 53.1367 34.6034 52.4809 34.7092C50.0874 35.0985 47.8193 33.558 47.2094 31.1626C46.6079 28.7968 47.9028 26.3083 50.1877 25.4915C51.4575 25.0387 52.6772 24.5097 53.6087 23.477C54.6488 22.3216 55.0206 20.997 54.6154 19.4522C54.0265 17.2007 55.5219 15.2031 57.7482 15.2031H57.7524Z" fill="white"/>
<path d="M288.66 52.4655H282.039V27.8555H288.66V52.4655Z" fill="white"/>
<path d="M246.477 52.4482V27.8594H253.072V52.4482H246.477Z" fill="white"/>
<path d="M15.9358 46.5628C13.3251 46.5628 11.199 44.4087 11.2031 41.7593C11.2031 39.1269 13.3669 36.9558 15.965 36.9728C18.5465 36.9897 20.6601 39.1396 20.6726 41.7636C20.6851 44.4002 18.5506 46.5628 15.9358 46.5628Z" fill="white"/>
<path d="M29.1448 54.9459C29.1448 52.3261 31.2584 50.1931 33.8566 50.172C36.4422 50.155 38.6143 52.3473 38.6101 54.9712C38.6101 57.6079 36.4673 59.7621 33.8524 59.7621C31.2375 59.7621 29.1365 57.6121 29.1406 54.9459H29.1448Z" fill="white"/>
<path d="M56.5064 41.8102C56.498 44.4722 54.397 46.5756 51.7445 46.5629C49.1589 46.5502 47.062 44.396 47.0703 41.7594C47.0745 39.1058 49.2174 36.9517 51.8197 36.9728C54.4513 36.9982 56.5148 39.1228 56.5064 41.8102Z" fill="white"/>
<path d="M40.2344 20.4142C40.2427 17.7437 42.348 15.6361 44.9963 15.6446C47.607 15.653 49.683 17.8114 49.6704 20.5073C49.6579 23.0974 47.5359 25.2304 44.9587 25.2346C42.3396 25.2389 40.2302 23.0847 40.2385 20.4184L40.2344 20.4142Z" fill="white"/>
<path d="M27.5047 20.4266C27.5047 23.0844 25.3827 25.2428 22.7804 25.2343C20.1739 25.2258 18.0101 23.0294 18.0394 20.4223C18.0686 17.7645 20.1947 15.64 22.8096 15.6485C25.3994 15.6569 27.5047 17.7984 27.5047 20.4308V20.4266Z" fill="white"/>
<path d="M285.333 24.7807C283.487 24.7722 281.979 23.2317 282.008 21.3823C282.037 19.5159 283.558 18.0177 285.4 18.0473C287.234 18.0769 288.696 19.5751 288.692 21.4203C288.692 23.291 287.192 24.7891 285.337 24.7807H285.333Z" fill="white"/>
<path d="M249.766 18.0469C251.633 18.0427 253.111 19.5239 253.116 21.3988C253.116 23.2524 251.645 24.7506 249.82 24.7591C247.936 24.7676 246.462 23.3075 246.453 21.4284C246.445 19.5366 247.898 18.0511 249.77 18.0469H249.766Z" fill="white"/>
<path d="M18.7993 10.3294C18.7951 12.1747 17.3457 13.6178 15.5078 13.6178C13.6155 13.6178 12.1911 12.1662 12.1953 10.249C12.1995 8.3911 13.674 6.90984 15.5161 6.91407C17.3707 6.9183 18.8077 8.41226 18.7993 10.3294Z" fill="white"/>
<path d="M63.5525 29.4505C61.7104 29.4378 60.2651 27.9523 60.2735 26.0775C60.286 24.2153 61.7563 22.7341 63.5901 22.7383C65.4405 22.7383 66.9192 24.2661 66.8984 26.1452C66.8775 28.0031 65.3988 29.4632 63.5483 29.4505H63.5525Z" fill="white"/>
<path d="M18.7993 61.4632C18.7993 63.3465 17.3624 64.8278 15.5286 64.8362C13.6531 64.8447 12.1953 63.3719 12.1953 61.4759C12.1953 59.5968 13.6364 58.1367 15.4952 58.1367C17.3582 58.1367 18.7993 59.5841 18.8035 61.4674L18.7993 61.4632Z" fill="white"/>
<path d="M52.2314 58.125C54.0735 58.125 55.5606 59.619 55.5648 61.4642C55.5648 63.3306 54.0652 64.833 52.2064 64.8288C50.3852 64.8245 48.8856 63.2925 48.9065 61.46C48.9232 59.5978 50.4019 58.1208 52.2356 58.125H52.2314Z" fill="white"/>
<path d="M4.20722 42.3056C6.07021 42.3479 7.4946 43.8588 7.46536 45.759C7.43194 47.6043 5.89059 49.0559 4.01507 49.0136C2.21057 48.9713 0.802885 47.4265 0.844656 45.5347C0.886427 43.7064 2.39018 42.2633 4.20722 42.3056Z" fill="white"/>
<path d="M52.198 13.618C50.3601 13.6096 48.8856 12.1029 48.9065 10.2535C48.9232 8.38708 50.4395 6.89312 52.2941 6.91428C54.0777 6.93545 55.5648 8.45479 55.5689 10.2704C55.5689 12.1283 54.0652 13.6265 52.2022 13.618H52.198Z" fill="white"/>
<path d="M37.1634 67.5425C37.1592 69.4004 35.6764 70.9029 33.8593 70.8944C32.0423 70.8859 30.5469 69.3666 30.5469 67.5256C30.5469 65.6634 32.0715 64.1314 33.9011 64.1526C35.7348 64.1737 37.1718 65.6634 37.1676 67.5425H37.1634Z" fill="white"/>
<path d="M63.6324 42.3047C65.5037 42.3428 66.9365 43.8537 66.9031 45.7454C66.8696 47.6118 65.3575 49.0508 63.4653 49.0169C61.6817 48.983 60.2406 47.4468 60.274 45.6058C60.3074 43.7436 61.8028 42.2708 63.6282 42.3089L63.6324 42.3047Z" fill="white"/>
<path d="M33.8551 0.894568C35.7223 0.886104 37.1634 2.32927 37.1676 4.20835C37.1676 6.0959 35.739 7.58139 33.9094 7.59832C32.0548 7.61101 30.5469 6.10436 30.5469 4.23798C30.5469 2.37583 32.0089 0.8988 33.8551 0.894568Z" fill="white"/>
<path d="M0.843897 26.0603C0.860605 24.194 2.33094 22.7254 4.17304 22.7423C6.0235 22.755 7.4813 24.2786 7.46042 26.1704C7.43953 28.0114 5.9316 29.4799 4.0895 29.4545C2.23905 29.4249 0.827188 27.9521 0.843897 26.0603Z" fill="white"/>
</svg>
