<svg width="41" height="41" viewBox="0 0 41 41" fill="none" xmlns="http://www.w3.org/2000/svg">
<rect x="0.046875" y="0.894531" width="40" height="40" rx="20" fill="white"/>
<g clip-path="url(#clip0_1_720)">
<path fill-rule="evenodd" clip-rule="evenodd" d="M29.9331 14.0702C29.4807 13.6594 28.9078 13.3901 28.2812 13.3209C26.9192 13.1684 25.5449 13.0917 24.166 13.0532C22.796 13.015 21.4202 13.015 20.0473 13.0158C18.6747 13.015 17.299 13.015 15.9287 13.0532C14.5497 13.0917 13.175 13.1684 11.8123 13.3209C11.1863 13.3901 10.6137 13.6595 10.1616 14.0704C9.71256 14.4786 9.38259 15.0269 9.23821 15.6571C9.04334 16.5018 8.94481 17.3832 8.89503 18.2701C8.84498 19.1606 8.84375 20.0399 8.84375 20.8936C8.84375 21.746 8.84375 22.6243 8.89249 23.5153C8.94114 24.4018 9.03853 25.2831 9.23348 26.128C9.37865 26.7585 9.70888 27.3069 10.1579 27.715C10.6096 28.1257 11.1817 28.3949 11.8075 28.4642C13.1705 28.6167 14.5451 28.6934 15.9242 28.7318C17.2943 28.7701 18.6701 28.7701 20.043 28.7692C21.4164 28.7701 22.7922 28.7701 24.1622 28.7318C25.541 28.6934 26.9153 28.6167 28.278 28.4642C28.9038 28.3949 29.4758 28.1257 29.9276 27.7152C30.3769 27.3071 30.7075 26.7586 30.8537 26.128C31.0478 25.2831 31.1451 24.4018 31.194 23.5153C31.2421 22.6412 31.2424 21.7544 31.2424 20.8936H31.2433V20.8503H31.2424C31.2424 19.1398 31.2424 17.3282 30.8584 15.6571C30.7132 15.0265 30.3827 14.4783 29.9331 14.0702Z" fill="#E42B26"/>
<path fill-rule="evenodd" clip-rule="evenodd" d="M24.2929 20.471C23.0167 19.8046 21.7492 19.1432 20.4831 18.4826C19.4306 17.9334 18.3792 17.3847 17.3246 16.8342L16.9766 16.6523V24.6849L17.3238 24.5051C18.4884 23.9018 19.6482 23.3007 20.8078 22.6994L24.2919 20.8927L24.6975 20.6823L24.2929 20.471Z" fill="#FFFFFE"/>
</g>
<defs>
<clipPath id="clip0_1_720">
<rect width="22.4" height="22.3995" fill="white" transform="translate(8.84375 9.69531)"/>
</clipPath>
</defs>
</svg>
