<svg width="25" height="25" viewBox="0 0 25 25" fill="none" xmlns="http://www.w3.org/2000/svg">
<path d="M12.4995 10.5107C14.4187 10.5107 15.9746 8.95487 15.9746 7.03563C15.9746 5.1164 14.4187 3.56055 12.4995 3.56055C10.5803 3.56055 9.02441 5.1164 9.02441 7.03563C9.02441 8.95487 10.5803 10.5107 12.4995 10.5107Z" fill="#134A9B"/>
<path d="M12.475 11.5254C8.65709 11.5388 5.5918 14.6903 5.5918 18.5105V19.8581C5.5918 19.9906 5.61791 20.1218 5.66864 20.2442C5.71937 20.3667 5.79373 20.4779 5.88746 20.5716C5.9812 20.6653 6.09246 20.7395 6.21492 20.7902C6.33737 20.8409 6.46861 20.8669 6.60113 20.8668H18.3978C18.5303 20.8669 18.6615 20.8409 18.784 20.7902C18.9065 20.7395 19.0177 20.6653 19.1115 20.5716C19.2052 20.4779 19.2796 20.3667 19.3303 20.2442C19.381 20.1218 19.4071 19.9906 19.4071 19.8581V18.4308C19.4068 17.5218 19.2271 16.6218 18.8783 15.7824C18.5295 14.943 18.0185 14.1807 17.3745 13.5392C16.7305 12.8976 15.9662 12.3896 15.1254 12.044C14.2847 11.6984 13.384 11.5222 12.475 11.5254Z" fill="#134A9B"/>
</svg>
