<svg width="25" height="25" viewBox="0 0 25 25" fill="none" xmlns="http://www.w3.org/2000/svg">
<path d="M13.7758 9.42775L15.1248 9.66628C15.0107 10.0914 14.904 10.5382 14.7704 10.9788C14.4395 12.0687 13.9253 13.0502 13.0517 13.8137C12.5158 14.2866 11.8588 14.601 11.1543 14.7216C10.7234 14.7975 10.6875 14.8357 10.6858 15.2717C10.6858 15.9564 10.6801 16.6412 10.6858 17.326C10.6915 18.6076 11.4173 19.6496 12.6351 20.0457C13.8528 20.4417 15.0495 20.3995 16.1731 19.7135C17.0553 19.1749 17.4964 18.3771 17.5129 17.3517C17.5289 16.3816 17.5198 15.4115 17.5266 14.4414C17.5266 14.224 17.4336 14.0865 17.2413 13.9952C16.6482 13.7216 16.1863 13.2261 15.9551 12.6153C15.4038 11.2355 16.4316 9.71821 17.7241 9.44772C18.6422 9.25599 19.8166 9.76386 20.2509 10.5531C20.8124 11.5728 20.7011 12.6787 19.9347 13.4411C19.7256 13.6461 19.4873 13.8191 19.2277 13.9546C18.9926 14.0785 18.8825 14.2445 18.8802 14.4916C18.875 15.1929 18.8802 15.8948 18.8745 16.5961C18.8693 17.0589 18.9087 17.5337 18.8231 17.9822C18.4556 19.8967 17.2253 21.0272 15.3913 21.4865C14.2209 21.7793 13.0191 21.7376 11.9001 21.2229C10.2618 20.4691 9.38188 19.1686 9.30541 17.3574C9.27517 16.6361 9.29229 15.9125 9.30541 15.1889C9.30941 14.9367 9.21524 14.7855 8.9693 14.7438C7.12955 14.4317 6.07444 13.2248 5.43133 11.5871C5.20307 11.0079 5.08039 10.3887 4.9052 9.78725C4.86583 9.65315 4.88066 9.56642 5.03588 9.53788C5.36171 9.4774 5.68526 9.39465 6.01338 9.36156C6.08414 9.35471 6.21082 9.50422 6.2462 9.60465C6.47446 10.2569 6.62967 10.9399 6.91157 11.5671C7.47422 12.8196 8.4603 13.469 9.86236 13.4416C10.4256 13.4308 10.9814 13.408 11.5121 13.1894C12.311 12.8596 12.808 12.2307 13.123 11.4666C13.3632 10.8829 13.5156 10.2626 13.7073 9.65943C13.725 9.58125 13.7518 9.50136 13.7758 9.42775ZM18.212 12.8219C18.8174 12.8259 19.2123 12.4367 19.2146 11.8341C19.2169 11.2315 18.8151 10.7944 18.2519 10.7859C17.6168 10.7762 17.1985 11.1853 17.1957 11.8233C17.1922 12.447 17.5688 12.8174 18.212 12.8219Z" fill="#134A9B"/>
<path d="M10.8466 3.63408C10.8466 3.46289 10.8551 3.2917 10.8466 3.1205C10.8329 2.89225 10.9373 2.81635 11.1536 2.82377C11.4577 2.83404 11.7619 2.82377 12.0666 2.82834C12.272 2.82834 12.4923 2.761 12.5853 3.07485C12.6104 3.15931 12.8815 3.1964 13.0418 3.21009C13.5862 3.25632 14.118 3.33564 14.5825 3.64778C15.2867 4.11912 15.6126 4.80161 15.523 5.62276C15.4123 6.63964 15.2102 7.64568 15.0625 8.65857C15.0208 8.94389 14.881 9.00438 14.6328 8.94389C14.5506 8.92392 14.4656 8.91422 14.3823 8.8971C14.2225 8.864 14.1397 8.79781 14.1734 8.60265C14.3315 7.68962 14.4679 6.7669 14.6248 5.85045C14.8 4.83071 14.3703 4.23953 13.346 4.11456C13.205 4.09744 13.0606 4.08831 12.922 4.07519C12.7114 4.05464 12.5465 4.08546 12.5094 4.34738C12.5008 4.40445 12.3856 4.49175 12.3171 4.49404C11.9091 4.50887 11.4999 4.50145 11.0914 4.50317C10.9065 4.50317 10.8414 4.40445 10.8449 4.23211C10.85 4.03296 10.8466 3.8338 10.8466 3.63408Z" fill="#134A9B"/>
<path d="M9.05025 3.6066C9.05025 3.81545 9.06793 4.02716 9.04054 4.2343C9.03027 4.3102 8.915 4.42661 8.84367 4.43003C8.43566 4.44943 8.02595 4.44943 7.61794 4.43003C7.54318 4.42661 7.47299 4.30791 7.40109 4.24172C7.31378 4.16183 7.22077 4.00661 7.14088 4.01346C6.7644 4.03478 6.39083 4.0921 6.02529 4.18465C5.48089 4.33816 5.25549 4.7707 5.29258 5.29912C5.33481 5.91198 5.44265 6.52029 5.53167 7.12973C5.60129 7.60793 5.68689 8.08384 5.76336 8.56147C5.7702 8.60484 5.76963 8.68701 5.7565 8.69043C5.54023 8.7475 5.32225 8.82168 5.10255 8.8291C5.03521 8.8291 4.91824 8.65391 4.89713 8.54378C4.75447 7.80195 4.62892 7.05041 4.50395 6.3023C4.4503 6.0249 4.41467 5.74432 4.39725 5.46232C4.35502 4.23544 5.086 3.47934 6.14168 3.23682C6.43499 3.16891 6.74086 3.15294 7.04159 3.11927C7.20821 3.10101 7.35887 3.08275 7.41821 2.88131C7.43362 2.82767 7.53919 2.76718 7.60424 2.76718C8.01282 2.75691 8.42197 2.76718 8.83055 2.75977C8.98748 2.75977 9.0588 2.81683 9.05195 2.97661C9.04339 3.18832 9.05025 3.39717 9.05025 3.6066Z" fill="#134A9B"/>
</svg>
