<svg width="25" height="25" viewBox="0 0 25 25" fill="none" xmlns="http://www.w3.org/2000/svg">
<path d="M10.4818 2.01186C11.1309 0.614085 13.1181 0.614084 13.7672 2.01186L15.9762 6.76836C16.2401 7.33664 16.7789 7.72815 17.401 7.80354L22.6072 8.43453C24.1372 8.61996 24.7513 10.5099 23.6225 11.5592L19.7814 15.1298C19.3225 15.5564 19.1167 16.1899 19.2372 16.8048L20.2459 21.9513C20.5423 23.4636 18.9347 24.6317 17.5879 23.8824L13.0051 21.3327C12.4575 21.0281 11.7914 21.0281 11.2439 21.3327L6.66104 23.8824C5.31428 24.6317 3.70663 23.4636 4.00306 21.9513L5.01179 16.8048C5.1323 16.1899 4.92647 15.5564 4.46756 15.1298L0.626466 11.5592C-0.502307 10.5099 0.111761 8.61996 1.64172 8.43453L6.84802 7.80354C7.47004 7.72815 8.00891 7.33664 8.27282 6.76836L10.4818 2.01186Z" fill="#FFE55D"/>
</svg>
