<svg width="41" height="41" viewBox="0 0 41 41" fill="none" xmlns="http://www.w3.org/2000/svg">
<g clip-path="url(#clip0_13_811)">
<path d="M9.79138 24.2149C8.5588 23.9551 7.44846 23.7336 6.34576 23.4891C5.0546 23.2039 5.02149 22.9135 5.64288 21.7879C6.90857 19.501 8.48749 18.0698 11.3805 18.4034C13.2396 18.6173 14.574 17.5426 15.8321 16.0274C18.1546 13.2337 20.6401 10.5037 23.4287 8.19387C26.6375 5.53771 30.6638 4.58526 34.7945 4.29494C35.8437 4.22109 36.1696 4.84756 36.0449 5.93499C35.6425 9.43918 34.8225 12.867 32.6604 15.6632C30.865 17.9858 28.6265 19.9798 26.4924 22.0222C25.1172 23.3363 23.5408 24.439 22.1274 25.7174C21.7963 26.0154 21.753 26.6393 21.6002 27.1206C21.5671 27.2301 21.6359 27.3702 21.6486 27.495C22.0204 31.1291 21.0909 32.8684 17.9101 34.5034C17.1461 34.8956 16.6801 34.6485 16.5146 33.8412C16.3286 32.927 16.2472 31.9873 15.9874 31.0985C15.9059 30.8158 15.254 30.4033 15.1037 30.4848C13.4204 31.4117 12.2795 30.4873 11.1513 29.4406C10.9654 29.2674 10.7693 29.0994 10.6038 28.9084C8.32706 26.293 8.58172 26.9296 9.79138 24.2149ZM24.1927 13.7812C24.1724 14.9705 25.0229 16.063 25.9474 16.035C26.9508 16.0045 27.9974 14.8916 28.0127 13.8347C28.028 12.839 27.2207 12.0011 26.1944 11.9502C25.1503 11.8993 24.2106 12.76 24.1927 13.7812Z" fill="#45DDFF"/>
<path d="M4.08697 32.9373C4.18883 31.3304 4.94264 29.2778 6.55977 27.5817C6.70493 27.4289 6.85518 27.2048 7.03345 27.1742C7.45365 27.1004 7.88913 27.1233 8.31951 27.1055C8.27622 27.4875 8.26603 27.8771 8.18454 28.2489C7.93497 29.3822 7.51986 30.5002 7.43327 31.6436C7.34414 32.7947 7.83819 33.0723 8.9358 32.7387C9.89589 32.4484 10.828 32.0638 11.8008 31.8346C12.193 31.7429 12.6565 31.9492 13.0868 32.018C12.929 32.4051 12.8729 32.9017 12.5953 33.1614C10.8178 34.8269 8.59964 35.4891 6.24399 35.7335C4.34163 35.9322 4.02585 35.5858 4.08697 32.9373Z" fill="white"/>
<circle cx="26.0532" cy="14.271" r="2.64303" fill="white"/>
</g>
<defs>
<clipPath id="clip0_13_811">
<rect width="31.9911" height="31.4945" fill="white" transform="translate(4.08008 4.28711)"/>
</clipPath>
</defs>
</svg>
