<svg width="40" height="40" viewBox="0 0 40 40" fill="none" xmlns="http://www.w3.org/2000/svg">
<path d="M35.3125 5.85938V29.4531C35.3125 30.1093 34.797 30.625 34.1406 30.625C33.4843 30.625 32.9688 30.1093 32.9688 29.4531V5.85938C32.9688 3.91398 31.3985 2.34375 29.4531 2.34375C27.5077 2.34375 25.9375 3.91398 25.9375 5.85938V31.7969C25.9375 36.3203 22.2578 40 17.7344 40C14.7343 40 12.0547 38.3828 10.625 35.9921C9.875 34.7733 9.45312 33.3202 9.45312 31.7969V27.1094C9.45312 26.453 9.96867 25.9375 10.625 25.9375C11.2813 25.9375 11.7969 26.453 11.7969 27.1094V31.7969C11.7969 35.0313 14.5 37.6562 17.7344 37.6562C20.9688 37.6562 23.5938 35.0313 23.5938 31.7969V5.85938C23.5938 2.625 26.2187 0 29.4531 0C32.6875 0 35.3125 2.625 35.3125 5.85938Z" fill="#134A9B"/>
<path d="M35.3125 5.85938V29.4531C35.3125 30.1093 34.797 30.625 34.1406 30.625C33.4843 30.625 32.9688 30.1093 32.9688 29.4531V5.85938C32.9688 3.91398 31.3985 2.34375 29.4531 2.34375C27.5077 2.34375 25.9375 3.91398 25.9375 5.85938V31.7969C25.9375 36.3203 22.2578 40 17.7344 40C14.7343 40 12.0547 38.3828 10.625 35.9921V25.9375C11.2813 25.9375 11.7969 26.453 11.7969 27.1094V31.7969C11.7969 35.0313 14.5 37.6562 17.7344 37.6562C20.9688 37.6562 23.5938 35.0313 23.5938 31.7969V5.85938C23.5938 2.625 26.2187 0 29.4531 0C32.6875 0 35.3125 2.625 35.3125 5.85938Z" fill="#134A9B"/>
<path d="M14.1406 21.25V27.1094C14.1406 27.7655 13.6251 28.2812 12.9688 28.2812H8.28125C7.62492 28.2812 7.10938 27.7655 7.10938 27.1094V21.25H14.1406Z" fill="#1AB7DA"/>
<path d="M14.1406 21.25V27.1094C14.1406 27.7655 13.6251 28.2812 12.9688 28.2812H10.625V21.25H14.1406Z" fill="#1AB7DA"/>
<path d="M34.1406 28.2812C30.9062 28.2812 28.2812 30.9062 28.2812 34.1406C28.2812 37.375 30.9062 40 34.1406 40C37.375 40 40 37.375 40 34.1406C40 30.9062 37.375 28.2812 34.1406 28.2812Z" fill="#1AB7DA"/>
<path d="M34.1406 30.625C32.1952 30.625 30.625 32.1952 30.625 34.1406C30.625 36.0859 32.1952 37.6562 34.1406 37.6562C36.086 37.6562 37.6562 36.0859 37.6562 34.1406C37.6562 32.1952 36.086 30.625 34.1406 30.625Z" fill="#1AB7DA"/>
<path d="M37.6562 34.1406C37.6562 36.0859 36.086 37.6562 34.1406 37.6562V30.625C36.086 30.625 37.6562 32.1952 37.6562 34.1406Z" fill="#1AB7DA"/>
<path d="M35.3125 34.1406C35.3125 34.7968 34.797 35.3125 34.1406 35.3125C33.4843 35.3125 32.9688 34.7968 32.9688 34.1406C32.9688 33.4843 33.4843 32.9688 34.1406 32.9688C34.797 32.9688 35.3125 33.4843 35.3125 34.1406Z" fill="#1AB7DA"/>
<path d="M35.3125 34.1406C35.3125 34.7968 34.797 35.3125 34.1406 35.3125V32.9688C34.797 32.9688 35.3125 33.4843 35.3125 34.1406Z" fill="#1AB7DA"/>
<path d="M21.25 5.85997V10.3365C21.25 15.2584 18.4298 19.8209 14.047 22.0239L11.1405 23.4772C10.9766 23.5474 10.8125 23.5943 10.625 23.5943C10.4375 23.5943 10.2734 23.5474 10.1095 23.4772L7.20305 22.0239C2.82023 19.8209 0 15.2584 0 10.3365V5.85997C0 5.41466 0.257813 5.01622 0.656328 4.80529L3.23438 3.51622C3.82031 3.23497 4.52344 3.46927 4.80461 4.03177C5.1093 4.61771 4.875 5.32083 4.28906 5.60216L2.34375 6.58654V10.3365C2.34375 14.3678 4.64844 18.1333 8.25781 19.9147L10.625 21.11L12.9922 19.9147C16.6015 18.1334 18.9062 14.3678 18.9062 10.3365V6.58654L16.8827 5.60216C16.2968 5.32076 16.0625 4.61771 16.3672 4.03177C16.6484 3.46927 17.4297 3.23497 18.0156 3.51622L20.5937 4.80529C20.9922 5.01622 21.25 5.41466 21.25 5.85997Z" fill="#134A9B"/>
<path d="M21.25 5.85997V10.3365C21.25 15.2584 18.4298 19.8209 14.047 22.0239L11.1405 23.4772C10.9766 23.5474 10.8125 23.5943 10.625 23.5943V21.11L12.9922 19.9147C16.6015 18.1334 18.9062 14.3678 18.9062 10.3365V6.58654L16.8827 5.60216C16.2968 5.32076 16.0625 4.61771 16.3672 4.03177C16.6484 3.46927 17.4297 3.23497 18.0156 3.51622L20.5937 4.80529C20.9922 5.01622 21.25 5.41466 21.25 5.85997Z" fill="#134A9B"/>
<path d="M5.9375 7.03125C3.99891 7.03125 2.34375 5.45422 2.34375 3.51562C2.34375 1.57703 3.99891 0 5.9375 0C7.87609 0 9.45312 1.57703 9.45312 3.51562C9.45312 5.45422 7.87609 7.03125 5.9375 7.03125Z" fill="#1AB7DA"/>
<path d="M15.3125 7.03125C13.3739 7.03125 11.7969 5.45422 11.7969 3.51562C11.7969 1.57703 13.3739 0 15.3125 0C17.2511 0 18.9062 1.57703 18.9062 3.51562C18.9062 5.45422 17.2511 7.03125 15.3125 7.03125Z" fill="#1AB7DA"/>
</svg>
