<svg width="40" height="40" viewBox="0 0 40 40" fill="none" xmlns="http://www.w3.org/2000/svg">
<g clip-path="url(#clip0_3_4696)">
<path d="M30.475 30.5391C28.2534 25.4792 20.1008 24.986 18.7269 30.1966C18.7195 30.2247 18.713 30.253 18.7076 30.2815C18.3056 32.4077 18.6241 33.697 18.8798 34.733C19.1512 35.8321 19.3305 36.5582 18.6013 38.267C18.2505 39.0891 18.8673 40.0002 19.7798 40.0002H27.4519C28.1572 40.0002 28.7291 39.4402 28.7291 38.7493V36.8793C28.7291 35.8206 31.194 33.5333 30.5468 30.7549C30.5296 30.681 30.5055 30.6087 30.475 30.5391ZM34.392 21.357C33.4221 19.9418 31.2735 19.9382 30.3011 21.357C28.7595 23.6067 28.7594 26.5422 30.3011 28.792C31.2709 30.2072 33.4196 30.211 34.392 28.792C35.9335 26.5425 35.9336 23.6066 34.392 21.357Z" fill="#1AB7DA"/>
<path d="M26.0109 24.5998C28.1355 23.2609 29.9731 20.7957 30.4798 18.605C30.9537 16.5561 29.6831 14.4916 27.587 13.9051C19.9322 11.7635 13.4035 7.94185 9.01021 1.47806C8.56102 0.817227 7.60819 0.730997 7.04141 1.28903L0.371682 7.85515C-0.265507 8.48245 -0.0532436 9.54449 0.779764 9.8894C8.59902 13.1271 14.5987 17.5462 19.1215 23.3991C20.7387 25.4918 23.7654 26.0149 26.0109 24.5998Z" fill="#1AB7DA"/>
<path d="M23.1215 20.6147C18.0703 14.078 11.4894 9.02603 3.05311 5.21472L0.371682 7.85454C-0.265507 8.48183 -0.0532436 9.54387 0.779764 9.88879C8.59901 13.1265 14.5987 17.5456 19.1215 23.3985C20.1256 24.6977 21.6744 25.393 23.2431 25.393C25.1144 25.393 26.5654 24.4358 27.9247 23.0166C26.0907 22.9693 24.2966 22.1352 23.1215 20.6147Z" fill="#1AB7DA"/>
<path d="M29.1061 35.8713C29.8071 34.5418 31.0331 32.8435 30.5466 30.755C30.5294 30.6811 30.5053 30.6088 30.4748 30.5391C28.1707 25.2911 19.4116 24.9151 18.6068 30.9041C22.5948 30.9772 26.601 32.7854 29.1061 35.8713ZM30.3008 21.3571C29.9069 21.9317 29.6069 22.5629 29.4114 23.228C29.5961 23.5766 29.8006 23.9147 30.024 24.2407C31.2598 26.044 33.7975 26.434 35.5463 25.1368C35.5594 23.7409 35.1358 22.4427 34.3918 21.3571C33.4219 19.9417 31.2732 19.9382 30.3008 21.3571Z" fill="#1AB7DA"/>
<path d="M34.6088 13.3096L17.3819 0.261357C16.824 -0.161271 16.0218 -0.0609689 15.5902 0.485491C15.1586 1.03195 15.2611 1.81756 15.8191 2.24018L33.046 15.2885C36.49 17.8971 38.1211 22.1868 37.1841 26.3673L34.539 38.4036C34.3675 39.1836 34.9755 39.9178 35.7889 39.9178C36.3778 39.9178 36.9074 39.5165 37.0363 38.9299L39.6803 26.8987C40.8208 21.8102 38.8589 16.5287 34.6088 13.3096ZM14.5796 23.2434L2.07551 13.4409C1.52486 13.0092 0.720988 13.0964 0.280177 13.6357C-0.160634 14.175 -0.0716259 14.9622 0.479109 15.3939L12.9832 25.1964C13.9753 25.9742 14.5428 27.1734 14.5012 28.4041L14.1529 38.7077C14.129 39.4143 14.707 39.9999 15.4302 39.9999C16.116 39.9999 16.6831 39.4668 16.7059 38.7904L17.0542 28.4868C17.1224 26.4718 16.1973 24.5117 14.5796 23.2434Z" fill="#134A9B"/>
</g>
<defs>
<clipPath id="clip0_3_4696">
<rect width="40" height="40" fill="white"/>
</clipPath>
</defs>
</svg>
