<svg width="40" height="40" viewBox="0 0 40 40" fill="none" xmlns="http://www.w3.org/2000/svg">
<path d="M28.7418 17.3929L27.9593 22.9313C29.3523 23.1586 30.9479 21.5542 31.179 20.1618C31.4629 18.4505 30.4876 17.2486 28.7418 17.3929ZM9.26431 20.1618C9.49539 21.5542 11.091 23.1586 12.484 22.9313L11.7015 17.3929C9.95567 17.2486 8.98041 18.4505 9.26431 20.1618Z" fill="#134A9B"/>
<path d="M28.2558 20.6399C28.1767 20.6396 28.099 20.6194 28.0298 20.5812C27.9606 20.5429 27.9021 20.4879 27.8597 20.4212C27.8173 20.3544 27.7924 20.2781 27.7872 20.1992C27.782 20.1203 27.7968 20.0414 27.8301 19.9696C28.1247 19.3409 29.0015 18.9818 29.6404 19.0441C29.702 19.0501 29.7619 19.0682 29.8165 19.0973C29.8712 19.1264 29.9196 19.1661 29.9589 19.2139C29.9983 19.2617 30.0278 19.3168 30.0458 19.3761C30.0639 19.4353 30.0701 19.4976 30.064 19.5592C30.058 19.6208 30.04 19.6807 30.0108 19.7354C29.9817 19.79 29.9421 19.8384 29.8942 19.8777C29.8464 19.9171 29.7913 19.9466 29.732 19.9646C29.6728 19.9827 29.6106 19.9889 29.5489 19.9829C29.3845 19.9744 29.2204 20.005 29.0701 20.0722C28.9198 20.1394 28.7876 20.2413 28.6843 20.3696C28.646 20.4507 28.5854 20.5193 28.5095 20.5672C28.4335 20.6151 28.3456 20.6403 28.2558 20.6399ZM12.1876 20.6399C12.098 20.64 12.0101 20.6144 11.9345 20.5663C11.8588 20.5182 11.7984 20.4495 11.7604 20.3683C11.6571 20.2401 11.5249 20.1382 11.3746 20.071C11.2243 20.0038 11.0602 19.9731 10.8958 19.9816C10.8341 19.9876 10.7719 19.9814 10.7127 19.9634C10.6534 19.9453 10.5983 19.9158 10.5505 19.8765C10.4539 19.797 10.3928 19.6824 10.3806 19.5579C10.3685 19.4335 10.4063 19.3092 10.4858 19.2126C10.5652 19.116 10.6798 19.0549 10.8043 19.0428C11.4419 18.9799 12.3197 19.3383 12.6146 19.9684C12.6482 20.0402 12.6632 20.1194 12.6581 20.1986C12.653 20.2778 12.628 20.3544 12.5855 20.4214C12.5429 20.4883 12.4841 20.5435 12.4146 20.5817C12.345 20.6199 12.267 20.6399 12.1876 20.6399Z" fill="#1AB7DA"/>
<path d="M33.6777 39.4966H6.76539C6.65722 39.4964 6.55094 39.4683 6.45674 39.4152C6.36255 39.362 6.28359 39.2855 6.22747 39.1931C6.17134 39.1006 6.13992 38.9953 6.13623 38.8872C6.13254 38.7791 6.1567 38.6719 6.20639 38.5758C6.63189 37.7369 7.20264 36.9799 7.89218 36.3401C9.37299 34.9662 13.1332 34.2808 15.0541 33.3062C15.5934 33.0442 16.0617 32.6564 16.4195 32.1754C16.7774 31.6944 17.0143 31.1344 17.1103 30.5426C17.2105 29.8477 17.2704 29.1475 17.2895 28.4456H23.1549C23.174 29.1475 23.2338 29.8477 23.3341 30.5426C23.43 31.1344 23.6669 31.6944 24.0248 32.1754C24.3827 32.6564 24.851 33.0442 25.3902 33.3062C27.3112 34.2808 31.0714 34.9662 32.5522 36.3401C33.2417 36.9799 33.8125 37.7369 34.238 38.5758C34.2877 38.6719 34.3119 38.7793 34.3081 38.8875C34.3044 38.9957 34.2728 39.1011 34.2166 39.1936C34.1603 39.2861 34.0812 39.3626 33.9868 39.4156C33.8924 39.4687 33.786 39.4966 33.6777 39.4966Z" fill="#1AB7DA"/>
<path d="M23.3342 30.5426C22.5049 31.0192 21.6065 31.3639 20.6712 31.5644C20.3752 31.6305 20.0682 31.6305 19.7721 31.5644C18.8368 31.3639 17.9384 31.0192 17.1091 30.5426C17.2094 29.8477 17.2692 29.1475 17.2883 28.4456H23.155C23.1741 29.1475 23.2339 29.8477 23.3342 30.5426Z" fill="#134A9B"/>
<path d="M11.7017 17.3942C11.697 21.5867 12.8021 24.9416 14.702 26.7827C15.8753 27.9196 17.368 29.1483 19.7732 29.6786C20.0691 29.744 20.3758 29.744 20.6717 29.6786C23.0768 29.1483 24.5702 27.9196 25.7429 26.7827C27.6416 24.9416 28.7473 21.5867 28.742 17.3942C27.6991 1.34179 12.4845 2.36358 11.7017 17.3942Z" fill="#1AB7DA"/>
<path d="M32.0051 30.442C33.0938 30.442 33.9763 29.5594 33.9763 28.4707C33.9763 27.382 33.0938 26.4995 32.0051 26.4995C30.9164 26.4995 30.0338 27.382 30.0338 28.4707C30.0338 29.5594 30.9164 30.442 32.0051 30.442Z" fill="#134A9B"/>
<path d="M3.38893 22.1268C4.3731 22.1268 5.17093 21.329 5.17093 20.3448C5.17093 19.3606 4.3731 18.5628 3.38893 18.5628C2.40476 18.5628 1.60693 19.3606 1.60693 20.3448C1.60693 21.329 2.40476 22.1268 3.38893 22.1268Z" fill="#134A9B"/>
<path d="M37.1754 22.5801C37.8479 22.5801 38.3931 22.035 38.3931 21.3625C38.3931 20.69 37.8479 20.1448 37.1754 20.1448C36.5029 20.1448 35.9578 20.69 35.9578 21.3625C35.9578 22.035 36.5029 22.5801 37.1754 22.5801Z" fill="#134A9B"/>
<path d="M3.82801 14.8039C4.5005 14.8039 5.04566 14.2587 5.04566 13.5862C5.04566 12.9138 4.5005 12.3686 3.82801 12.3686C3.15551 12.3686 2.61035 12.9138 2.61035 13.5862C2.61035 14.2587 3.15551 14.8039 3.82801 14.8039Z" fill="#134A9B"/>
<path d="M8.18584 30.8629C8.71543 30.8629 9.14475 30.4336 9.14475 29.904C9.14475 29.3744 8.71543 28.9451 8.18584 28.9451C7.65625 28.9451 7.22693 29.3744 7.22693 29.904C7.22693 30.4336 7.65625 30.8629 8.18584 30.8629Z" fill="#134A9B"/>
<path d="M36.7925 12.2458C37.4428 12.2458 37.9699 11.7186 37.9699 11.0683C37.9699 10.4181 37.4428 9.89093 36.7925 9.89093C36.1423 9.89093 35.6151 10.4181 35.6151 11.0683C35.6151 11.7186 36.1423 12.2458 36.7925 12.2458Z" fill="#134A9B"/>
<path d="M31.7833 15.9593C32.5121 13.5485 32.1817 8.33864 29.5939 4.7605C27.7855 2.2601 23.2283 -0.564746 20.222 0.910087C16.333 2.5047 17.6041 5.35722 20.222 8.53797C26.836 16.1652 29.8825 18.6593 30.8596 19.3639C30.973 19.4462 31.1108 19.4882 31.2509 19.4829C31.3909 19.4777 31.5252 19.4256 31.6321 19.335C32.5687 18.5342 32.1707 17.3395 31.7833 15.9593Z" fill="#134A9B"/>
<path d="M31.7835 16.4312C31.702 16.4313 31.6218 16.4102 31.5508 16.3701C31.4799 16.33 31.4205 16.2722 31.3785 16.2023C31.0663 15.6726 30.6965 15.1791 30.2759 14.7306C30.19 14.6443 30.1407 14.5282 30.1385 14.4064C30.1362 14.2847 30.1812 14.1668 30.2639 14.0774C30.3466 13.988 30.4607 13.9341 30.5822 13.9269C30.7038 13.9198 30.8234 13.9599 30.9161 14.0389C31.4016 14.5494 31.8283 15.1128 32.1881 15.7184C32.2522 15.8257 32.2711 15.9541 32.2406 16.0753C32.2101 16.1965 32.1328 16.3006 32.0256 16.3648C31.9525 16.4087 31.8687 16.4316 31.7835 16.4312ZM29.594 11.0977C29.5245 11.0978 29.4558 11.0826 29.3928 11.053C29.3299 11.0234 29.2743 10.9803 29.23 10.9267C29.191 10.8796 25.2918 6.21077 22.2353 6.21077C22.1102 6.21077 21.9902 6.16108 21.9018 6.07264C21.8134 5.9842 21.7637 5.86425 21.7637 5.73917C21.7637 5.6141 21.8134 5.49415 21.9018 5.40571C21.9902 5.31726 22.1102 5.26758 22.2353 5.26758C25.7351 5.26758 29.7864 10.1209 29.9572 10.3272C30.0137 10.3961 30.0495 10.4797 30.0605 10.5682C30.0714 10.6567 30.0571 10.7465 30.0191 10.8272C29.981 10.9079 29.9209 10.9761 29.8457 11.024C29.7705 11.0719 29.6832 11.0974 29.594 11.0977Z" fill="#1AB7DA"/>
<path d="M19.5554 3.27938C19.5035 2.28683 20.2219 0.910087 20.2219 0.910087C17.2157 -0.564746 12.6585 2.2601 10.8501 4.7605C8.26231 8.33864 7.93188 13.5485 8.66065 15.9593C8.33148 17.1326 7.99413 18.1723 8.47641 18.9495C8.54675 19.0582 8.63892 19.151 8.74706 19.2222C8.85521 19.2933 8.97697 19.3412 9.10461 19.3627C9.23225 19.3843 9.36297 19.3791 9.48848 19.3474C9.61399 19.3157 9.73154 19.2583 9.83366 19.1787C11.0284 18.267 14.0934 15.6065 20.2219 8.53797C21.8188 6.76194 19.6324 4.7605 19.5554 3.27938Z" fill="#134A9B"/>
<path d="M8.66035 16.4313C8.57696 16.4313 8.49506 16.4092 8.423 16.3672C8.35095 16.3252 8.29132 16.2649 8.25019 16.1923C8.20906 16.1198 8.1879 16.0376 8.18887 15.9542C8.18985 15.8709 8.21291 15.7892 8.25572 15.7176C8.61556 15.112 9.04225 14.5486 9.52777 14.0381C9.62041 13.9591 9.74004 13.919 9.8616 13.9262C9.98316 13.9333 10.0972 13.9872 10.18 14.0766C10.2627 14.166 10.3076 14.2839 10.3053 14.4056C10.3031 14.5274 10.2538 14.6436 10.1679 14.7298C9.74736 15.1782 9.3776 15.6717 9.06529 16.2012C9.02349 16.2713 8.9642 16.3294 8.89321 16.3697C8.82223 16.4101 8.74199 16.4313 8.66035 16.4313ZM10.8498 11.0979C10.7603 11.0979 10.6727 11.0724 10.5972 11.0244C10.5217 10.9764 10.4614 10.908 10.4233 10.827C10.3853 10.7461 10.371 10.6559 10.3822 10.5672C10.3934 10.4784 10.4297 10.3947 10.4867 10.3258C10.6574 10.1195 14.7087 5.26617 18.2086 5.26617C18.3336 5.26617 18.4536 5.31586 18.542 5.4043C18.6305 5.49274 18.6802 5.61269 18.6802 5.73777C18.6802 5.86284 18.6305 5.9828 18.542 6.07124C18.4536 6.15968 18.3336 6.20936 18.2086 6.20936C15.1479 6.20936 11.2529 10.8797 11.2139 10.9253C11.1697 10.9792 11.1142 11.0226 11.0512 11.0524C10.9883 11.0823 10.9195 11.0978 10.8498 11.0979Z" fill="#1AB7DA"/>
</svg>
