<svg width="40" height="40" viewBox="0 0 40 40" fill="none" xmlns="http://www.w3.org/2000/svg">
<g clip-path="url(#clip0_3_4706)">
<path d="M27.3171 9.3185C29.4474 9.3185 31.1743 7.59158 31.1743 5.46131C31.1743 3.33105 29.4474 1.60413 27.3171 1.60413C25.1869 1.60413 23.46 3.33105 23.46 5.46131C23.46 7.59158 25.1869 9.3185 27.3171 9.3185Z" fill="#134A9B"/>
<path d="M22.517 10.4615C22.517 10.4615 17.5921 13.1982 17.293 21.8049C17.293 21.8049 16.9578 30.5849 11.1366 35.0626" stroke="#1AB7DA" stroke-width="5" stroke-miterlimit="10" stroke-linecap="round" stroke-linejoin="round"/>
<path d="M17.3093 21.4255C17.3093 21.4255 23.0146 25.8331 22.0189 35.0613" stroke="#1AB7DA" stroke-width="5" stroke-miterlimit="10" stroke-linecap="round" stroke-linejoin="round"/>
<path d="M22.517 10.4615C22.517 10.4615 23.8108 15.1877 25.7009 17.0778C27.5909 18.9678 30.7251 21.8536 30.7251 21.8536" stroke="#1AB7DA" stroke-width="5" stroke-miterlimit="10" stroke-linecap="round" stroke-linejoin="round"/>
<path d="M36.0484 13.9186L38.3915 35.8805C38.5348 37.224 37.4816 38.395 36.1312 38.395H1.34814" stroke="#134A9B" stroke-width="3.15" stroke-miterlimit="10" stroke-linecap="round" stroke-linejoin="round"/>
<path d="M38.6518 12.2222L33.079 14.9082" stroke="#134A9B" stroke-width="3.15" stroke-miterlimit="10" stroke-linecap="round" stroke-linejoin="round"/>
<path d="M36.9924 22.7619C36.5929 22.7317 15.4154 22.7502 7.22282 22.759C5.46135 22.7609 4.03503 24.1892 4.03503 25.9507V38.3959" stroke="#134A9B" stroke-width="3.15" stroke-miterlimit="10" stroke-linecap="round" stroke-linejoin="round"/>
<path d="M14.2762 11.2718C14.2762 11.2718 12.0903 13.7903 11.534 18.1698" stroke="#134A9B" stroke-width="2.31874" stroke-miterlimit="10" stroke-linecap="round" stroke-linejoin="round"/>
</g>
<defs>
<clipPath id="clip0_3_4706">
<rect width="40" height="40" fill="white"/>
</clipPath>
</defs>
</svg>
