<svg width="40" height="40" viewBox="0 0 40 40" fill="none" xmlns="http://www.w3.org/2000/svg">
<g clip-path="url(#clip0_3_4700)">
<path d="M37.6339 28.5861C37.3035 28.5959 37.0487 28.8841 37.0487 29.2147V31.643H3.44408V29.2147C3.44408 28.8842 3.18938 28.5959 2.85904 28.586C2.77824 28.5835 2.69776 28.5973 2.62238 28.6265C2.547 28.6557 2.47826 28.6997 2.42022 28.756C2.36219 28.8123 2.31605 28.8796 2.28455 28.9541C2.25304 29.0285 2.23681 29.1085 2.23682 29.1894V35.2807C2.23682 35.6112 2.49152 35.8995 2.82185 35.9094C2.90266 35.9119 2.98313 35.8982 3.05851 35.8689C3.1339 35.8397 3.20264 35.7957 3.26068 35.7394C3.31871 35.6831 3.36485 35.6158 3.39635 35.5413C3.42786 35.4669 3.44409 35.3869 3.44408 35.306V32.8502H37.0487V35.2807C37.0487 35.6113 37.3035 35.8995 37.6339 35.9093C37.7147 35.9118 37.7951 35.8981 37.8705 35.8688C37.9459 35.8396 38.0146 35.7956 38.0727 35.7393C38.1307 35.683 38.1768 35.6157 38.2083 35.5412C38.2398 35.4668 38.256 35.3868 38.256 35.3059V29.1893C38.256 29.1085 38.2398 29.0285 38.2083 28.954C38.1768 28.8796 38.1306 28.8123 38.0726 28.756C38.0146 28.6998 37.9459 28.6557 37.8705 28.6265C37.7951 28.5973 37.7147 28.5836 37.6339 28.5861Z" fill="#1AB7DA"/>
<path fill-rule="evenodd" clip-rule="evenodd" d="M9.36063 18.6581L3.429 16.8055L2.62598 22.4955L10.4147 20.9167C10.6999 20.0179 10.2481 19.0254 9.36063 18.6581Z" fill="#1AB7DA"/>
<path fill-rule="evenodd" clip-rule="evenodd" d="M10.4146 20.9178C10.6998 20.0189 10.2481 19.0264 9.36066 18.6591L6.78955 17.856C7.67703 18.2233 8.1287 20.0188 7.84353 20.9178H10.4146Z" fill="#1AB7DA"/>
<path fill-rule="evenodd" clip-rule="evenodd" d="M18.9174 20.9168H3.42891L1.98022 24.7657L3.42891 27.2091L18.9174 25.7603L20.2463 23.1413L18.9174 20.9168Z" fill="#1AB7DA"/>
<path fill-rule="evenodd" clip-rule="evenodd" d="M18.9175 25.759H3.42897V13.2919C3.42897 12.4028 2.76846 11.6314 1.88364 11.5447C0.865838 11.445 0 12.2511 0 13.252V28.9466C0 29.0106 0.0254437 29.0721 0.0707337 29.1173C0.116024 29.1626 0.17745 29.1881 0.2415 29.1881H18.9175L20.2464 27.4736L18.9175 25.759Z" fill="#134A9B"/>
<path fill-rule="evenodd" clip-rule="evenodd" d="M39.8744 28.9481V17.1354C39.8744 16.2464 39.2138 15.4748 38.329 15.3881C37.3112 15.2884 36.4455 16.0947 36.4455 17.0931L33.978 25.7604L36.4455 29.1895H39.6329C39.697 29.1895 39.7584 29.164 39.8036 29.1188C39.8489 29.0735 39.8744 29.0121 39.8744 28.9481Z" fill="#1AB7DA"/>
<path fill-rule="evenodd" clip-rule="evenodd" d="M15.7919 20.9168H18.9174V25.7603H15.7919V20.9168Z" fill="#1AB7DA"/>
<path fill-rule="evenodd" clip-rule="evenodd" d="M15.7919 25.7606H18.9174V29.1897H15.7919V25.7606Z" fill="#134A9B"/>
<path fill-rule="evenodd" clip-rule="evenodd" d="M36.4456 25.7616V17.0943H33.6121V29.1906H36.4456V25.7616Z" fill="#134A9B"/>
<path fill-rule="evenodd" clip-rule="evenodd" d="M3.42889 20.9156V13.2943C3.42889 12.3858 2.73978 11.6034 1.8334 11.5406C1.50359 11.5172 1.1741 11.5903 0.885132 11.7509C1.41212 12.0452 1.77035 12.6087 1.77035 13.2521V25.7591H3.42889V22.33V20.9156Z" fill="#1AB7DA"/>
<path fill-rule="evenodd" clip-rule="evenodd" d="M21.858 13.6335C25.3896 11.7582 26.731 7.37545 24.8558 3.84374C23.8793 2.0026 22.2161 0.754631 20.35 0.250458C19.134 -0.0780795 17.829 -0.0917522 16.5697 0.250458C16.0479 0.392159 15.5436 0.591881 15.0662 0.845887C11.5368 2.72124 10.1932 7.10395 12.0684 10.6357C13.9437 14.1674 18.3264 15.5089 21.858 13.6335Z" fill="#1AB7DA"/>
<g filter="url(#filter0_b_3_4700)">
<path fill-rule="evenodd" clip-rule="evenodd" d="M22.4354 6.66921C22.4354 6.23754 22.0823 5.88439 21.6506 5.88439H19.8187V4.05239C19.8187 3.62073 19.4655 3.26758 19.0339 3.26758H17.8909C17.4605 3.26758 17.1083 3.61971 17.1083 4.05013V5.88439H15.2741C14.8424 5.88439 14.4893 6.23754 14.4893 6.66921V7.81225C14.4893 8.24392 14.8424 8.59707 15.2741 8.59707H17.1083V10.4291C17.1083 10.8607 17.4615 11.2139 17.8932 11.2139H19.0339C19.4655 11.2139 19.8187 10.8607 19.8187 10.4291V8.59707H21.6507C22.0823 8.59707 22.4355 8.24392 22.4355 7.81225V6.66921H22.4354Z" fill="white" fill-opacity="0.9"/>
</g>
<path fill-rule="evenodd" clip-rule="evenodd" d="M21.8581 13.6345C25.3898 11.7591 26.7312 7.3764 24.8559 3.84468C23.8794 2.00355 22.2163 0.755577 20.3501 0.251404C19.3977 -0.00756972 18.4022 -0.0681483 17.4254 0.0734236C17.7164 0.114287 18.0044 0.173735 18.2878 0.251404C20.154 0.755577 21.8148 2.00355 22.7936 3.84468C24.6689 7.3764 23.3274 11.7591 19.7958 13.6345C19.06 14.0266 18.2619 14.2883 17.4368 14.4079C18.9037 14.62 20.4483 14.3827 21.8581 13.6345Z" fill="#1AB7DA"/>
<path fill-rule="evenodd" clip-rule="evenodd" d="M5.18795 37.6535C5.18795 36.3576 4.13624 35.3058 2.84037 35.3058C1.54224 35.3058 0.492798 36.3576 0.492798 37.6535C0.492798 38.9494 1.54224 40.0012 2.84037 40.0012C4.13616 40.0012 5.18795 38.9494 5.18795 37.6535ZM39.9998 37.6444C39.9929 36.3508 38.9435 35.3058 37.6522 35.3058C36.3541 35.3058 35.3047 36.3576 35.3047 37.6535C35.3047 38.9494 36.3541 40.0012 37.6522 40.0012C38.9435 40.0012 39.9929 38.9562 39.9998 37.6649V37.6535V37.6444Z" fill="#134A9B"/>
<path fill-rule="evenodd" clip-rule="evenodd" d="M40 37.6444C39.9931 36.3508 38.9437 35.3058 37.6524 35.3058C37.365 35.3058 37.0889 35.3584 36.8334 35.4519C37.7231 35.7827 38.3596 36.6382 38.3642 37.6444V37.6649C38.3596 38.6687 37.7231 39.5243 36.8334 39.8551C37.0888 39.9509 37.365 40.0012 37.6524 40.0012C38.9437 40.0012 39.9931 38.9562 40 37.6649V37.6535V37.6444ZM2.84052 40.0012C4.20491 40.0012 5.29865 38.8352 5.17911 37.4461C5.08965 36.4058 4.3032 35.5366 3.27649 35.3462C2.85627 35.2678 2.42266 35.3043 2.02148 35.452C2.91576 35.785 3.55229 36.6452 3.55229 37.6536C3.55229 38.662 2.91576 39.5244 2.02148 39.8552C2.27697 39.951 2.553 40.0012 2.84052 40.0012Z" fill="#134A9B"/>
<path fill-rule="evenodd" clip-rule="evenodd" d="M39.8744 28.9482V17.1362C39.8744 16.2408 39.2046 15.4656 38.3127 15.3867C37.9441 15.3533 37.5746 15.4406 37.2599 15.6354C37.7504 15.9389 38.0767 16.4795 38.0767 17.0932V29.1896H39.6329C39.6646 29.1896 39.696 29.1833 39.7253 29.1712C39.7546 29.1591 39.7813 29.1413 39.8037 29.1189C39.8261 29.0965 39.8439 29.0699 39.856 29.0406C39.8682 29.0113 39.8744 28.9799 39.8744 28.9482Z" fill="#134A9B"/>
</g>
<defs>
<filter id="filter0_b_3_4700" x="7.48926" y="-3.73242" width="21.9462" height="21.9463" filterUnits="userSpaceOnUse" color-interpolation-filters="sRGB">
<feFlood flood-opacity="0" result="BackgroundImageFix"/>
<feGaussianBlur in="BackgroundImageFix" stdDeviation="3.5"/>
<feComposite in2="SourceAlpha" operator="in" result="effect1_backgroundBlur_3_4700"/>
<feBlend mode="normal" in="SourceGraphic" in2="effect1_backgroundBlur_3_4700" result="shape"/>
</filter>
<clipPath id="clip0_3_4700">
<rect width="40" height="40" fill="white"/>
</clipPath>
</defs>
</svg>
