<svg width="137" height="137" viewBox="0 0 137 137" fill="none" xmlns="http://www.w3.org/2000/svg">
<g clip-path="url(#clip0_6_1950)">
<g clip-path="url(#clip1_6_1950)">
<path d="M58.5391 38.7895L63.6012 35.8603L65.9427 37.2044L60.8805 40.1336L58.5391 38.7895ZM63.6012 36.0326L58.8144 38.7895L60.8805 39.9958L65.6673 37.2044L63.6012 36.0326Z" fill="#CCD4DD"/>
<path d="M58.6758 38.7885L60.8797 40.0636L64.289 38.0993L62.085 36.8242L58.6758 38.7885Z" fill="#CCD4DD"/>
<path d="M51.8242 44.3363L52.5818 43.9228L53.3739 44.3708L52.6507 44.8188L51.8242 44.3363Z" fill="#CCD4DD"/>
<path d="M50.1367 44.5102L50.8599 44.0966L52.3751 44.9582L51.6175 45.4062L50.1367 44.5102Z" fill="#CCD4DD"/>
<path d="M48.4141 44.7175L49.1717 44.2695L51.3756 45.5446L50.618 45.9926L48.4141 44.7175Z" fill="#CCD4DD"/>
<path d="M59.3341 39.6184C60.2294 40.1353 60.1947 40.3764 59.8848 40.5487L59.4715 40.79C59.3314 40.8752 59.1706 40.9202 59.0066 40.9202C58.8427 40.9202 58.6822 40.8752 58.5421 40.79L58.1974 40.5832C57.9563 40.5832 57.8186 40.2732 58.1974 40.0664L58.8864 39.7217C58.6453 39.7217 58.2321 39.4115 57.991 39.5494L57.2335 39.9974H56.9922C57.2495 39.7976 57.5264 39.6243 57.8186 39.4804C58.0597 39.4804 58.542 39.4805 59.2996 39.7562M59.2996 40.0319L58.714 40.3765C58.714 40.3765 58.714 40.3765 58.714 40.5832L58.9894 40.7555C58.9894 40.7555 59.2652 40.7555 59.3686 40.7555H59.6784C59.9194 40.7555 59.6785 40.3765 59.3341 40.2042" fill="#CCD4DD"/>
<path d="M57.0209 40.1674L56.0222 40.7532L58.4328 41.3736L58.0884 41.5803L55.4712 40.9255L55.4023 40.7532L56.7109 39.9951L57.0209 40.1674Z" fill="#CCD4DD"/>
<path d="M56.6772 42.4068H56.4359L52.9922 41.9243H53.2335L56.6772 42.4068ZM55.8507 41.3385C56.0918 41.3385 56.1262 41.5797 55.8507 41.752L55.5405 41.9243C55.4351 42 55.3087 42.0408 55.179 42.0408C55.0492 42.0408 54.9228 42 54.8174 41.9243L54.4732 41.7175C54.2321 41.7175 54.1977 41.4418 54.4732 41.304H54.7485C54.8539 41.2282 54.9803 41.1874 55.11 41.1874C55.2398 41.1874 55.3666 41.2282 55.472 41.304L55.8507 41.3385ZM55.575 41.3385H55.2651C55.2651 41.3385 55.2653 41.3385 54.9553 41.3385H54.7485C54.7485 41.3385 54.7485 41.3384 54.7485 41.5107H55.0243C55.0437 41.5327 55.0673 41.5504 55.0941 41.5625C55.1208 41.5745 55.1497 41.5808 55.179 41.5808C55.2083 41.5808 55.2376 41.5745 55.2643 41.5625C55.291 41.5504 55.3147 41.5327 55.3341 41.5107H55.575C55.575 41.5107 55.575 41.5108 55.575 41.3385ZM55.3341 42.6481C55.5751 42.6481 55.6096 42.8893 55.3341 43.0616L55.0587 43.2339C54.9534 43.3096 54.8265 43.3504 54.6968 43.3504C54.5671 43.3504 54.4407 43.3096 54.3353 43.2339L53.9565 43.0271C53.7155 43.0271 53.681 42.7859 53.9565 42.6136H54.2663C54.3717 42.5378 54.4985 42.497 54.6283 42.497C54.758 42.497 54.8844 42.5378 54.9898 42.6136L55.3341 42.6481ZM55.0587 42.6481L54.783 42.4756C54.783 42.4756 54.7831 42.4756 54.4732 42.4756H54.2323H54.5421C54.5421 42.4756 54.542 42.4756 54.8519 42.4756H55.0587" fill="#CCD4DD"/>
<path d="M29.5454 58.6054L26.4805 56.8478L30.544 56.4687L29.5454 58.6054Z" fill="#CCD4DD"/>
<path d="M31.4375 55.9177L32.1262 53.5742L35.1911 55.3663L31.4375 55.9177Z" fill="#CCD4DD"/>
<path d="M31.3358 56.3633L31.4392 55.9842L35.2961 55.3984L29.6484 58.6723L30.6471 56.4323L31.3358 56.3633Z" fill="#CCD4DD"/>
<path d="M26.375 56.7778L32.0227 53.5038L31.2306 56.3298L26.375 56.7778Z" fill="#CCD4DD"/>
<path d="M101.793 53.2625L102.378 52.9179L102.344 57.1568L101.793 57.5014V53.2625Z" fill="#BDBDC6"/>
<path d="M102.478 51.7133L103.063 51.4033C102.813 51.5628 102.612 51.7895 102.485 52.0576C102.357 52.3257 102.307 52.6244 102.34 52.9196L101.789 53.2642C101.761 52.9682 101.809 52.6697 101.93 52.398C102.05 52.1262 102.239 51.8903 102.478 51.7133Z" fill="#BDBDC6"/>
<mask id="mask0_6_1950" style="mask-type:luminance" maskUnits="userSpaceOnUse" x="101" y="51" width="3" height="3">
<path d="M102.482 51.7132C102.243 51.8903 102.054 52.1262 101.934 52.3979C101.813 52.6697 101.765 52.9681 101.793 53.2641L102.344 52.9196C102.311 52.6244 102.361 52.3257 102.488 52.0576C102.616 51.7895 102.817 51.5627 103.067 51.4032L102.482 51.7132Z" fill="white"/>
</mask>
<g mask="url(#mask0_6_1950)">
<path d="M102.482 51.7132L103.067 51.4032C102.842 51.5448 102.66 51.7443 102.539 51.9808C102.418 52.2173 102.362 52.482 102.379 52.7473L101.793 53.0573C101.796 52.7952 101.859 52.5374 101.979 52.3041C102.098 52.0708 102.27 51.8684 102.482 51.7132Z" fill="#BDBDC6"/>
<path d="M101.793 53.058L102.379 52.7479L101.827 53.0925V52.8857" fill="#BDBDC6"/>
</g>
<path d="M102.242 51.0923L102.793 50.7478C103.133 50.6067 103.503 50.5516 103.869 50.5877C104.236 50.6238 104.588 50.7498 104.894 50.9546L104.308 51.2991C104.016 51.0784 103.668 50.9424 103.304 50.906C102.94 50.8695 102.572 50.9339 102.242 51.0923Z" fill="#BDBDC6"/>
<mask id="mask1_6_1950" style="mask-type:luminance" maskUnits="userSpaceOnUse" x="102" y="50" width="3" height="2">
<path d="M102.688 50.7812L102.137 51.0912C102.467 50.9328 102.835 50.8684 103.199 50.9049C103.563 50.9413 103.91 51.0773 104.203 51.298L104.754 50.9534C104.372 50.7118 103.931 50.5806 103.48 50.5744C103.202 50.5693 102.928 50.6408 102.688 50.7812Z" fill="white"/>
</mask>
<g mask="url(#mask1_6_1950)">
<path d="M102.238 51.0938L102.789 50.7492C102.997 50.662 103.219 50.6171 103.443 50.6171C103.668 50.6171 103.891 50.662 104.098 50.7492L103.547 51.0593C103.34 50.9721 103.117 50.9272 102.892 50.9272C102.668 50.9272 102.445 50.9721 102.238 51.0593" fill="white"/>
<path d="M103.441 50.9547L103.993 50.6445L104.784 50.9547L104.199 51.2993C103.968 51.1425 103.712 51.0261 103.441 50.9547Z" fill="white"/>
</g>
<path d="M101.793 57.5018L102.344 57.1572L114.362 64.1186L113.811 64.4288L101.793 57.5018Z" fill="white"/>
<path d="M114.324 60.4998L114.91 60.1552L114.875 65.0144L114.324 65.3246V60.4998Z" fill="#DDDEE3"/>
<path d="M104.203 51.2996L104.789 50.955L111.986 55.1249L111.435 55.4696L104.203 51.2996Z" fill="white"/>
<path d="M111.434 55.4695L111.984 55.1249C112.833 55.6801 113.537 56.4287 114.04 57.3093C114.543 58.19 114.83 59.1776 114.877 60.1908L114.326 60.5011C114.271 59.4944 113.98 58.5147 113.478 57.6408C112.975 56.767 112.275 56.0233 111.434 55.4695Z" fill="#BDBDC6"/>
<mask id="mask2_6_1950" style="mask-type:luminance" maskUnits="userSpaceOnUse" x="111" y="55" width="4" height="6">
<path d="M111.434 55.4666C112.275 56.0203 112.975 56.7641 113.478 57.6379C113.98 58.5118 114.271 59.4915 114.326 60.4982L114.877 60.1879C114.83 59.1747 114.543 58.1871 114.04 57.3064C113.537 56.4257 112.833 55.6772 111.984 55.122L111.434 55.4666Z" fill="white"/>
</mask>
<g mask="url(#mask2_6_1950)">
<path d="M111.434 55.4666L111.984 55.122L112.226 55.2943L111.64 55.6043H111.434" fill="white"/>
<path d="M111.637 55.4666L112.222 55.122C113.529 56.0853 114.436 57.4958 114.771 59.0851L114.219 59.3953C113.871 57.8122 112.952 56.4132 111.637 55.4666Z" fill="#DDDEE3"/>
<path d="M114.223 59.5336L114.774 59.2236C114.808 59.5443 114.808 59.8677 114.774 60.1884L114.223 60.4987C114.255 60.1778 114.255 59.8545 114.223 59.5336Z" fill="#DDDEE3"/>
</g>
<path d="M111.436 55.469C112.278 56.0227 112.978 56.7665 113.481 57.6403C113.983 58.5142 114.274 59.4939 114.329 60.5006V65.3252L101.277 57.8124V52.9533C101.277 51.1267 102.62 50.3684 104.204 51.2989L111.436 55.469ZM113.812 64.4636V60.1903C113.766 59.3632 113.528 58.5585 113.115 57.8404C112.702 57.1222 112.128 56.5107 111.436 56.0548L104.204 51.8849C102.896 51.1267 101.794 51.8848 101.794 53.2633V57.5023L113.812 64.4636Z" fill="#BDBDC6"/>
<path d="M76.7891 38.8921L77.3401 38.582V42.8209L76.7891 43.131V38.8921Z" fill="#BDBDC6"/>
<path d="M77.4822 37.3767L78.0329 37.0322C77.7966 37.2115 77.6098 37.4476 77.4893 37.7187C77.3689 37.9899 77.3189 38.2871 77.3443 38.5828L76.7932 38.9276C76.7645 38.6316 76.8129 38.3331 76.9336 38.0614C77.0543 37.7896 77.2434 37.5538 77.4822 37.3767Z" fill="#BDBDC6"/>
<mask id="mask3_6_1950" style="mask-type:luminance" maskUnits="userSpaceOnUse" x="76" y="37" width="3" height="2">
<path d="M77.4822 37.3767C77.2434 37.5538 77.0543 37.7896 76.9336 38.0614C76.8129 38.3331 76.7645 38.6316 76.7932 38.9276L77.3443 38.5828C77.3189 38.2871 77.3689 37.9899 77.4893 37.7187C77.6098 37.4476 77.7966 37.2115 78.0329 37.0322L77.4822 37.3767Z" fill="white"/>
</mask>
<g mask="url(#mask3_6_1950)">
<path d="M77.4829 37.3767L78.0336 37.0322C77.8224 37.1873 77.6504 37.3895 77.5308 37.6228C77.4113 37.8561 77.3477 38.1139 77.345 38.376L76.7939 38.7208C76.7847 38.4566 76.8432 38.1944 76.9637 37.9591C77.0843 37.7239 77.2631 37.5234 77.4829 37.3767Z" fill="#BDBDC6"/>
<path d="M76.7932 38.7205L77.3443 38.3757V38.5825L76.7932 38.9273V38.7205Z" fill="#BDBDC6"/>
</g>
<path d="M77.1328 36.7558L77.6839 36.4111C78.0142 36.2527 78.3818 36.1882 78.7462 36.2247C79.1106 36.2612 79.4577 36.3973 79.7501 36.6181L79.1994 36.9626C78.907 36.7419 78.5595 36.6057 78.1951 36.5693C77.8307 36.5328 77.4631 36.5974 77.1328 36.7558Z" fill="#BDBDC6"/>
<mask id="mask4_6_1950" style="mask-type:luminance" maskUnits="userSpaceOnUse" x="77" y="36" width="3" height="1">
<path d="M77.6878 36.4135L77.1367 36.7583C77.4508 36.5768 77.8073 36.4812 78.17 36.4812C78.5327 36.4812 78.8892 36.5768 79.2033 36.7583L79.754 36.448C79.3623 36.1961 78.9105 36.0534 78.4453 36.0345C78.1781 36.0284 77.915 36.1002 77.6878 36.2412" fill="white"/>
</mask>
<g mask="url(#mask4_6_1950)">
<path d="M77.1367 36.7563L77.6878 36.4116C77.8945 36.3225 78.1173 36.2766 78.3423 36.2766C78.5674 36.2766 78.7898 36.3225 78.9964 36.4116L78.4453 36.7218C78.2387 36.6327 78.0163 36.5868 77.7912 36.5868C77.5662 36.5868 77.3434 36.6327 77.1367 36.7218" fill="white"/>
<path d="M78.4453 36.6181L78.9964 36.3078C79.2652 36.3659 79.5216 36.471 79.7539 36.6181L79.2032 36.9281L78.4453 36.6181Z" fill="white"/>
</g>
<path d="M76.793 43.1333L77.344 42.8232L89.3625 49.7846L88.8115 50.0948L76.793 43.1333Z" fill="white"/>
<path d="M89.3242 46.1304L89.8752 45.8203V50.645L89.3242 50.9896V46.1304Z" fill="#DDDEE3"/>
<path d="M79.1992 36.9283L79.7846 36.6181L86.982 40.7881L86.431 41.0982L79.1992 36.9283Z" fill="white"/>
<path d="M86.3984 41.0983L86.9836 40.788C87.8217 41.3458 88.5192 42.0906 89.0211 42.9636C89.5231 43.8366 89.816 44.8142 89.8766 45.8196L89.3255 46.1642C89.2717 45.1485 88.9784 44.16 88.4696 43.2795C87.9609 42.399 87.2512 41.6516 86.3984 41.0983Z" fill="#BDBDC6"/>
<mask id="mask5_6_1950" style="mask-type:luminance" maskUnits="userSpaceOnUse" x="86" y="40" width="4" height="7">
<path d="M86.3984 41.0973C87.2512 41.6507 87.9609 42.3981 88.4696 43.2786C88.9784 44.1591 89.2717 45.1475 89.3255 46.1632L89.8766 45.8187C89.816 44.8133 89.5231 43.8357 89.0211 42.9626C88.5192 42.0896 87.8217 41.3448 86.9836 40.787L86.3984 41.0973Z" fill="white"/>
</mask>
<g mask="url(#mask5_6_1950)">
<path d="M86.3984 41.0973L86.9836 40.787H87.1904L86.6393 41.1318H86.3984" fill="white"/>
<path d="M86.6367 41.2683L87.1878 40.9238C88.5028 41.8704 89.4225 43.2692 89.7706 44.8523L89.2195 45.1971C88.8713 43.6139 87.9517 42.2149 86.6367 41.2683Z" fill="#DDDEE3"/>
<path d="M89.2227 45.1296L89.7738 44.7851C89.8058 45.1059 89.8058 45.4291 89.7738 45.7499L89.2227 46.0947C89.2566 45.7739 89.2566 45.4504 89.2227 45.1296Z" fill="#DDDEE3"/>
</g>
<path d="M86.3981 41.099C87.2509 41.6524 87.9605 42.3998 88.4693 43.2803C88.978 44.1607 89.2714 45.1492 89.3252 46.1649V50.9897L76.2734 43.4424V38.6176C76.2734 36.7566 77.5824 35.9985 79.2009 36.929L86.3981 41.099ZM88.7741 50.0937V45.8548C88.7267 45.0194 88.484 44.2067 88.0653 43.4824C87.6466 42.7581 87.0637 42.1423 86.3636 41.6848L79.1664 37.5493C77.8234 36.7566 76.7556 37.5493 76.7556 38.9278V43.1667L88.7741 50.0937Z" fill="#BDBDC6"/>
<path d="M47.8958 64.843L46.2773 65.7736C46.496 65.6431 46.7458 65.5742 47.0004 65.5742C47.255 65.5742 47.5052 65.6431 47.7238 65.7736L49.3423 64.8087C49.1236 64.6782 48.8739 64.6093 48.6192 64.6093C48.3646 64.6093 48.1145 64.6782 47.8958 64.8087" fill="#2C3336"/>
<mask id="mask6_6_1950" style="mask-type:luminance" maskUnits="userSpaceOnUse" x="46" y="64" width="4" height="2">
<path d="M47.8958 64.839L46.2773 65.7696C46.496 65.639 46.7458 65.5701 47.0004 65.5701C47.255 65.5701 47.5052 65.639 47.7238 65.7696L49.3423 64.8047C49.0784 64.6246 48.7663 64.5284 48.4469 64.529C48.2669 64.4772 48.0758 64.4772 47.8958 64.529" fill="white"/>
</mask>
<g mask="url(#mask6_6_1950)">
<path d="M47.7253 65.8056L49.3437 64.8405C49.157 64.7162 48.9453 64.6341 48.7237 64.5995L47.1052 65.5298C47.3236 65.5925 47.5325 65.6853 47.7253 65.8056Z" fill="#2C3336"/>
<path d="M47.1401 65.806L48.7585 64.8754C48.502 64.7861 48.223 64.7861 47.9665 64.8754L46.3826 65.8405C46.6301 65.7696 46.8925 65.7696 47.1401 65.8405" fill="#2C3336"/>
<path d="M46.3467 65.8077L47.9307 64.8427L46.3123 65.7732" fill="#2C3336"/>
</g>
<path d="M49.1726 70.7008L50.757 69.7359C50.9661 69.5995 51.1338 69.4088 51.243 69.1842C51.3522 68.9596 51.3985 68.7096 51.3767 68.4608C51.3255 67.7688 51.1157 67.0977 50.7633 66.5C50.411 65.9023 49.9256 65.3941 49.345 65.0146L47.7266 65.9794C48.3185 66.3465 48.8125 66.852 49.1663 67.4522C49.5202 68.0525 49.7234 68.7296 49.7582 69.4257C49.7794 69.6757 49.7366 69.9271 49.6342 70.1562C49.5318 70.3853 49.373 70.5844 49.1726 70.7353" fill="#2C3336"/>
<mask id="mask7_6_1950" style="mask-type:luminance" maskUnits="userSpaceOnUse" x="47" y="64" width="5" height="7">
<path d="M47.7227 65.8084C48.3146 66.1755 48.8085 66.681 49.1624 67.2812C49.5163 67.8815 49.7195 68.5586 49.7543 69.2547C49.7693 69.504 49.7238 69.7532 49.6219 69.9812C49.52 70.2092 49.3645 70.4093 49.1687 70.5643L50.7531 69.5992C50.9571 69.4577 51.1208 69.2662 51.2294 69.0429C51.338 68.8196 51.3874 68.572 51.3728 68.3241C51.3215 67.6321 51.1118 66.9612 50.7594 66.3635C50.4071 65.7658 49.9217 65.2574 49.3411 64.8779L47.7227 65.8084Z" fill="white"/>
</mask>
<g mask="url(#mask7_6_1950)">
<path d="M49.168 70.7019L50.7524 69.737C50.9614 69.6006 51.1291 69.4099 51.2383 69.1853C51.3475 68.9607 51.3938 68.7107 51.372 68.4619C51.3571 67.9239 51.2281 67.3952 50.9932 66.9111L49.4093 67.8759C49.618 68.3553 49.7348 68.8697 49.7535 69.3923C49.7747 69.6423 49.7319 69.8937 49.6295 70.1228C49.5271 70.3518 49.3684 70.551 49.168 70.7019Z" fill="#2C3336"/>
<path d="M49.4116 67.8759L50.9956 66.911C50.8192 66.5233 50.5874 66.1634 50.307 65.8427L48.7227 66.7733C48.9963 67.1114 49.2278 67.4816 49.4116 67.8759Z" fill="#2C3336"/>
<path d="M48.721 66.7735L50.3399 65.8429C50.0503 65.5091 49.7138 65.2189 49.3411 64.9814L47.7227 65.9462C48.1049 66.1562 48.4435 66.437 48.721 66.7735Z" fill="#2C3336"/>
</g>
<path d="M47.7274 65.8081C46.6254 65.1533 45.6953 65.8081 45.6953 66.9454C45.7301 67.6415 45.9333 68.3186 46.2872 68.9188C46.6411 69.5191 47.1354 70.0245 47.7274 70.3917C48.8294 71.0464 49.7591 70.3916 49.7591 69.2543C49.7242 68.5583 49.5211 67.8811 49.1672 67.2809C48.8133 66.6806 48.3194 66.1752 47.7274 65.8081Z" fill="#364044"/>
<path d="M82.2278 84.108L80.6094 85.0385C80.8303 84.9148 81.0796 84.8496 81.3328 84.8496C81.5861 84.8496 81.8349 84.9148 82.0559 85.0385L83.6398 84.108C83.4307 83.9687 83.1853 83.8945 82.934 83.8945C82.6828 83.8945 82.4369 83.9687 82.2278 84.108Z" fill="#2C3336"/>
<mask id="mask8_6_1950" style="mask-type:luminance" maskUnits="userSpaceOnUse" x="80" y="83" width="4" height="3">
<path d="M82.2317 84.1072L80.6133 85.0377C80.8342 84.914 81.0835 84.8488 81.3367 84.8488C81.59 84.8488 81.8388 84.914 82.0598 85.0377L83.6437 84.1072C83.3799 83.927 83.0678 83.8309 82.7484 83.8314C82.5806 83.7762 82.3995 83.7762 82.2317 83.8314" fill="white"/>
</mask>
<g mask="url(#mask8_6_1950)">
<path d="M82.0615 85.1764L83.6799 84.2459C83.4876 84.1325 83.2785 84.0512 83.0603 84.0048L81.4414 84.9352L82.0615 85.1764Z" fill="#2C3336"/>
<path d="M81.581 84.934L83.165 84.0037C82.9204 83.9141 82.6521 83.9141 82.4075 84.0037L80.7891 84.9685C80.9141 84.9145 81.0488 84.8865 81.1851 84.8865C81.3213 84.8865 81.456 84.9145 81.581 84.9685" fill="#2C3336"/>
<path d="M80.6484 85.0363L82.2669 84.0712L80.6484 85.0018" fill="#2C3336"/>
</g>
<path d="M83.4706 89.9311L85.0891 89.0006C85.2945 88.8626 85.4578 88.6707 85.5611 88.4457C85.6644 88.2207 85.7035 87.9714 85.6742 87.7255C85.6394 87.0294 85.4366 86.3523 85.0828 85.7521C84.7289 85.1518 84.2345 84.6463 83.6426 84.2792L82.0586 85.2098C82.6392 85.5893 83.1246 86.0975 83.4769 86.6952C83.8293 87.2929 84.039 87.964 84.0903 88.656C84.1049 88.9039 84.0555 89.1515 83.9469 89.3748C83.8384 89.5981 83.6746 89.7897 83.4706 89.9311Z" fill="#2C3336"/>
<mask id="mask9_6_1950" style="mask-type:luminance" maskUnits="userSpaceOnUse" x="82" y="84" width="4" height="6">
<path d="M82.0662 85.1754C82.6467 85.5549 83.1321 86.0634 83.4845 86.6611C83.8369 87.2588 84.0466 87.9296 84.0978 88.6217C84.1196 88.8705 84.0733 89.1205 83.9641 89.3451C83.855 89.5696 83.6872 89.7604 83.4782 89.8968L85.0966 88.9662C85.3021 88.8283 85.4654 88.6363 85.5687 88.4113C85.672 88.1863 85.7111 87.937 85.6818 87.6911C85.647 86.9951 85.4442 86.3179 85.0903 85.7177C84.7364 85.1174 84.2421 84.612 83.6501 84.2449L82.0662 85.1754Z" fill="white"/>
</mask>
<g mask="url(#mask9_6_1950)">
<path d="M83.4802 89.9301L85.0987 88.9995C85.3041 88.8616 85.4674 88.6697 85.5707 88.4447C85.674 88.2196 85.7131 87.9703 85.6838 87.7244C85.6685 87.1903 85.5518 86.6639 85.3395 86.1736L83.7211 87.1386C83.9552 87.6108 84.0844 88.1281 84.0999 88.655C84.1145 88.9029 84.0651 89.1504 83.9565 89.3737C83.8479 89.597 83.6842 89.7886 83.4802 89.9301Z" fill="#2C3336"/>
<path d="M83.7196 87.1396L85.338 86.1745C85.1616 85.7868 84.9298 85.4269 84.6494 85.1062L83.031 86.0368C83.3046 86.3749 83.5357 86.7453 83.7196 87.1396Z" fill="#2C3336"/>
<path d="M83.0305 86.037L84.6489 85.1064C84.3984 84.7485 84.0683 84.4536 83.6846 84.2449L82.0662 85.1754C82.4345 85.4052 82.7608 85.6966 83.0305 86.037Z" fill="#2C3336"/>
</g>
<path d="M82.059 85.1753C80.9226 84.555 80.0273 85.1754 80.0273 86.3471C80.0668 87.0381 80.268 87.7101 80.615 88.3088C80.962 88.9074 81.4448 89.416 82.0245 89.7934C83.161 90.4481 84.0562 89.7933 84.0907 88.656C84.0395 87.964 83.8297 87.2929 83.4773 86.6952C83.125 86.0975 82.6396 85.5893 82.059 85.2098" fill="#364044"/>
<path d="M64.8771 54.745L64.8426 57.7087L61.9844 56.0545L62.0188 53.0908L64.8771 54.745Z" fill="#DDDEE3"/>
<path d="M98.3153 74.0789L98.2809 77.0083L95.457 75.3541V72.4247L98.3153 74.0789Z" fill="#DDDEE3"/>
<path d="M101.277 72.3544V75.2837L98.2812 77.0069L98.3157 74.0776L101.277 72.3544Z" fill="#BDBDC6"/>
<path d="M95.4594 72.4247V75.3541L82.8555 82.6946V79.7308L95.4594 72.4247Z" fill="#BDBDC6"/>
<path d="M82.7458 83.1094V86.0732L46.4492 65.0855V62.1562L82.7458 83.1094Z" fill="#DDDEE3"/>
<path d="M85.7116 81.3847V86.4162L82.75 88.1394V83.1078L85.7116 81.3847Z" fill="#BDBDC6"/>
<path d="M101.277 72.3548L98.3152 74.0779L95.4569 72.4237L82.8874 79.7298L85.7113 81.384L82.7497 83.1071L46.4531 62.1539L49.4491 60.3963L52.273 62.0505L64.8769 54.7445L62.0186 53.0903L64.9802 51.3671L101.277 72.3548Z" fill="white"/>
<path d="M95.6976 63.2206V65.0127L77.4805 75.5927V73.8006L95.6976 63.2206Z" fill="#BDBDC6"/>
<path d="M77.4816 73.8041V75.5962L59.0234 64.9128V63.1552L77.4816 73.8041Z" fill="#DDDEE3"/>
<path d="M95.6988 63.2221L77.4816 73.8021L59.0234 63.1532L77.2406 52.5732L95.6988 63.2221Z" fill="white"/>
<path d="M85.537 51.747L88.8085 64.8772L77.582 71.3907L77.6509 56.3305L85.537 51.747Z" fill="#252E39"/>
<path d="M77.6518 56.3303L77.5829 71.3905L66.2188 64.8081L66.2532 49.748L77.6518 56.3303Z" fill="#1B2029"/>
<path d="M85.5386 51.7473L77.6525 56.3308L66.2539 49.7485L74.1744 45.165L85.5386 51.7473Z" fill="#2A3440"/>
<path d="M82.7493 83.1091V88.1406L80.0977 86.6242V81.5927L82.7493 83.1091Z" fill="#DDDEE3"/>
<path d="M49.1048 63.7751L49.0703 68.8411L46.4531 67.2903V62.2587L49.1048 63.7751Z" fill="#DDDEE3"/>
<path d="M82.75 83.1053L83.7831 82.5195L83.7487 87.551L82.75 88.1369V83.1053Z" fill="#BDBDC6"/>
<path d="M84.7102 81.9706L85.7089 81.3847V86.4162L84.6758 87.0021L84.7102 81.9706Z" fill="#BDBDC6"/>
<path d="M40.5625 36.9963L60.4326 25.4169L64.2207 27.5881L44.3161 39.1675L40.5625 36.9963Z" fill="white"/>
<path d="M44.3164 39.1672L64.1865 27.5878L75.8951 40.9248L55.9905 52.5042L44.3164 39.1672Z" fill="#DDDEE3"/>
<path d="M97.3125 76.3525L117.183 64.8076V66.5651L97.3125 78.1446V76.3525Z" fill="white"/>
<path d="M55.9922 52.5061L75.8967 40.9267L117.187 64.8092L97.3165 76.3542L55.9922 52.5061Z" fill="white"/>
<path d="M44.3154 39.1691L55.9895 52.5061L97.3139 76.3542V78.1463L55.6452 54.0569L43.971 40.7199L40.5273 38.7556L40.5618 36.998L44.3154 39.1691Z" fill="#DDDEE3"/>
<mask id="mask10_6_1950" style="mask-type:luminance" maskUnits="userSpaceOnUse" x="40" y="23" width="25" height="17">
<path d="M64.0136 23.6581H40.5273V39.0628H64.0136V23.6581Z" fill="white"/>
</mask>
<g mask="url(#mask10_6_1950)">
<path d="M44.1406 37.2715L64.0452 25.7265L64.0107 27.4841L44.1406 39.0635V37.2715Z" fill="#1A6D7E"/>
<path d="M40.5625 35.2031L60.4326 23.6581L64.0485 25.7259L44.1439 37.3053L40.5625 35.2031Z" fill="#0B90AA"/>
<path d="M44.1439 37.2728V39.0648L40.5625 36.9626V35.205L44.1439 37.2728Z" fill="#1A6D7E"/>
</g>
<mask id="mask11_6_1950" style="mask-type:luminance" maskUnits="userSpaceOnUse" x="57" y="40" width="41" height="25">
<path d="M97.5646 40.166H57.8242V64.979H97.5646V40.166Z" fill="white"/>
</mask>
<g mask="url(#mask11_6_1950)">
<path d="M77.7266 63.1865L97.5967 51.6415V53.3991L77.7266 64.9785V63.1865Z" fill="#1A6D7E"/>
<path d="M57.8555 51.7109L77.7256 40.166L97.5957 51.642L77.7256 63.1869L57.8555 51.7109Z" fill="#0B90AA"/>
<path d="M77.7256 63.1889V64.9809L57.8555 53.5049V51.7128L77.7256 63.1889Z" fill="#1A6D7E"/>
</g>
<mask id="mask12_6_1950" style="mask-type:luminance" maskUnits="userSpaceOnUse" x="78" y="52" width="40" height="25">
<path d="M117.151 52.4023H78.9609V76.3538H117.151V52.4023Z" fill="white"/>
</mask>
<g mask="url(#mask12_6_1950)">
<path d="M97.3125 74.596L117.183 63.0165V64.8086L97.3125 76.3535V74.596Z" fill="#1A6D7E"/>
<path d="M78.9922 63.9472L98.8623 52.4023L117.183 63.0167L97.3126 74.5962L78.9922 63.9472Z" fill="#0B90AA"/>
<path d="M97.3126 74.5981V76.3557L78.9922 65.7412V63.9492L97.3126 74.5981Z" fill="#1A6D7E"/>
</g>
<path d="M58.2281 27.3468C56.3798 27.4482 54.5791 27.9695 52.9621 28.8711C51.3451 29.7728 49.9545 31.0309 48.8958 32.5504C48.6367 32.403 48.3495 32.3117 48.053 32.282C47.7564 32.2524 47.4571 32.285 47.174 32.3782C46.864 32.3782 46.4509 32.585 46.4165 32.8952C46.382 33.2054 46.7261 33.4466 47.0016 33.5845C47.491 33.7745 47.999 33.9131 48.5171 33.998C48.346 35.4588 48.5843 36.9384 49.2056 38.2713C50.3148 39.9655 51.7997 41.3808 53.5447 42.4069C53.6838 42.4946 53.8013 42.6123 53.889 42.7514C53.9246 42.9451 53.9246 43.1436 53.889 43.3372C53.889 44.1988 53.889 45.3706 54.7499 45.1294C55.6109 44.8881 55.3011 44.0955 55.4044 43.234C57.0924 43.1074 58.7579 42.7716 60.3632 42.2344C61.576 41.8453 62.7335 41.301 63.8069 40.6148C65.0642 39.7389 66.0727 38.5514 66.7339 37.1685C67.1729 36.5962 67.404 35.891 67.3884 35.1696C67.2065 34.53 66.8623 33.9484 66.3896 33.481C65.595 32.2481 64.8929 30.958 64.289 29.6212C63.6772 28.274 62.5839 27.2045 61.2241 26.623L58.2281 27.3468Z" fill="#1A6D7E"/>
<path d="M47.1395 31.7233C47.4179 31.6265 47.7146 31.5947 48.0071 31.6305C48.2997 31.6664 48.5801 31.7689 48.8269 31.9301C49.8854 30.4024 51.2804 29.1387 52.9045 28.2365C54.5286 27.3342 56.3383 26.8174 58.1936 26.7262L61.1211 25.9681C61.0704 25.66 61.0704 25.3456 61.1211 25.0376C61.1596 24.8546 61.2293 24.6798 61.3275 24.5208C61.37 24.4456 61.4298 24.3814 61.5015 24.3335C61.5733 24.2857 61.6551 24.2554 61.7407 24.245H62.0505C62.2115 24.2849 62.3635 24.3551 62.4982 24.4518C62.6425 24.5849 62.7697 24.7354 62.877 24.8998V25.1756C62.8939 25.3129 62.8939 25.4518 62.877 25.5891C62.877 25.5891 62.877 25.5891 62.877 25.7959V26.0371C62.7335 26.256 62.5599 26.4532 62.3608 26.6229C63.1737 27.2608 63.8325 28.0735 64.289 29.0008C64.8794 30.3444 65.582 31.6355 66.3896 32.8606C66.8623 33.328 67.2065 33.9097 67.3884 34.5493C67.4096 35.2715 67.178 35.9785 66.7339 36.5481C66.0624 37.9243 65.0559 39.1094 63.8069 39.9944C62.7348 40.6916 61.5773 41.2475 60.3632 41.6485C58.7523 42.1582 57.0888 42.482 55.4044 42.6136C55.4044 43.4751 55.4042 44.3022 54.7499 44.509C54.0956 44.7158 53.8546 43.5784 53.889 42.7169C53.9246 42.5232 53.9246 42.3247 53.889 42.1311C53.8013 41.9919 53.6838 41.8743 53.5447 41.7865C51.7887 40.7627 50.2921 39.3475 49.1712 37.651C48.5735 36.3112 48.3477 34.8351 48.5171 33.3777C47.9956 33.3089 47.4857 33.1696 47.0016 32.9639C46.7261 32.9639 46.382 32.6195 46.4165 32.2748C46.4509 31.9302 46.8296 31.8267 47.174 31.7578" fill="#F6989A"/>
<path d="M77.8576 38.5825L67.5265 31.69C67.2665 31.5429 66.9798 31.4486 66.6833 31.4123C66.3868 31.376 66.0862 31.3984 65.7984 31.4784C65.5106 31.5584 65.2413 31.6945 65.006 31.8787C64.7707 32.0628 64.5741 32.2913 64.4271 32.5515C64.2802 32.8118 64.186 33.0985 64.1497 33.3952C64.1134 33.6919 64.1357 33.993 64.2157 34.281C64.2956 34.569 64.4315 34.8383 64.6155 35.0738C64.7995 35.3092 65.028 35.5062 65.2881 35.6533L74.5169 41.4774C74.8957 41.0983 76.6521 42.6147 77.2376 42.1322C77.823 41.6498 77.4786 40.4092 77.6508 40.2713C77.823 40.1335 77.6508 38.686 77.6508 38.686" fill="#F5C2A6"/>
<path d="M60.331 44.3023C62.0425 44.9037 63.5556 45.9649 64.7046 47.3695C65.3218 48.1292 65.8426 48.9626 66.2545 49.8507C66.9732 51.1589 67.7664 52.4245 68.6304 53.6415C68.7007 53.7573 68.8109 53.8432 68.9403 53.8828C69.0288 53.9174 69.1275 53.9174 69.216 53.8828C70.9961 53.005 72.384 51.4932 73.1074 49.6439C73.7617 48.4033 75.7246 47.8519 77.3776 47.2315C77.953 46.9939 78.5061 46.7056 79.0305 46.37L76.9988 43.7165C74.425 41.0912 72.1179 38.2165 70.1114 35.1351C69.5949 34.2047 68.2863 31.689 66.6677 31.3788C65.0239 31.4458 63.4142 31.869 61.9499 32.6194C59.0572 34.377 55.7165 35.411 54.7523 38.4781C54.0635 40.6493 57.5761 43.1994 59.4701 43.9575H59.6769L60.4344 44.2678" fill="white"/>
<path d="M60.9167 35.0661C60.6126 35.199 60.2842 35.2674 59.9524 35.2674C59.6206 35.2674 59.2922 35.199 58.9881 35.0661C58.1563 33.9754 57.4084 32.8234 56.75 31.6199L61.2955 30.8271C61.2955 30.8271 62.2941 32.3436 62.5352 32.895C62.7762 33.4464 61.9843 34.8938 60.9167 35.2384" fill="#F5C2A6"/>
<path d="M55.4395 32.2754C55.0607 32.0341 54.3031 31.7239 54.1309 31.3103C53.9587 30.8968 54.5097 30.9656 54.5441 30.8278C54.599 30.6771 54.71 30.5537 54.8539 30.4833C55.1342 30.2856 55.4781 30.1995 55.8183 30.242C56.1601 30.2924 56.4817 30.4354 56.7481 30.6555C56.8594 30.7593 56.9421 30.8898 56.989 31.0346C57.006 31.1488 57.006 31.2651 56.989 31.3793C56.9719 31.5972 56.9719 31.8162 56.989 32.0341C57.04 32.2377 57.04 32.4508 56.989 32.6544C56.989 32.9646 56.2313 32.6544 56.0247 32.6544L55.4051 32.3442" fill="#401F2C"/>
<path d="M62.8786 32.2429C62.8786 32.8288 62.0868 33.1735 61.4669 33.3802C60.5061 33.621 59.5008 33.621 58.5399 33.3802C57.2724 32.9623 56.1014 32.2943 55.0962 31.4158C55.0962 31.4158 55.0962 31.0367 55.0962 30.8988C53.7876 29.0034 55.5779 27.4525 56.4389 25.6949C57.2998 23.9374 59.4005 23.1792 60.8124 25.6949C62.2227 27.6406 62.993 29.9772 63.0164 32.3807" fill="#FDDECE"/>
<path d="M60.9156 25.9327C60.9156 25.9327 60.2614 24.3129 58.4707 25.6569C57.472 26.3806 56.5075 26.9665 56.4042 27.5868C56.3009 28.2071 56.6454 28.2416 57.0587 28.9309C57.9885 30.4128 57.5754 31.5501 56.7489 31.9981C56.4452 32.1735 56.1007 32.2659 55.7501 32.2659C55.3995 32.2659 55.0549 32.1735 54.7513 31.9981C54.1245 31.5559 53.5574 31.0346 53.0639 30.4472C50.6877 27.7247 53.0639 25.9327 53.0639 25.9327C53.3415 25.1121 53.8562 24.3926 54.5428 23.865C55.2293 23.3374 56.057 23.0255 56.9208 22.9689C57.3965 22.8697 57.8881 22.8723 58.3627 22.9767C58.8373 23.0811 59.2843 23.285 59.6747 23.5747C60.065 23.8644 60.3896 24.2335 60.6272 24.6578C60.8648 25.082 61.0102 25.5518 61.0535 26.0361" fill="#2B140E"/>
<path d="M56.4036 27.6237C56.4036 28.1406 56.6449 28.2785 57.0582 28.9333C57.988 30.4152 57.5748 31.5525 56.7484 32.0005C56.4447 32.1759 56.1002 32.2683 55.7495 32.2683C55.3989 32.2683 55.0544 32.1759 54.7507 32.0005C54.124 31.5583 53.5569 31.037 53.0634 30.4496C52.6702 30.0327 52.3655 29.5404 52.168 29.0023C53.511 28.313 55.095 27.1758 56.4036 27.7272" fill="#401F2C"/>
<path d="M52.9241 25.8312C53.2017 25.0107 53.7164 24.2909 54.403 23.7633C55.0895 23.2357 55.9172 22.9238 56.781 22.8673C57.2567 22.7681 57.7478 22.7709 58.2225 22.8753C58.6971 22.9797 59.1445 23.1833 59.5349 23.4731C59.9252 23.7628 60.2498 24.1319 60.4874 24.5561C60.725 24.9803 60.87 25.4501 60.9133 25.9345C60.9133 25.9345 60.2591 24.3147 58.4684 25.6587C57.4697 26.3824 56.5051 26.9683 56.4018 27.5886C55.0932 27.0372 53.5092 28.1747 52.1661 28.8639C51.968 28.3359 51.9346 27.7602 52.0699 27.2127C52.2051 26.6652 52.503 26.1715 52.9241 25.7967" fill="#5A263B"/>
<path d="M57.475 32.1012C57.2684 32.4803 56.6484 32.5492 56.0285 32.1012C55.4087 31.6532 55.0644 31.2397 55.271 30.8951C55.4776 30.5505 56.0632 30.4471 56.6831 30.8951C57.3029 31.3431 57.6472 31.7221 57.475 32.1012Z" fill="#FDDECE"/>
<path d="M56.991 31.8279C56.991 32.0347 56.6123 32.0692 56.3024 31.8279C55.9925 31.5867 55.8548 31.4487 55.9236 31.2419C55.9925 31.0352 56.3367 31.0352 56.6122 31.2419C56.8877 31.4487 57.0943 31.6556 56.991 31.8279Z" fill="#F5C2A6"/>
<path d="M113.327 62.3615C113.327 63.1886 112.57 63.7744 111.916 64.2569C107.901 67.3984 103.64 70.2104 99.1738 72.6658C98.8643 72.8913 98.5134 73.0532 98.1409 73.142C97.7685 73.2307 97.3821 73.2446 97.0043 73.1828C96.5179 73.0338 96.0788 72.7605 95.7301 72.39L93.2507 70.3223C92.6267 69.7188 91.9193 69.2081 91.1501 68.806C90.3084 68.4449 89.446 68.1341 88.5674 67.8754C87.3672 67.4262 86.2138 66.8606 85.1237 66.1868C80.2681 63.4987 75.5156 60.604 70.7978 57.6746L65.219 54.2284C64.3236 53.6425 62.0854 52.8154 62.7741 51.3679C63.0841 50.7132 63.9105 50.5408 64.496 50.2651L65.1845 49.9894L66.7685 49.2313C69.7979 47.7078 72.6313 45.8215 75.2058 43.6139C75.8607 43.0175 76.5632 42.4759 77.3064 41.9942C77.9357 41.5563 78.6758 41.3054 79.4415 41.2704C81.4388 41.2704 82.8851 42.7524 84.5036 44.0964C90.7711 49.6793 99.1736 52.1606 106.337 56.5373C108.265 57.7091 110.125 59.0186 111.95 60.3626C112.673 60.8451 113.431 61.4654 113.431 62.327" fill="#7ED1E1"/>
<mask id="mask13_6_1950" style="mask-type:luminance" maskUnits="userSpaceOnUse" x="84" y="45" width="2" height="3">
<path d="M85.0236 45.1288C85.0461 45.2657 85.0461 45.4054 85.0236 45.5424C85.0043 45.8802 84.911 46.2096 84.7504 46.5074C84.5897 46.8052 84.3654 47.064 84.0938 47.2655C84.3542 47.0527 84.578 46.7963 84.7504 46.5074C84.9477 46.1856 85.0525 45.8166 85.0581 45.4391C85.0806 45.3021 85.0806 45.1623 85.0581 45.0253" fill="white"/>
</mask>
<g mask="url(#mask13_6_1950)">
<path d="M85.2995 44.957H84.3008V47.197H85.2995V44.957Z" fill="url(#paint0_linear_6_1950)"/>
</g>
<path d="M84.3281 44.4072L84.9133 44.7519C85.0151 44.8187 85.0976 44.9111 85.1521 45.0201C85.2065 45.1291 85.2313 45.2506 85.2235 45.3722C85.0169 45.3722 84.7757 44.9241 84.6379 44.8552C84.5002 44.7863 84.4659 44.4761 84.3281 44.4072Z" fill="#CCD4DD"/>
<path d="M83.8504 47.3704L83.5061 46.9911C83.2911 47.0437 83.0665 47.0437 82.8516 46.9911L83.4371 47.3359C83.5697 47.3896 83.7178 47.3896 83.8504 47.3359" fill="#CCD4DD"/>
<mask id="mask14_6_1950" style="mask-type:luminance" maskUnits="userSpaceOnUse" x="83" y="47" width="2" height="1">
<path d="M83.1602 47.0937C83.1997 47.2232 83.2858 47.3335 83.4015 47.4037C83.5229 47.4701 83.6591 47.5049 83.7974 47.5049C83.9358 47.5049 84.072 47.4701 84.1934 47.4037C83.7458 47.6794 83.3668 47.4038 83.2291 47.2315" fill="white"/>
</mask>
<g mask="url(#mask14_6_1950)">
<path d="M84.331 47.0273H83.1602V47.5098H84.331V47.0273Z" fill="url(#paint1_linear_6_1950)"/>
</g>
<path d="M91.2186 50.1261C90.6089 49.6426 89.9641 49.2048 89.2899 48.8165C89.9442 49.0577 91.5973 50.0916 91.5973 49.6781C91.5973 49.2645 91.5971 49.4712 91.356 49.3678L89.5652 47.9549C89.2139 47.6632 88.8332 47.409 88.429 47.1967L87.2582 46.5076C86.845 46.2663 86.0873 45.8527 85.4674 45.577L77.9945 38.6845C76.8925 39.5805 75.7561 40.4766 74.5508 41.476L75.4117 41.9585L83.4703 47.1279L84.0899 47.9204L84.3312 48.6787C84.5378 49.1957 84.9855 49.6436 85.1921 50.1261C85.3987 50.6086 85.1921 50.7807 85.5709 50.8497H85.7773C86.7071 50.6429 86.0872 49.9538 85.7773 49.5403C85.4673 49.1267 85.7773 49.2301 85.7773 49.0578L87.3616 50.1606C87.6716 50.3674 89.1179 51.4702 89.5312 51.2634C89.9444 51.0566 89.5312 50.9876 89.5312 50.8842C89.0114 50.3991 88.4587 49.9502 87.8779 49.5403L89.4278 50.6086C89.6688 50.6086 90.6674 51.3667 91.0117 51.1599C91.3561 50.9532 91.0117 50.9876 91.0117 50.9187C90.5767 50.5279 90.1036 50.1816 89.5997 49.8848L90.633 50.4706C90.853 50.6275 91.1214 50.7008 91.3905 50.6774C91.7004 50.6774 91.3905 50.3328 91.3905 50.2294" fill="#F5C2A6"/>
<path d="M83.0933 46.4401L82.5082 46.1298C82.4921 46.1978 82.4921 46.2686 82.5082 46.3366L83.0933 46.6813C83.0792 46.6016 83.0792 46.5199 83.0933 46.4401Z" fill="#CCD4DD"/>
<path d="M83.0582 46.7488L82.4727 46.4042C82.4727 46.4042 82.4727 46.4043 82.4727 46.68L83.0582 47.0245C83.0582 47.0245 83.0582 47.0245 83.0582 46.7488Z" fill="#CCD4DD"/>
<path d="M83.1235 47.0261L82.5039 46.6816C82.5574 46.8417 82.6675 46.9765 82.8137 47.0606L83.3993 47.4052C83.3268 47.3682 83.2639 47.3145 83.216 47.2487C83.1681 47.1828 83.1364 47.1066 83.1235 47.0261Z" fill="#CCD4DD"/>
<path d="M85.0216 44.6818L84.436 44.3373C84.2914 44.2846 84.1329 44.2846 83.9883 44.3373L84.5739 44.6818C84.7184 44.6292 84.877 44.6292 85.0216 44.6818Z" fill="#CCD4DD"/>
<path d="M84.5413 44.614L83.9557 44.2695H83.7148L84.3004 44.614H84.5413Z" fill="#CCD4DD"/>
<path d="M84.2965 44.6824L83.7109 44.3378L84.2965 44.6479" fill="#CCD4DD"/>
<path d="M84.0562 44.8197L83.4711 44.5097C83.4711 44.5097 83.4708 44.5097 83.1953 44.7165L83.7809 45.061L84.0562 44.8197Z" fill="#F1F5FB"/>
<mask id="mask15_6_1950" style="mask-type:luminance" maskUnits="userSpaceOnUse" x="83" y="44" width="3" height="2">
<path d="M84.2021 44.7526C83.8719 44.9562 83.5993 45.2409 83.4102 45.5797V45.9242C83.6001 45.461 83.9239 45.0651 84.34 44.7871C84.4125 44.7249 84.4981 44.6802 84.5906 44.6567C84.6831 44.6332 84.7797 44.6314 84.8731 44.6514C84.9664 44.6714 85.0539 44.7128 85.1286 44.7722C85.2034 44.8316 85.2633 44.9075 85.3039 44.9939C85.2504 44.8619 85.1533 44.7523 85.0286 44.6836C84.94 44.649 84.8418 44.649 84.7532 44.6836C84.5953 44.6412 84.429 44.6412 84.2711 44.6836" fill="white"/>
</mask>
<g mask="url(#mask15_6_1950)">
<path d="M85.2317 44.581H83.2344V45.9595H85.2317V44.581Z" fill="url(#paint2_linear_6_1950)"/>
</g>
<path d="M82.7845 45.1312L83.1288 44.7177L83.7143 45.0623L83.3701 45.4758C83.3571 45.5788 83.3571 45.6831 83.3701 45.786L82.75 45.4758V45.1312" fill="#F1F5FB"/>
<path d="M84.0914 45.1305C83.9911 45.2135 83.899 45.3059 83.816 45.4063C83.6625 45.5697 83.5348 45.7556 83.4373 45.9576L83.2305 44.8203H84.1603" fill="#E4D6CF"/>
<mask id="mask16_6_1950" style="mask-type:luminance" maskUnits="userSpaceOnUse" x="82" y="44" width="2" height="3">
<path d="M82.9939 45.1309L82.5117 45.6822L83.3726 46.1302L83.1658 44.9931" fill="white"/>
</mask>
<g mask="url(#mask16_6_1950)">
<path d="M83.3726 44.9228H82.5117V46.0601H83.3726V44.9228Z" fill="url(#paint3_linear_6_1950)"/>
</g>
<path d="M82.5039 45.509C82.6014 45.307 82.7291 45.1211 82.8827 44.9577L83.1925 44.6474L84.0189 45.0954L83.7091 45.3712L83.3304 45.9225L82.5039 45.509Z" fill="white"/>
<mask id="mask17_6_1950" style="mask-type:luminance" maskUnits="userSpaceOnUse" x="82" y="44" width="3" height="2">
<path d="M83.2674 44.6113L82.992 44.8525C82.8465 45.0223 82.7195 45.2073 82.6133 45.404L83.4053 45.7831C83.5147 45.5796 83.654 45.3939 83.8185 45.2318L84.0594 44.9905L83.3019 44.6113H83.2674Z" fill="white"/>
</mask>
<g mask="url(#mask17_6_1950)">
<path d="M84.0238 44.5761H82.543V45.8857H84.0238V44.5761Z" fill="url(#paint4_linear_6_1950)"/>
</g>
<path d="M83.3317 45.8893C83.438 45.6925 83.5649 45.5078 83.7105 45.338L83.9858 45.0967L83.2283 44.7177L82.953 44.9935C82.8077 45.151 82.6807 45.3243 82.5742 45.5103L83.3317 45.8893Z" fill="#FBF8F8"/>
<path d="M82.6133 45.6132L83.2329 45.9233C83.218 45.9914 83.218 46.0619 83.2329 46.13C83.2136 46.2441 83.2136 46.3607 83.2329 46.4748L82.6478 46.13C82.6285 46.016 82.6285 45.8996 82.6478 45.7855C82.6478 45.7855 82.6478 45.7855 82.6478 45.6132" fill="#F1F5FB"/>
<path d="M83.1595 44.8197H83.3664C83.3916 44.8548 83.405 44.8971 83.405 44.9404C83.405 44.9837 83.3916 45.0258 83.3664 45.0609C83.3664 45.0609 83.0909 45.0609 82.9531 45.0609C82.9531 45.0609 82.9531 44.7508 82.9531 44.6474" fill="#EF4646"/>
<path d="M83.164 45.7155L83.3361 45.5432L83.3017 45.6121H83.3361L83.3706 45.6466V45.6121H83.3361L83.3706 45.5088H83.3361L83.1984 45.6466L83.3017 45.4054V45.3709L83.164 45.5432L83.1984 45.4054H83.164L83.0951 45.4743V45.4054H83.0607L82.9918 45.4743L83.0262 45.2675H82.9918L82.854 45.4398L82.8885 45.3364L82.8196 45.302H82.7852L82.8196 45.3364L82.854 45.3709L82.8196 45.5088H82.854L82.9918 45.3364L82.9573 45.5088H82.9918L83.0607 45.4398V45.5088L83.164 45.4398L83.1295 45.5777V45.6121L83.164 45.5777L83.2673 45.4743L83.164 45.7155Z" fill="#EF4739"/>
<path d="M63.9439 51.6788L73.5864 57.1582C74.2063 57.5717 74.7225 58.0887 75.3768 58.4678C76.1645 58.8239 77.0289 58.9779 77.891 58.9158H78.1663C78.1663 58.9158 78.1663 58.9158 78.1663 58.6746C78.1663 58.4333 78.1665 58.4678 77.891 58.4333C77.6155 58.3988 78.6486 58.1921 78.7175 58.0198C78.7863 57.8474 78.7172 57.8131 78.4417 57.7097C77.9495 57.6565 77.4533 57.6565 76.9611 57.7097C76.7039 57.6728 76.4627 57.5619 76.2671 57.3906C76.0715 57.2193 75.9296 56.995 75.8589 56.7447C76.1158 56.658 76.394 56.658 76.6509 56.7447C76.833 56.7792 77.02 56.7792 77.202 56.7447C77.2977 56.7623 77.3967 56.7484 77.4837 56.7049C77.5706 56.6614 77.6409 56.5906 77.6842 56.5034C77.6842 56.1932 75.6526 55.2628 74.4473 55.056C74.2765 55.0863 74.1015 55.0863 73.9307 55.056C70.995 53.0755 68.2407 50.8381 65.7002 48.3703C63.1627 45.2366 60.8606 41.9191 58.8128 38.4451C58.4017 37.8568 57.7955 37.4335 57.1019 37.2505C56.4083 37.0675 55.6723 37.1367 55.0248 37.4457C54.722 37.5654 54.459 37.7685 54.2669 38.0315C53.6126 38.9965 54.267 41.0642 55.2657 42.2704C57.648 45.3823 60.2244 48.3405 62.9795 51.1273C63.1949 51.3523 63.4382 51.5491 63.703 51.7131" fill="#FDDECE"/>
<path d="M56.0586 50.7137L56.644 50.3691L56.6096 54.608L56.0586 54.9526V50.7137Z" fill="#BDBDC6"/>
<path d="M56.7837 49.1606L57.3344 48.8505C57.084 49.0101 56.8834 49.2368 56.7555 49.5049C56.6277 49.773 56.5778 50.0717 56.6113 50.3669L56.0602 50.7114C56.028 50.4115 56.0786 50.1085 56.2061 49.8351C56.3336 49.5618 56.5333 49.3285 56.7837 49.1606Z" fill="#BDBDC6"/>
<mask id="mask18_6_1950" style="mask-type:luminance" maskUnits="userSpaceOnUse" x="56" y="48" width="2" height="3">
<path d="M56.7481 49.1636C56.5093 49.3406 56.3202 49.5765 56.1995 49.8482C56.0788 50.12 56.0304 50.4184 56.0591 50.7144L56.6102 50.3699C56.5766 50.0747 56.6265 49.776 56.7544 49.5079C56.8822 49.2398 57.0828 49.0131 57.3332 48.8535L56.7481 49.1636Z" fill="white"/>
</mask>
<g mask="url(#mask18_6_1950)">
<path d="M56.7823 49.1636L57.333 48.8535C57.1083 48.9952 56.9262 49.1947 56.805 49.4311C56.6838 49.6676 56.6283 49.9321 56.6444 50.1974L56.0588 50.5077C56.0597 50.2414 56.1261 49.9794 56.2522 49.7449C56.3783 49.5105 56.5607 49.3109 56.7823 49.1636Z" fill="#BDBDC6"/>
<path d="M56.0588 50.5085L56.6444 50.1982L56.0933 50.543V50.3362" fill="#BDBDC6"/>
</g>
<path d="M56.4023 48.5768L56.9535 48.2323C57.2936 48.0912 57.6632 48.0361 58.0296 48.0722C58.396 48.1083 58.7479 48.2343 59.0541 48.439L58.4689 48.7836C58.1765 48.5629 57.829 48.4269 57.4646 48.3905C57.1002 48.354 56.7326 48.4184 56.4023 48.5768Z" fill="#BDBDC6"/>
<mask id="mask19_6_1950" style="mask-type:luminance" maskUnits="userSpaceOnUse" x="56" y="48" width="4" height="1">
<path d="M56.9574 48.2333L56.4062 48.5434C56.7365 48.385 57.1041 48.3205 57.4685 48.357C57.8329 48.3935 58.1804 48.5294 58.4728 48.7501L59.058 48.4056C58.6557 48.1826 58.2084 48.0531 57.7493 48.0266C57.4714 48.0215 57.1974 48.093 56.9574 48.2333Z" fill="white"/>
</mask>
<g mask="url(#mask19_6_1950)">
<path d="M56.4062 48.5782L56.9574 48.2336C57.1645 48.1464 57.3872 48.1013 57.6119 48.1013C57.8366 48.1013 58.0588 48.1464 58.266 48.2336L57.7149 48.5437C57.5082 48.4545 57.2858 48.4086 57.0608 48.4086C56.8358 48.4086 56.6129 48.4545 56.4062 48.5437" fill="white"/>
<path d="M57.7148 48.5776L58.266 48.2673L59.0579 48.5776L58.4728 48.9221C58.2414 48.7654 57.985 48.6489 57.7148 48.5776Z" fill="white"/>
</g>
<path d="M56.0586 54.952L56.6096 54.6074L68.6281 61.5688L68.0771 61.9134L56.0586 54.952Z" fill="white"/>
<path d="M68.5938 57.95L69.1792 57.6054L69.1447 62.4646L68.5938 62.7748V57.95Z" fill="#DDDEE3"/>
<path d="M58.5039 48.7479L59.0549 48.4033L66.2522 52.5732L65.7012 52.9178L58.5039 48.7479Z" fill="white"/>
<path d="M65.7031 52.9179L66.2542 52.5732C67.1025 53.1283 67.807 53.8771 68.3099 54.7578C68.8127 55.6385 69.0996 56.6261 69.1468 57.6393L68.5957 57.9493C68.5404 56.9427 68.2498 55.9632 67.7474 55.0893C67.245 54.2154 66.545 53.4717 65.7031 52.9179Z" fill="#BDBDC6"/>
<mask id="mask20_6_1950" style="mask-type:luminance" maskUnits="userSpaceOnUse" x="65" y="52" width="5" height="6">
<path d="M65.7031 52.917C66.545 53.4707 67.245 54.2145 67.7474 55.0883C68.2498 55.9622 68.5404 56.9417 68.5957 57.9484L69.1468 57.6383C69.0996 56.6251 68.8127 55.6375 68.3099 54.7568C67.807 53.8761 67.1025 53.1274 66.2542 52.5722L65.7031 52.917Z" fill="white"/>
</mask>
<g mask="url(#mask20_6_1950)">
<path d="M65.7031 52.917L66.2542 52.5722L66.4951 52.7447L65.9095 53.0547H65.7031" fill="white"/>
<path d="M65.9062 53.0544L66.4918 52.7099C67.7985 53.6732 68.7055 55.0837 69.0401 56.673L68.489 56.9832C68.1409 55.4001 67.2212 54.0011 65.9062 53.0544Z" fill="#DDDEE3"/>
<path d="M68.4922 56.983L69.0433 56.6728C69.0772 56.9935 69.0772 57.3171 69.0433 57.6378L68.4922 57.9479C68.5242 57.627 68.5242 57.3039 68.4922 56.983Z" fill="#DDDEE3"/>
</g>
<path d="M65.7021 52.9191C66.544 53.4729 67.244 54.2166 67.7464 55.0905C68.2488 55.9644 68.5394 56.9439 68.5947 57.9505V62.7754L55.543 55.2626V50.4034C55.543 48.5769 56.8863 47.8186 58.4704 48.7491L65.7021 52.9191ZM68.0781 61.9138V57.6405C68.032 56.8134 67.7933 56.0087 67.3807 55.2906C66.9681 54.5724 66.3932 53.9609 65.7021 53.505L58.4704 49.3349C57.1618 48.5767 56.0596 49.335 56.0596 50.7135V54.9523L68.0781 61.9138Z" fill="#BDBDC6"/>
<path d="M81.4023 65.3248L81.9878 65.0146L81.9533 69.2535L81.4023 69.5636V65.3248Z" fill="#BDBDC6"/>
<path d="M82.0919 63.8083L82.6771 63.4638C82.4267 63.6318 82.2274 63.865 82.0999 64.1384C81.9724 64.4117 81.9218 64.7147 81.954 65.0147L81.4029 65.3247C81.3735 65.0336 81.4219 64.7398 81.5429 64.4735C81.6639 64.2071 81.8534 63.9776 82.0919 63.8083Z" fill="#BDBDC6"/>
<mask id="mask21_6_1950" style="mask-type:luminance" maskUnits="userSpaceOnUse" x="81" y="63" width="2" height="3">
<path d="M82.0919 63.8083C81.8534 63.9776 81.6639 64.2071 81.5429 64.4735C81.4219 64.7398 81.3735 65.0336 81.4029 65.3247L81.954 65.0147C81.9256 64.7151 81.9778 64.4133 82.105 64.1407C82.2321 63.868 82.4294 63.6344 82.6771 63.4638L82.0919 63.8083Z" fill="white"/>
</mask>
<g mask="url(#mask21_6_1950)">
<path d="M82.0952 63.8083L82.6804 63.4638C82.4582 63.6081 82.2779 63.8081 82.157 64.0439C82.0362 64.2798 81.9793 64.5432 81.9918 64.8079L81.4063 65.1524C81.4062 64.8898 81.4689 64.6308 81.5887 64.3971C81.7085 64.1634 81.8821 63.9616 82.0952 63.8083Z" fill="#BDBDC6"/>
<path d="M81.5781 65.1521L82.1637 64.8076C82.1476 64.8755 82.1476 64.9463 82.1637 65.0143L81.6126 65.3244V65.1521" fill="#BDBDC6"/>
</g>
<path d="M81.75 63.1882L82.3007 62.8436C82.6371 62.6859 83.0097 62.6219 83.3794 62.6583C83.749 62.6947 84.1021 62.8301 84.4013 63.0504L83.8161 63.3604C83.502 63.1789 83.1456 63.0834 82.7829 63.0834C82.4202 63.0834 82.0641 63.1789 81.75 63.3604" fill="#BDBDC6"/>
<mask id="mask22_6_1950" style="mask-type:luminance" maskUnits="userSpaceOnUse" x="81" y="62" width="4" height="2">
<path d="M82.3085 62.8431L81.7578 63.1876C82.0719 63.0062 82.428 62.9106 82.7907 62.9106C83.1534 62.9106 83.5098 63.0062 83.8239 63.1876L84.3751 62.8776C83.9955 62.627 83.5548 62.4841 83.1005 62.4641C82.8225 62.459 82.5486 62.5305 82.3085 62.6708" fill="white"/>
</mask>
<g mask="url(#mask22_6_1950)">
<path d="M81.7578 63.1885L82.3085 62.8439C82.5156 62.7567 82.7383 62.7119 82.963 62.7119C83.1877 62.7119 83.41 62.7567 83.6171 62.8439L83.0664 63.154C82.8622 63.0561 82.6384 63.0055 82.4119 63.0055C82.1855 63.0055 81.9621 63.0561 81.7578 63.154" fill="white"/>
<path d="M83.0664 63.0517L83.6171 62.707C83.896 62.7839 84.1626 62.9 84.4091 63.0517L83.8239 63.3618C83.5846 63.2286 83.3304 63.1246 83.0664 63.0517Z" fill="white"/>
</g>
<path d="M81.4023 69.565L81.9533 69.2548L93.9718 76.2163L93.4208 76.5264L81.4023 69.565Z" fill="white"/>
<path d="M93.9414 72.5621L94.5268 72.2519L94.4924 77.0766L93.9414 77.4213V72.5621Z" fill="#DDDEE3"/>
<path d="M83.8516 63.3599L84.4026 63.0497L91.5999 67.2197L91.0489 67.5299L83.8516 63.3599Z" fill="white"/>
<path d="M91.0469 67.5309L91.598 67.2206C92.4437 67.7704 93.1469 68.5133 93.6498 69.388C94.1527 70.2627 94.4407 71.2443 94.4906 72.2522L93.9395 72.5968C93.8841 71.5854 93.5937 70.601 93.0916 69.7216C92.5894 68.8422 91.8894 68.0921 91.0469 67.5309Z" fill="#BDBDC6"/>
<mask id="mask23_6_1950" style="mask-type:luminance" maskUnits="userSpaceOnUse" x="91" y="67" width="4" height="6">
<path d="M91.0586 67.5289C91.9012 68.0901 92.6011 68.8402 93.1033 69.7197C93.6054 70.5991 93.8958 71.5835 93.9512 72.5948L94.5023 72.2503C94.4524 71.2424 94.1644 70.2608 93.6615 69.3861C93.1587 68.5113 92.4554 67.7684 91.6097 67.2187L91.0586 67.5289Z" fill="white"/>
</mask>
<g mask="url(#mask23_6_1950)">
<path d="M91.0586 67.5289L91.6097 67.2187H91.8506L91.2654 67.5289H91.0586Z" fill="white"/>
<path d="M91.2656 67.6655L91.8508 67.3554C93.1552 68.3057 94.0627 69.705 94.3991 71.2842L93.8484 71.6287C93.499 70.0368 92.5805 68.6273 91.2656 67.6655Z" fill="#DDDEE3"/>
<path d="M93.8477 71.6306L94.3983 71.2861C94.4303 71.6069 94.4303 71.9301 94.3983 72.2509L93.8477 72.5955C93.8816 72.2747 93.8816 71.9514 93.8477 71.6306Z" fill="#DDDEE3"/>
</g>
<path d="M91.0455 67.5306C91.888 68.0918 92.588 68.8419 93.0901 69.7213C93.5923 70.6007 93.8827 71.5851 93.938 72.5965V77.4213L80.8867 69.874V65.0494C80.8867 63.1884 82.2297 62.4301 83.8138 63.3606L91.0455 67.5306ZM93.4214 76.5253V72.2864C93.3726 71.4553 93.1332 70.6465 92.7211 69.9232C92.3089 69.2 91.7354 68.5817 91.0455 68.1164L83.8138 63.9809C82.5052 63.1882 81.4029 63.8086 81.4029 65.3594V69.5983L93.4214 76.5253Z" fill="#BDBDC6"/>
<mask id="mask24_6_1950" style="mask-type:luminance" maskUnits="userSpaceOnUse" x="113" y="58" width="4" height="2">
<path d="M113.887 58.9136L114.472 59.2239C114.742 59.0237 115.061 58.9015 115.395 58.8711C115.729 58.8407 116.065 58.9031 116.366 59.0514L115.815 58.7068C115.577 58.651 115.33 58.651 115.092 58.7068C114.663 58.7185 114.245 58.8497 113.887 59.0859" fill="white"/>
</mask>
<g mask="url(#mask24_6_1950)">
<path d="M114.472 59.1887L113.887 58.8785C114.352 58.5664 114.918 58.4432 115.471 58.5339L116.022 58.8785C115.756 58.8177 115.481 58.8141 115.214 58.8675C114.947 58.921 114.694 59.0304 114.472 59.1887Z" fill="white"/>
<path d="M116.02 58.9128L115.469 58.5683H115.813L116.364 58.9128H116.02Z" fill="#939496"/>
</g>
<path d="M97.8706 78.4547L97.2852 78.1445V71.5966L97.8361 71.9068L97.8706 78.4547Z" fill="#DDDEE3"/>
<path d="M100.516 67.2191L99.9648 66.9089L113.912 58.8447L114.463 59.1893L100.516 67.2191Z" fill="white"/>
<mask id="mask25_6_1950" style="mask-type:luminance" maskUnits="userSpaceOnUse" x="97" y="66" width="4" height="6">
<path d="M97.2461 71.5979L97.8313 71.9082C97.8866 70.9771 98.1582 70.0716 98.6245 69.264C99.0908 68.4563 99.739 67.7686 100.517 67.2556L99.9663 66.9111C99.1731 67.4195 98.5125 68.11 98.0393 68.9251C97.5662 69.7402 97.2945 70.6565 97.2461 71.5979Z" fill="white"/>
</mask>
<g mask="url(#mask25_6_1950)">
<path d="M97.8313 71.9087L97.2461 71.5985C97.272 70.7124 97.5206 69.8472 97.9691 69.0828L98.5202 69.3928C98.1058 70.1694 97.8702 71.0292 97.8313 71.9087Z" fill="#DDDEE3"/>
<path d="M98.5199 69.2554L97.9688 68.9108C98.4273 68.0296 99.1178 67.2907 99.9659 66.7742L100.517 67.1187C99.6775 67.6456 98.9893 68.3819 98.5199 69.2554Z" fill="white"/>
</g>
<path d="M114.465 59.1912C115.945 58.3296 117.15 59.0189 117.15 60.742V67.2898L97.7969 78.4556V71.9078C97.844 70.9748 98.1122 70.0662 98.5792 69.2573C99.0462 68.4484 99.6989 67.7622 100.483 67.2553L114.465 59.1912Z" fill="#BDBDC6"/>
<path d="M26.476 76.7675C26.476 79.3178 27.9222 83.1777 28.0599 85.7279C27.4675 87.9872 27.4675 90.3612 28.0599 92.6204C28.0599 93.4131 28.4389 94.2055 28.6455 94.9981C28.8521 95.7908 28.8865 95.8254 28.9898 96.2045C29.0061 96.5029 29.0061 96.8021 28.9898 97.1005C29.0172 97.2017 29.0746 97.292 29.1546 97.3597C29.2345 97.4274 29.3333 97.4692 29.4375 97.4796C29.6411 97.5292 29.8539 97.5292 30.0575 97.4796C30.826 97.2262 31.5739 96.9151 32.2956 96.549C32.4525 96.4898 32.5943 96.3956 32.7093 96.2735C32.7485 96.2053 32.7689 96.1281 32.7689 96.0494C32.7689 95.9708 32.7485 95.8935 32.7093 95.8254C32.7093 95.8254 32.7093 95.5151 32.7093 95.4807C32.7093 95.4462 30.6772 95.8599 30.6772 95.2051C30.9527 93.3786 30.9529 90.656 31.3662 88.8984C31.3662 88.3815 33.0877 82.0058 33.1565 81.0064C33.2254 80.007 33.3979 78.4907 33.4668 77.2501V76.9743C33.4668 76.7331 33.4668 76.492 33.4668 76.2507C32.8125 74.183 26.0285 73.7349 26.2351 77.0088" fill="#E9B289"/>
<g style="mix-blend-mode:multiply" opacity="0.2">
<mask id="mask26_6_1950" style="mask-type:luminance" maskUnits="userSpaceOnUse" x="26" y="74" width="8" height="22">
<path d="M33.8137 74.3876H26.582V95.1341H33.8137V74.3876Z" fill="white"/>
</mask>
<g mask="url(#mask26_6_1950)">
<path d="M26.4805 76.7668C26.4805 79.317 27.9267 83.1769 28.0644 85.7271C29.2697 86.2785 31.3015 85.8995 31.0604 87.4503C30.6885 89.8205 30.5386 92.2202 30.6127 94.6183C30.6277 94.716 30.6673 94.8084 30.7275 94.8867C30.7877 94.965 30.8669 95.0268 30.9574 95.0663C31.2329 93.2398 31.2328 90.5172 31.646 88.7596C31.646 88.2427 33.3679 81.8672 33.4368 80.8678C33.5057 79.8684 33.6777 78.3522 33.7466 77.1115V76.8357C33.7466 76.5945 33.7466 76.3532 33.7466 76.112C33.0923 74.0442 26.3083 73.5963 26.5149 76.8702" fill="#FCC8A1"/>
</g>
</g>
<path d="M29.0242 97.7535C29.0911 97.8872 29.1884 98.0033 29.3079 98.093C29.4274 98.1827 29.5658 98.2434 29.7127 98.2703H30.0919H30.4707L30.815 98.0635L31.1248 97.7535C31.4338 97.4832 31.8189 97.3147 32.227 97.271C32.6336 97.2023 33.028 97.0747 33.3977 96.8919C33.3977 96.8919 34.7406 96.2026 34.9128 95.5478C35.0849 94.8931 33.4664 94.6174 33.1909 94.7553L31.2971 95.4444C31.7792 95.4444 33.3288 95.4444 33.3633 95.4444C33.3977 95.4444 33.3633 95.6857 33.3633 95.7891C33.2772 95.8987 33.1723 95.9921 33.0534 96.0649C32.3863 96.4218 31.665 96.6662 30.9184 96.7884H30.1264C30.1264 96.7884 29.2653 96.7884 29.0931 96.0991C28.9143 96.3622 28.8291 96.6779 28.8518 96.9952C28.7994 97.28 28.7994 97.572 28.8518 97.8568" fill="#ECF1F5"/>
<path d="M36.9784 96.823C36.3585 97.0643 35.5317 97.1676 35.3595 96.375C35.01 93.8408 35.0918 91.2657 35.6008 88.7587C36.6494 85.0416 36.9994 81.1623 36.6337 77.3173L29.9531 77.7996C29.9911 80.8742 30.6467 83.9099 31.8814 86.7255C31.0008 90.2327 31.5328 93.9458 33.3623 97.0643C33.3623 97.3055 32.8114 98.0292 33.3623 98.5806C33.9133 99.132 39.4578 97.7881 38.5968 96.9265C38.3484 96.8121 38.0783 96.7528 37.8049 96.7528C37.5314 96.7528 37.2613 96.8121 37.0129 96.9265" fill="#FCC8A1"/>
<g style="mix-blend-mode:multiply" opacity="0.2">
<mask id="mask27_6_1950" style="mask-type:luminance" maskUnits="userSpaceOnUse" x="29" y="77" width="8" height="20">
<path d="M36.8444 77.2138H29.957V96.375H36.8444V77.2138Z" fill="white"/>
</mask>
<g mask="url(#mask27_6_1950)">
<path d="M35.0874 86.7942C35.604 89.9303 33.3654 93.4453 35.3283 96.3057C34.9788 93.7715 35.0605 91.1965 35.5696 88.6896C36.6181 84.9725 36.9682 81.093 36.6024 77.248L29.9219 77.7305C29.982 80.6002 30.5534 83.4361 31.6093 86.1049C32.8834 86.6218 34.8119 85.7601 35.0529 86.8285" fill="#FCC8A1"/>
</g>
</g>
<mask id="mask28_6_1950" style="mask-type:luminance" maskUnits="userSpaceOnUse" x="26" y="74" width="12" height="12">
<path d="M33.0565 74.6637L29.0617 74.9394C28.2352 74.9394 27.1679 74.9394 26.6858 76.0078C26.4024 77.2061 26.2409 78.43 26.2036 79.6608C26.2036 80.5223 26.0312 81.4182 26.0312 82.3143C26.1827 83.0469 26.4625 83.7471 26.8577 84.3821C27.3717 84.8807 27.982 85.2693 28.651 85.5241C29.3201 85.7789 30.0339 85.8945 30.7491 85.864C32.7918 86.0263 34.8474 85.8752 36.8445 85.416C37.1701 85.2121 37.4231 84.9106 37.5675 84.5544C37.6899 83.9982 37.6899 83.422 37.5675 82.8658C37.4992 81.0316 37.1983 79.2135 36.6721 77.4551C36.5105 76.6851 36.1685 75.9646 35.6738 75.353C35.3982 75.0957 35.0723 74.8985 34.7166 74.7739C34.3609 74.6493 33.9829 74.6 33.6072 74.6292H32.8842" fill="white"/>
</mask>
<g mask="url(#mask28_6_1950)">
<path d="M36.1653 70.1288L22.1133 75.8933L27.7952 89.7644L41.8472 83.9999L36.1653 70.1288Z" fill="url(#paint5_linear_6_1950)"/>
</g>
<path d="M38.4947 58.33L41.2154 58.5713L42.3172 59.2261C42.3172 59.2261 42.9372 59.6395 42.9028 59.9842C42.8683 60.3288 42.6615 61.535 42.2482 61.3627C41.835 61.1904 39.7344 60.0876 39.7344 60.0876C39.7344 60.0876 39.0802 60.0875 38.9769 59.9152L38.4258 59.2604L38.4947 58.33Z" fill="#FCC8A1"/>
<path d="M38.1517 60.7068C38.1517 60.7068 38.1515 60.8792 38.4615 60.9481L40.3901 61.7062V61.4649L38.9781 60.9136C38.9947 60.7762 38.9947 60.6374 38.9781 60.5L42.9729 57.3638C43.008 57.3386 43.0499 57.3251 43.0931 57.3251C43.1364 57.3251 43.1787 57.3386 43.2138 57.3638L47.5529 59.087V59.466C47.581 59.4256 47.5962 59.3775 47.5962 59.3282C47.5962 59.2789 47.581 59.2309 47.5529 59.1905C47.5695 59.3278 47.5695 59.4666 47.5529 59.604C47.5741 59.6468 47.5852 59.6939 47.5852 59.7418C47.5852 59.7896 47.5741 59.8369 47.5529 59.8797L43.4206 63.1535C43.2809 63.2207 43.1279 63.2557 42.9729 63.2557C42.8179 63.2557 42.6649 63.2207 42.5252 63.1535L38.427 61.4994C38.427 61.4994 38.1172 61.4994 38.1172 61.2581C38.1172 61.0169 38.1172 60.9824 38.1172 60.8446" fill="#AEBFCF"/>
<path d="M38.8438 60.3643L42.8386 57.2283C42.8737 57.2031 42.916 57.1894 42.9592 57.1894C43.0024 57.1894 43.0443 57.2031 43.0794 57.2283L47.4185 58.9514L43.4241 62.1219H43.2173L38.8782 60.3988" fill="#8ACAC2"/>
<path d="M40.7349 61.3621C40.6809 61.3373 40.622 61.3244 40.5626 61.3244C40.5031 61.3244 40.4446 61.3373 40.3906 61.3621L40.7694 61.5343C40.8203 61.5684 40.88 61.5865 40.9413 61.5865C41.0026 61.5865 41.0627 61.5684 41.1137 61.5343L40.7349 61.3621Z" fill="#F1F5FB"/>
<path d="M47.5218 58.7069C47.7973 58.7069 47.8317 59.0171 47.5218 59.1894L43.3895 62.4634C43.2559 62.5302 43.1085 62.5648 42.9591 62.5648C42.8097 62.5648 42.6623 62.5302 42.5286 62.4634L38.3959 60.8091C38.1549 60.8091 37.9485 60.6024 38.1895 60.43L42.4597 56.9838C42.5994 56.9166 42.7524 56.8818 42.9074 56.8818C43.0624 56.8818 43.2154 56.9166 43.3551 56.9838L47.5218 58.7069ZM38.8436 60.3611L43.1827 62.0842H43.3895L47.3839 58.9137L43.0453 57.1906C43.0453 57.1906 43.0451 57.1906 42.8384 57.1906L38.8436 60.3611ZM40.428 61.6019L40.8068 61.7741C40.8608 61.7989 40.9193 61.8118 40.9787 61.8118C41.0381 61.8118 41.097 61.7989 41.1511 61.7741H40.7378C40.6838 61.7494 40.6249 61.7365 40.5655 61.7365C40.5061 61.7365 40.4476 61.7494 40.3936 61.7741" fill="#F8FAFD"/>
<path d="M39.0812 58.0895C39.8044 58.0895 39.9074 59.9848 38.7709 60.1572L34.3978 60.9154C34.1287 60.9539 33.8544 60.939 33.5911 60.8715C33.3278 60.804 33.0805 60.6851 32.863 60.5219C32.6456 60.3587 32.4626 60.1542 32.3241 59.9201C32.1856 59.686 32.0943 59.4271 32.0559 59.1578C32.0175 58.8885 32.0326 58.6142 32.1 58.3507C32.1675 58.0872 32.2859 57.8397 32.449 57.6221C32.612 57.4045 32.8166 57.2212 33.0505 57.0826C33.2844 56.944 33.5431 56.8529 33.8122 56.8144C33.8122 56.8144 37.7726 57.8483 39.0812 58.0895Z" fill="#BFCEDD"/>
<path d="M34.5718 58.3291C33.3993 57.585 32.0342 57.2015 30.646 57.2263C28.9585 57.2263 28.0977 55.7444 28.0977 57.4331C28.0977 59.1218 28.339 66.8413 30.0608 66.8413C31.7826 66.8413 35.4672 59.7421 34.5718 58.3291Z" fill="#D7E0E9"/>
<path d="M30.1992 55.9499C30.1992 56.9493 33.6429 56.2255 33.6429 56.2255V54.3301L30.1992 54.0888V55.4674V55.9499Z" fill="#FCC8A1"/>
<path d="M29.921 52.6768C31.574 54.4343 32.2283 54.3998 33.8813 53.2281C34.7085 52.6569 35.338 51.8431 35.6834 50.8987C36.0289 49.9543 36.0729 48.9259 35.8096 47.9554C35.6916 47.383 35.4304 46.8499 35.0499 46.4064C34.6695 45.963 34.1825 45.6237 33.635 45.4204C33.0874 45.217 32.4973 45.1563 31.9199 45.2441C31.3424 45.3319 30.7967 45.5651 30.3342 45.922C26.5806 48.1965 27.8892 50.54 29.921 52.8145" fill="#47150D"/>
<path d="M30.4718 51.0223C30.4718 51.746 30.2996 52.7798 30.4718 53.2967C30.9114 53.9497 31.5612 54.4324 32.313 54.6644C33.0649 54.8964 33.8733 54.8637 34.604 54.5718C35.1954 53.8539 35.6299 53.0198 35.879 52.1234C36.1282 51.2271 36.1866 50.2883 36.0505 49.368C36.1165 48.964 36.0548 48.5496 35.874 48.1825C35.6931 47.8154 35.402 47.5141 35.0416 47.3205C34.6813 47.1269 34.2694 47.0508 33.8638 47.1028C33.4581 47.1548 33.0787 47.3321 32.7788 47.6103C31.4702 48.6097 29.9895 48.6787 30.2994 51.0566" fill="#FCC8A1"/>
<g style="mix-blend-mode:multiply" opacity="0.2">
<mask id="mask29_6_1950" style="mask-type:luminance" maskUnits="userSpaceOnUse" x="34" y="47" width="3" height="8">
<path d="M36.2244 47.163H34.2617V54.7103H36.2244V47.163Z" fill="white"/>
</mask>
<g mask="url(#mask29_6_1950)">
<path d="M34.8473 47.163C35.6517 48.7344 35.9062 50.5302 35.5703 52.2634C35.5519 52.7439 35.4246 53.2139 35.1979 53.6378C34.9712 54.0617 34.651 54.4285 34.2617 54.7103H34.7784C35.367 53.9976 35.7996 53.1694 36.0487 52.279C36.2978 51.3886 36.3576 50.4559 36.2244 49.5409C36.2902 49.0656 36.1891 48.582 35.9377 48.1733C35.6864 47.7646 35.301 47.4562 34.8473 47.3008" fill="#FCC8A1"/>
</g>
</g>
<path d="M27.8217 48.5774C27.8217 47.5435 30.4045 47.4401 30.4045 47.4401C30.4045 47.4401 31.644 43.3735 35.742 46.5785C36.6029 47.2333 36.1211 49.8181 35.2258 51.1621C35.1724 51.2424 35.101 51.3092 35.0173 51.3571C34.9336 51.4049 34.8399 51.4326 34.7436 51.4378C33.986 51.4378 32.6773 50.8863 32.5051 51.0586C32.3329 51.2309 33.2283 51.4034 32.5051 52.5407C32.5051 52.713 32.5053 52.8509 32.2642 52.9887C31.8854 53.6435 31.4719 54.9186 29.8534 53.8503C29.8534 53.8503 26.9952 50.9209 27.7528 48.5774" fill="#47150D"/>
<path d="M32.2649 51.6441C32.5748 52.161 32.9189 52.4023 33.2288 52.2989C33.5388 52.1955 33.6767 51.7474 33.4701 51.196C33.3873 50.9666 33.231 50.7711 33.0254 50.6401C32.8197 50.5092 32.5762 50.4501 32.3334 50.4723C31.9891 50.4723 31.8857 51.0927 32.3334 51.6441" fill="#FCC8A1"/>
<path d="M34.6383 56.9508C34.6383 56.7096 33.8461 55.2276 33.6395 55.3654C33.1769 55.5859 32.6713 55.7005 32.1589 55.7005C31.6466 55.7005 31.1405 55.5859 30.678 55.3654C30.5444 55.2883 30.4331 55.1781 30.3547 55.0453C30.2763 54.9125 30.2334 54.7616 30.2303 54.6074C30.2303 54.6074 27.2343 57.0542 31.1601 57.8124C31.9459 57.9929 32.7695 57.9081 33.502 57.5711C34.1219 57.2954 35.1893 57.3299 34.6383 56.7785" fill="#ECF1F5"/>
<path d="M25.6514 81.5571C26.0657 82.113 26.6636 82.5038 27.3388 82.6599C28.3977 82.8446 29.4677 82.9597 30.5416 83.0045C31.8435 83.192 33.1651 83.192 34.467 83.0045C35.83 82.7854 37.06 82.0593 37.9107 80.9713C38.8405 76.0432 36.9121 71.1838 36.6366 67.8754C36.6046 66.8182 36.8544 65.7715 37.36 64.8426C39.1163 60.0868 37.9452 58.5705 34.467 56.7095C34.0076 57.123 33.4457 57.4052 32.8398 57.5265C32.2339 57.6478 31.6063 57.6037 31.0233 57.3988C28.6128 56.8819 29.6462 55.4344 29.6462 55.4344C26.2025 54.9864 26.4089 58.605 26.8566 60.6383C27.5814 62.9659 27.8046 65.4209 27.5111 67.8411C27.2372 68.9309 26.8919 70.0015 26.4779 71.0461C25.441 74.388 25.1356 77.9142 25.5825 81.3848V81.5571" fill="#ECF1F5"/>
<path d="M44.2468 62.568C44.2237 62.6498 44.1738 62.7214 44.1051 62.7714C44.0364 62.8214 43.9529 62.8469 43.868 62.8437C43.7828 62.8269 43.7068 62.7786 43.6558 62.7083C43.6047 62.638 43.582 62.551 43.5923 62.4647L43.868 60.7071C43.851 60.6553 43.8462 60.6002 43.8546 60.5464C43.863 60.4925 43.884 60.4414 43.916 60.3972C43.9479 60.3531 43.9898 60.3172 44.0383 60.2925C44.0868 60.2677 44.1407 60.2548 44.1951 60.2548C44.2495 60.2548 44.303 60.2677 44.3515 60.2925C44.4 60.3172 44.4419 60.3531 44.4738 60.3972C44.5057 60.4414 44.5268 60.4925 44.5352 60.5464C44.5436 60.6002 44.5391 60.6553 44.5221 60.7071L44.2468 62.568Z" fill="#FCC8A1"/>
<path d="M43.6953 62.9817L44.1775 61.3276L44.8661 60.1557C44.8661 60.1557 45.3137 59.501 45.658 59.5354C46.0024 59.5699 47.2767 59.7767 47.1045 60.2247C46.9324 60.6727 45.8649 62.5682 45.8649 62.5682C45.497 62.803 45.1901 63.122 44.9695 63.4987V64.2568L43.6953 62.9817Z" fill="#FCC8A1"/>
<path d="M43.6961 61.811C43.6961 61.811 41.5612 64.2232 40.838 64.2232C40.1148 64.2232 37.6007 58.6403 37.6007 58.6403C37.2686 58.1784 36.7688 57.8655 36.2084 57.7688C35.6481 57.6721 35.0722 57.7995 34.6047 58.1234C33.6405 58.8127 33.8815 60.8115 34.6047 61.811L39.0472 68.0142C39.325 68.3997 39.7196 68.6852 40.1726 68.828C40.6256 68.9708 41.1126 68.9633 41.5611 68.8067C41.9464 68.7022 42.2859 68.4717 42.5254 68.152C43.4552 66.8768 45.7625 62.9482 45.9691 62.8448C45.7333 62.5104 45.4171 62.2404 45.0502 62.0598C44.6832 61.8792 44.2771 61.7937 43.8685 61.811" fill="#FDFEFF"/>
<path d="M29.1642 47.5433C28.7854 46.7507 27.4766 47.5433 26.8912 48.4049C26.0988 49.6135 25.614 50.9978 25.4792 52.437C25.2723 53.773 25.2723 55.133 25.4792 56.469C25.76 57.3912 25.9561 58.3371 26.0648 59.295C26.1687 59.7951 26.1687 60.3112 26.0648 60.8113C25.8788 61.2427 25.5843 61.6188 25.2101 61.9026C24.836 62.1864 24.395 62.3685 23.9297 62.4312C24.2396 62.4312 24.5496 62.4312 24.8596 62.6725C25.3787 62.8032 25.909 62.8838 26.4435 62.9135C27.0111 63.0345 27.5978 63.0345 28.1654 62.9135C28.9738 62.4951 29.6528 61.8636 30.1285 61.0871C30.7837 60.065 31.0636 58.8467 30.9205 57.6408C30.9817 56.7034 30.766 55.7685 30.3004 54.9527C29.7406 54.1446 29.3538 53.2295 29.1642 52.2647C29.0309 51.816 28.9498 51.3534 28.9229 50.8861C28.9229 50.6104 28.9229 50.3347 28.9229 50.059C28.9229 49.2664 29.7493 48.3359 29.3361 47.4399" fill="#5E1F12"/>
<g style="mix-blend-mode:multiply" opacity="0.3">
<mask id="mask30_6_1950" style="mask-type:luminance" maskUnits="userSpaceOnUse" x="26" y="47" width="5" height="17">
<path d="M30.8198 47.541H26.6875V63.0491H30.8198V47.541Z" fill="white"/>
</mask>
<g mask="url(#mask30_6_1950)">
<path d="M30.7851 57.7417C30.8463 56.8043 30.6306 55.8696 30.165 55.0538C29.591 54.2536 29.2029 53.3351 29.0288 52.3656C28.9006 51.9141 28.8086 51.4533 28.7534 50.9872C28.7707 50.7118 28.7707 50.4356 28.7534 50.1601C28.7534 49.3675 29.5799 48.437 29.1667 47.541C29.0385 47.6527 28.9352 47.7902 28.864 47.9446C28.7928 48.099 28.7553 48.2669 28.7534 48.437C28.2369 50.1331 28.2369 51.9446 28.7534 53.6407C29.5475 55.2835 29.9483 57.0888 29.9242 58.9135C29.7408 59.8441 29.3303 60.7149 28.7295 61.4484C28.1287 62.1819 27.3562 62.7553 26.4805 63.1179C26.9238 63.2061 27.3802 63.2061 27.8236 63.1179C28.632 62.6994 29.3105 62.068 29.7863 61.2915C30.4415 60.2693 30.7214 59.0511 30.5783 57.8452" fill="#5E1F12"/>
</g>
</g>
<g style="mix-blend-mode:screen" opacity="0.2">
<mask id="mask31_6_1950" style="mask-type:luminance" maskUnits="userSpaceOnUse" x="23" y="47" width="6" height="16">
<path d="M28.5448 47.2314H23.9648V62.774H28.5448V47.2314Z" fill="white"/>
</mask>
<g mask="url(#mask31_6_1950)">
<path d="M26.6499 60.2238C26.9254 57.5013 26.0989 54.9166 26.2022 52.2285C26.2022 50.5743 26.7529 47.7483 28.5436 47.2314C27.8877 47.4473 27.3119 47.8556 26.8907 48.4032C26.0984 49.6118 25.6135 50.9961 25.4787 52.4353C25.2718 53.7713 25.2718 55.1313 25.4787 56.4673C25.7595 57.3895 25.9556 58.3354 26.0643 59.2933C26.1683 59.7934 26.1683 60.3095 26.0643 60.8096C25.8918 61.2145 25.6225 61.5708 25.2803 61.8473C24.938 62.1237 24.5334 62.3118 24.1016 62.395C24.3707 62.4714 24.6351 62.5635 24.8935 62.6707H25.3068C26.1154 62.0478 26.6469 61.1318 26.7873 60.1203" fill="#5E1F12"/>
</g>
</g>
<path d="M32.9908 98.858C33.0432 99.002 33.1302 99.1308 33.2443 99.233C33.3585 99.3352 33.4961 99.4076 33.6449 99.4438H33.9896H34.3684H34.7472L35.1259 99.168C35.4637 98.9461 35.8581 98.8266 36.2622 98.8235C36.6841 98.8248 37.1032 98.7549 37.5019 98.6167C37.5019 98.6167 38.8797 98.0997 39.1552 97.4794C39.2423 97.246 39.2423 96.9889 39.1552 96.7556C39.0894 96.6273 38.991 96.5184 38.8702 96.4399C38.7494 96.3613 38.6101 96.3157 38.4662 96.3076C38.1826 96.3152 37.9028 96.3737 37.6397 96.48C37.2265 96.48 36.9167 96.7212 36.5035 96.8591H35.9868C36.5028 96.8935 37.0203 96.8935 37.5363 96.8591C37.5592 96.8815 37.5777 96.9084 37.5901 96.938C37.6026 96.9675 37.6086 96.9993 37.6086 97.0313C37.6086 97.0634 37.6026 97.0951 37.5901 97.1247C37.5777 97.1543 37.5592 97.1812 37.5363 97.2036L37.192 97.4449C36.4792 97.7286 35.7206 97.8804 34.9536 97.8929C34.7125 97.8929 33.335 98.1685 33.1972 97.1691C33.0061 97.3763 32.8962 97.6456 32.8874 97.9274C32.8188 98.2105 32.8188 98.5059 32.8874 98.789" fill="#ECF1F5"/>
</g>
</g>
<defs>
<linearGradient id="paint0_linear_6_1950" x1="55.187" y1="61.2905" x2="56.1857" y2="61.2905" gradientUnits="userSpaceOnUse">
<stop stop-color="#ABBAD6"/>
<stop offset="1" stop-color="#97AAC9"/>
</linearGradient>
<linearGradient id="paint1_linear_6_1950" x1="72.3077" y1="53.9005" x2="73.4785" y2="53.9005" gradientUnits="userSpaceOnUse">
<stop stop-color="#ABBAD6"/>
<stop offset="1" stop-color="#97AAC9"/>
</linearGradient>
<linearGradient id="paint2_linear_6_1950" x1="80.186" y1="48.4711" x2="82.1834" y2="48.4711" gradientUnits="userSpaceOnUse">
<stop stop-color="#ABBAD6"/>
<stop offset="1" stop-color="#97AAC9"/>
</linearGradient>
<linearGradient id="paint3_linear_6_1950" x1="59.9125" y1="55.5459" x2="60.7734" y2="55.5459" gradientUnits="userSpaceOnUse">
<stop stop-color="#ABBAD6"/>
<stop offset="1" stop-color="#97AAC9"/>
</linearGradient>
<linearGradient id="paint4_linear_6_1950" x1="70.6808" y1="54.5323" x2="72.1616" y2="54.5323" gradientUnits="userSpaceOnUse">
<stop stop-color="#ABBAD6"/>
<stop offset="1" stop-color="#97AAC9"/>
</linearGradient>
<linearGradient id="paint5_linear_6_1950" x1="44.1508" y1="82.3748" x2="41.195" y2="75.1697" gradientUnits="userSpaceOnUse">
<stop stop-color="#0E98B0"/>
<stop offset="0.29" stop-color="#118FAC"/>
<stop offset="1" stop-color="#0277A1"/>
</linearGradient>
<clipPath id="clip0_6_1950">
<rect width="136.913" height="136.913" rx="68.4563" fill="white"/>
</clipPath>
<clipPath id="clip1_6_1950">
<rect width="95.1493" height="76.6791" fill="white" transform="translate(22.0312 22.832)"/>
</clipPath>
</defs>
</svg>
