<svg width="16" height="15" viewBox="0 0 16 15" fill="none" xmlns="http://www.w3.org/2000/svg">
<path fill-rule="evenodd" clip-rule="evenodd" d="M15.1945 6.33881L13.9705 5.72875C13.9705 5.72875 14.2984 4.98804 14.5949 4.34662C13.5498 3.92728 12.4773 3.63988 10.783 4.21598C10.5667 4.29126 10.3612 4.39446 10.1716 4.52297C10.2281 4.32727 10.2679 4.12712 10.2905 3.92467C10.5518 1.52359 9.03116 0.197632 9.03116 0.197632L8.0945 1.19307C8.0945 1.19307 7.47921 0.670533 6.95144 0.197632C6.24862 1.07681 5.66207 2.02653 5.72086 3.8084C5.73598 4.11432 5.79947 4.4159 5.90897 4.70194C5.79401 4.62487 5.67383 4.55042 5.54711 4.48118C3.42428 3.32767 1.36677 4.31265 1.36677 4.31265L2.07612 5.5354C2.07612 5.5354 1.23222 5.97826 0.598633 6.28917C1.146 7.27286 2.02779 8.04361 3.70384 8.66674C3.90145 8.74014 4.10875 8.78415 4.31913 8.79738C4.1885 8.92801 4.05786 9.05865 3.92723 9.2128C2.3596 11.0535 3.01278 12.9751 3.01278 12.9751L4.34265 12.6577C4.34265 12.6577 4.56734 13.4415 4.75023 14.1169C5.82014 13.7694 6.99325 13.5943 7.87242 12.0267C7.94501 11.8977 8.00831 11.7636 8.06185 11.6256C8.11586 11.7327 8.17606 11.8365 8.24212 11.9365C9.58636 13.9483 11.6047 13.981 11.6047 13.981L11.6844 12.6145C11.6844 12.6145 12.4943 12.625 13.1997 12.6446C13.1736 11.5211 13.0169 10.4238 11.8255 9.08738C11.6888 8.93721 11.5379 8.80071 11.3748 8.6798C11.5807 8.67644 11.7861 8.65635 11.9888 8.61971C14.365 8.17947 15.1945 6.33881 15.1945 6.33881ZM10.1821 8.03708C10.1362 8.03677 10.0918 8.02101 10.056 7.99232C10.0202 7.96364 9.99509 7.92371 9.9848 7.879L8.8744 7.79932C8.86393 7.852 8.84862 7.9036 8.82868 7.95347L9.65299 8.37019C9.68312 8.34298 9.72212 8.32765 9.76272 8.32708C9.80672 8.32708 9.84892 8.34457 9.88003 8.37568C9.91115 8.40679 9.92863 8.44899 9.92863 8.49299C9.92863 8.53699 9.91115 8.57919 9.88003 8.6103C9.84892 8.64142 9.80672 8.6589 9.76272 8.6589C9.71872 8.6589 9.67652 8.64142 9.64541 8.6103C9.61429 8.57919 9.59681 8.53699 9.59681 8.49299C9.59681 8.49299 9.59681 8.48385 9.59681 8.47862L8.77381 8.0619C8.72717 8.14364 8.66711 8.21694 8.59614 8.27875L9.07558 9.0299C9.08538 9.02684 9.09543 9.02465 9.10562 9.02337C9.14963 9.02337 9.19182 9.04086 9.22294 9.07197C9.25405 9.10308 9.27153 9.14528 9.27153 9.18928C9.2717 9.21118 9.26754 9.23289 9.25928 9.25317C9.25102 9.27345 9.23883 9.2919 9.2234 9.30744C9.20798 9.32298 9.18963 9.33532 9.16942 9.34374C9.1492 9.35216 9.12752 9.35649 9.10562 9.35649C9.08373 9.35649 9.06205 9.35216 9.04183 9.34374C9.02162 9.33532 9.00327 9.32298 8.98785 9.30744C8.97242 9.2919 8.96023 9.27345 8.95197 9.25317C8.94371 9.23289 8.93954 9.21118 8.93972 9.18928C8.94019 9.15523 8.95164 9.12224 8.97238 9.09522C8.81561 8.84701 8.65798 8.59968 8.49947 8.35321C8.44012 8.39133 8.37656 8.42246 8.31005 8.44597L8.67061 9.49105C8.71046 9.49306 8.74802 9.51033 8.7755 9.53927C8.80298 9.5682 8.81828 9.6066 8.81823 9.64651C8.81788 9.6882 8.80108 9.72807 8.77147 9.75743C8.74186 9.78679 8.70185 9.80327 8.66016 9.80327C8.63957 9.80327 8.61919 9.79921 8.60017 9.79134C8.58115 9.78346 8.56386 9.77191 8.54931 9.75735C8.53475 9.7428 8.5232 9.72552 8.51533 9.7065C8.50745 9.68748 8.50339 9.66709 8.50339 9.64651C8.50339 9.62441 8.50817 9.60257 8.51742 9.5825C8.52666 9.56243 8.54015 9.54459 8.55695 9.53024L8.19248 8.47209C8.13914 8.48268 8.08487 8.48793 8.03049 8.48777H8.00698V9.69092C8.03692 9.70269 8.06264 9.72318 8.08081 9.74973C8.09897 9.77628 8.10875 9.80767 8.10887 9.83985C8.10905 9.86117 8.10498 9.88231 8.0969 9.90205C8.08882 9.92178 8.07689 9.9397 8.06182 9.95478C8.04674 9.96986 8.02881 9.98178 8.00908 9.98986C7.98935 9.99794 7.96821 10.002 7.94689 10.0018C7.90392 10.0018 7.86272 9.98477 7.83234 9.95439C7.80196 9.92401 7.7849 9.88281 7.7849 9.83985C7.78502 9.80767 7.7948 9.77628 7.81297 9.74973C7.83113 9.72318 7.85685 9.70269 7.88679 9.69092V8.47601C7.79136 8.46028 7.6994 8.42801 7.61507 8.38065C7.3599 8.65934 7.10559 8.93716 6.85216 9.2141C6.86824 9.24103 6.87723 9.27159 6.87829 9.30294C6.87829 9.32792 6.87334 9.35266 6.86374 9.37572C6.85414 9.39879 6.84007 9.41974 6.82235 9.43734C6.80462 9.45495 6.78358 9.46888 6.76045 9.47832C6.73732 9.48776 6.71254 9.49253 6.68756 9.49236C6.66268 9.49236 6.63805 9.48745 6.61507 9.47793C6.59209 9.46842 6.57121 9.45447 6.55362 9.43688C6.53603 9.41929 6.52207 9.3984 6.51256 9.37542C6.50304 9.35244 6.49814 9.32781 6.49814 9.30294C6.49814 9.2527 6.51809 9.20451 6.55362 9.16899C6.58914 9.13347 6.63732 9.11351 6.68756 9.11351C6.71416 9.1137 6.74042 9.11949 6.76463 9.1305L7.51318 8.31402C7.45704 8.27094 7.40617 8.2214 7.36164 8.1664L6.37142 8.64323C6.37142 8.65106 6.37142 8.65759 6.37142 8.66543C6.37142 8.71602 6.35133 8.76453 6.31556 8.80029C6.27979 8.83606 6.23128 8.85616 6.18069 8.85616C6.13011 8.85616 6.0816 8.83606 6.04583 8.80029C6.01006 8.76453 5.98996 8.71602 5.98996 8.66543C5.98996 8.64039 5.9949 8.61558 6.00448 8.59244C6.01407 8.5693 6.02812 8.54828 6.04583 8.53057C6.06354 8.51286 6.08456 8.49881 6.1077 8.48922C6.13084 8.47964 6.15564 8.4747 6.18069 8.4747C6.20634 8.4747 6.23173 8.47991 6.25531 8.49002C6.27889 8.50012 6.30017 8.51491 6.31786 8.53349L7.28848 8.06581C7.24625 7.99223 7.21459 7.91308 7.19443 7.83067L5.83973 7.79017C5.82727 7.81858 5.80679 7.84274 5.7808 7.85968C5.75481 7.87662 5.72444 7.88561 5.69342 7.88554C5.65115 7.88554 5.61061 7.86875 5.58073 7.83886C5.55084 7.80897 5.53405 7.76843 5.53405 7.72616C5.53405 7.68389 5.55084 7.64336 5.58073 7.61347C5.61061 7.58358 5.65115 7.56679 5.69342 7.56679C5.72579 7.56684 5.75737 7.57673 5.78398 7.59517C5.81058 7.6136 5.83094 7.6397 5.84235 7.66999L7.17483 7.70918C7.17349 7.68394 7.17349 7.65865 7.17483 7.63341C7.17476 7.55294 7.1862 7.47289 7.2088 7.39566L5.87239 6.77383C5.851 6.79951 5.82424 6.82019 5.794 6.83441C5.76375 6.84862 5.73076 6.85604 5.69734 6.85613C5.66721 6.85613 5.63737 6.85018 5.60955 6.83861C5.58173 6.82704 5.55647 6.81008 5.53522 6.78871C5.51398 6.76734 5.49717 6.74198 5.48576 6.7141C5.47434 6.68621 5.46856 6.65634 5.46873 6.62621C5.46856 6.59608 5.47434 6.56621 5.48576 6.53832C5.49717 6.51043 5.51398 6.48508 5.53522 6.46372C5.55647 6.44235 5.58173 6.42539 5.60955 6.41382C5.63737 6.40225 5.66721 6.39629 5.69734 6.39629C5.75832 6.39629 5.8168 6.42052 5.85992 6.46364C5.90304 6.50675 5.92726 6.56523 5.92726 6.62621C5.92854 6.63924 5.92854 6.65237 5.92726 6.6654L7.25452 7.282C7.30398 7.17305 7.37561 7.07563 7.46484 6.99591L6.44327 5.92078C6.39932 5.94675 6.34931 5.96071 6.29826 5.96127C6.2599 5.96145 6.22188 5.95404 6.18638 5.93947C6.15089 5.92491 6.11862 5.90348 6.09143 5.87641C6.06424 5.84935 6.04266 5.81718 6.02794 5.78175C6.01322 5.74632 6.00564 5.70833 6.00564 5.66996C6.00564 5.59235 6.03647 5.51792 6.09135 5.46304C6.14623 5.40816 6.22066 5.37734 6.29826 5.37734C6.33663 5.37734 6.37462 5.38492 6.41005 5.39964C6.44548 5.41436 6.47765 5.43593 6.50472 5.46312C6.53179 5.49031 6.55322 5.52258 6.56778 5.55808C6.58235 5.59357 6.58975 5.63159 6.58958 5.66996C6.5894 5.7311 6.56972 5.79059 6.53341 5.83978L7.56021 6.92145C7.67365 6.84482 7.8042 6.79726 7.94035 6.78298C7.95081 6.40413 7.95995 6.02529 7.9704 5.64775C7.91689 5.6334 7.8696 5.60182 7.83584 5.5579C7.80207 5.51398 7.78371 5.46016 7.78359 5.40477C7.78359 5.33812 7.80997 5.2742 7.85697 5.22695C7.90398 5.17971 7.96777 5.15298 8.03441 5.15264C8.10128 5.15264 8.16541 5.17921 8.21269 5.22649C8.25998 5.27377 8.28654 5.3379 8.28654 5.40477C8.28649 5.46184 8.26709 5.5172 8.23149 5.56182C8.1959 5.60643 8.14622 5.63765 8.09059 5.65036C8.08144 6.02659 8.07099 6.40282 8.06185 6.77905C8.1879 6.78237 8.31159 6.81408 8.42371 6.87181L8.89269 6.07885C8.86001 6.04308 8.84144 5.99665 8.84043 5.94821C8.84043 5.89486 8.86163 5.84369 8.89936 5.80596C8.93709 5.76823 8.98826 5.74703 9.04161 5.74703C9.09497 5.74703 9.14614 5.76823 9.18387 5.80596C9.2216 5.84369 9.24279 5.89486 9.24279 5.94821C9.24296 5.97474 9.23789 6.00104 9.22785 6.0256C9.21782 6.05016 9.20303 6.07249 9.18433 6.09131C9.16563 6.11013 9.1434 6.12507 9.1189 6.13526C9.09441 6.14545 9.06814 6.1507 9.04161 6.1507C9.02698 6.14904 9.01255 6.14597 8.9985 6.14155C8.84174 6.40282 8.68454 6.66802 8.52691 6.93713C8.60497 6.99211 8.6734 7.05965 8.72939 7.13699L9.5537 6.37147C9.53592 6.33808 9.52651 6.30087 9.52627 6.26304C9.5261 6.23211 9.53206 6.20146 9.54382 6.17286C9.55557 6.14425 9.57289 6.11825 9.59476 6.09638C9.61663 6.07451 9.64262 6.0572 9.67122 6.04545C9.69983 6.03369 9.73049 6.02773 9.76141 6.0279C9.82378 6.0279 9.88359 6.05268 9.92769 6.09677C9.97178 6.14087 9.99656 6.20068 9.99656 6.26304C9.99622 6.3253 9.97133 6.38491 9.92731 6.42894C9.88328 6.47296 9.82367 6.49784 9.76141 6.49818C9.71507 6.49886 9.66957 6.48567 9.63078 6.4603L8.78818 7.23628C8.82122 7.29987 8.84581 7.3675 8.86133 7.43745L9.98219 7.27155C9.98904 7.22468 10.0124 7.1818 10.0481 7.15066C10.0838 7.11952 10.1295 7.10216 10.1768 7.10173C10.2302 7.10173 10.2814 7.12292 10.3191 7.16065C10.3568 7.19838 10.378 7.24955 10.378 7.3029C10.378 7.35626 10.3568 7.40743 10.3191 7.44516C10.2814 7.48289 10.2302 7.50408 10.1768 7.50408C10.1392 7.50392 10.1023 7.49318 10.0704 7.47309C10.0385 7.45299 10.013 7.42435 9.99656 7.39043L8.88093 7.55503C8.88093 7.57985 8.88093 7.60467 8.88093 7.6308C8.88093 7.65693 8.88093 7.65824 8.88093 7.67261L9.98219 7.75229C9.99747 7.71355 10.0241 7.68035 10.0586 7.65703C10.0931 7.63372 10.1339 7.62138 10.1755 7.62166C10.2306 7.62166 10.2834 7.64354 10.3224 7.68249C10.3614 7.72145 10.3832 7.77427 10.3832 7.82936C10.3826 7.88288 10.3613 7.9341 10.3238 7.97231C10.2863 8.01052 10.2356 8.03278 10.1821 8.03446V8.03708Z" fill="white" fill-opacity="0.5"/>
</svg>
