<svg width="16" height="15" viewBox="0 0 16 15" fill="none" xmlns="http://www.w3.org/2000/svg">
<path fill-rule="evenodd" clip-rule="evenodd" d="M15.2404 6.33881L14.0164 5.72875C14.0164 5.72875 14.3443 4.98804 14.6408 4.34662C13.5957 3.92728 12.5232 3.63988 10.8289 4.21598C10.6126 4.29126 10.4071 4.39446 10.2175 4.52297C10.274 4.32727 10.3138 4.12712 10.3364 3.92467C10.5977 1.52359 9.07706 0.197632 9.07706 0.197632L8.1404 1.19307C8.1404 1.19307 7.52511 0.670533 6.99734 0.197632C6.29452 1.07681 5.70797 2.02653 5.76675 3.8084C5.78188 4.11432 5.84537 4.4159 5.95487 4.70194C5.83991 4.62487 5.71973 4.55042 5.59301 4.48118C3.47018 3.32767 1.41267 4.31265 1.41267 4.31265L2.12202 5.5354C2.12202 5.5354 1.27811 5.97826 0.644531 6.28917C1.19189 7.27286 2.07369 8.04361 3.74974 8.66674C3.94735 8.74014 4.15465 8.78415 4.36503 8.79738C4.2344 8.92801 4.10376 9.05865 3.97313 9.2128C2.4055 11.0535 3.05868 12.9751 3.05868 12.9751L4.38855 12.6577C4.38855 12.6577 4.61324 13.4415 4.79613 14.1169C5.86604 13.7694 7.03914 13.5943 7.91832 12.0267C7.99091 11.8977 8.05421 11.7636 8.10774 11.6256C8.16176 11.7327 8.22196 11.8365 8.28802 11.9365C9.63226 13.9483 11.6506 13.981 11.6506 13.981L11.7303 12.6145C11.7303 12.6145 12.5402 12.625 13.2456 12.6446C13.2195 11.5211 13.0628 10.4238 11.8714 9.08738C11.7347 8.93721 11.5838 8.80071 11.4207 8.6798C11.6266 8.67644 11.832 8.65635 12.0346 8.61971C14.4109 8.17947 15.2404 6.33881 15.2404 6.33881ZM10.228 8.03708C10.1821 8.03677 10.1377 8.02101 10.1019 7.99232C10.0661 7.96364 10.041 7.92371 10.0307 7.879L8.9203 7.79932C8.90983 7.852 8.89452 7.9036 8.87457 7.95347L9.69889 8.37019C9.72902 8.34298 9.76802 8.32765 9.80862 8.32708C9.85262 8.32708 9.89482 8.34457 9.92593 8.37568C9.95705 8.40679 9.97453 8.44899 9.97453 8.49299C9.97453 8.53699 9.95705 8.57919 9.92593 8.6103C9.89482 8.64142 9.85262 8.6589 9.80862 8.6589C9.76462 8.6589 9.72242 8.64142 9.6913 8.6103C9.66019 8.57919 9.64271 8.53699 9.64271 8.49299C9.64271 8.49299 9.64271 8.48385 9.64271 8.47862L8.81971 8.0619C8.77307 8.14364 8.71301 8.21694 8.64204 8.27875L9.12148 9.0299C9.13128 9.02684 9.14133 9.02465 9.15152 9.02337C9.19552 9.02337 9.23772 9.04086 9.26884 9.07197C9.29995 9.10308 9.31743 9.14528 9.31743 9.18928C9.3176 9.21118 9.31344 9.23289 9.30518 9.25317C9.29692 9.27345 9.28472 9.2919 9.2693 9.30744C9.25388 9.32298 9.23553 9.33532 9.21532 9.34374C9.1951 9.35216 9.17342 9.35649 9.15152 9.35649C9.12962 9.35649 9.10794 9.35216 9.08773 9.34374C9.06751 9.33532 9.04917 9.32298 9.03374 9.30744C9.01832 9.2919 9.00613 9.27345 8.99787 9.25317C8.98961 9.23289 8.98544 9.21118 8.98562 9.18928C8.98609 9.15523 8.99754 9.12224 9.01827 9.09522C8.86151 8.84701 8.70388 8.59968 8.54537 8.35321C8.48602 8.39133 8.42246 8.42246 8.35595 8.44597L8.71651 9.49105C8.75636 9.49306 8.79392 9.51033 8.8214 9.53927C8.84888 9.5682 8.86417 9.6066 8.86412 9.64651C8.86378 9.6882 8.84697 9.72807 8.81737 9.75743C8.78776 9.78679 8.74775 9.80327 8.70606 9.80327C8.68547 9.80327 8.66508 9.79921 8.64606 9.79134C8.62705 9.78346 8.60976 9.77191 8.59521 9.75735C8.58065 9.7428 8.5691 9.72552 8.56123 9.7065C8.55335 9.68748 8.54929 9.66709 8.54929 9.64651C8.54928 9.62441 8.55407 9.60257 8.56331 9.5825C8.57256 9.56243 8.58605 9.54459 8.60285 9.53024L8.23838 8.47209C8.18504 8.48268 8.13077 8.48793 8.07639 8.48777H8.05288V9.69092C8.08282 9.70269 8.10854 9.72318 8.1267 9.74973C8.14487 9.77628 8.15465 9.80767 8.15477 9.83985C8.15495 9.86117 8.15088 9.88231 8.1428 9.90205C8.13472 9.92178 8.12279 9.9397 8.10772 9.95478C8.09264 9.96986 8.07471 9.98178 8.05498 9.98986C8.03525 9.99794 8.01411 10.002 7.99278 10.0018C7.94982 10.0018 7.90862 9.98477 7.87824 9.95439C7.84786 9.92401 7.8308 9.88281 7.8308 9.83985C7.83092 9.80767 7.8407 9.77628 7.85887 9.74973C7.87703 9.72318 7.90275 9.70269 7.93269 9.69092V8.47601C7.83726 8.46028 7.7453 8.42801 7.66097 8.38065C7.4058 8.65934 7.15149 8.93716 6.89806 9.2141C6.91414 9.24103 6.92313 9.27159 6.92419 9.30294C6.92419 9.32792 6.91924 9.35266 6.90964 9.37572C6.90004 9.39879 6.88597 9.41974 6.86824 9.43734C6.85052 9.45495 6.82948 9.46888 6.80635 9.47832C6.78321 9.48776 6.75844 9.49253 6.73346 9.49236C6.70858 9.49236 6.68395 9.48745 6.66097 9.47793C6.63799 9.46842 6.61711 9.45447 6.59952 9.43688C6.58193 9.41929 6.56797 9.3984 6.55845 9.37542C6.54893 9.35244 6.54404 9.32781 6.54404 9.30294C6.54404 9.2527 6.56399 9.20451 6.59952 9.16899C6.63504 9.13347 6.68322 9.11351 6.73346 9.11351C6.76006 9.1137 6.78632 9.11949 6.81053 9.1305L7.55907 8.31402C7.50294 8.27094 7.45207 8.2214 7.40754 8.1664L6.41732 8.64323C6.41732 8.65106 6.41732 8.65759 6.41732 8.66543C6.41732 8.71602 6.39722 8.76453 6.36146 8.80029C6.32569 8.83606 6.27717 8.85616 6.22659 8.85616C6.17601 8.85616 6.1275 8.83606 6.09173 8.80029C6.05596 8.76453 6.03586 8.71602 6.03586 8.66543C6.03586 8.64039 6.0408 8.61558 6.05038 8.59244C6.05997 8.5693 6.07402 8.54828 6.09173 8.53057C6.10944 8.51286 6.13046 8.49881 6.1536 8.48922C6.17674 8.47964 6.20154 8.4747 6.22659 8.4747C6.25224 8.4747 6.27763 8.47991 6.30121 8.49002C6.32479 8.50012 6.34607 8.51491 6.36376 8.53349L7.33438 8.06581C7.29215 7.99223 7.26049 7.91308 7.24032 7.83067L5.88563 7.79017C5.87317 7.81858 5.85269 7.84274 5.8267 7.85968C5.80071 7.87662 5.77034 7.88561 5.73932 7.88554C5.69705 7.88554 5.65651 7.86875 5.62662 7.83886C5.59674 7.80897 5.57994 7.76843 5.57994 7.72616C5.57994 7.68389 5.59674 7.64336 5.62662 7.61347C5.65651 7.58358 5.69705 7.56679 5.73932 7.56679C5.77169 7.56684 5.80327 7.57673 5.82988 7.59517C5.85648 7.6136 5.87684 7.6397 5.88824 7.66999L7.22073 7.70918C7.21939 7.68394 7.21939 7.65865 7.22073 7.63341C7.22066 7.55294 7.23209 7.47289 7.25469 7.39566L5.91829 6.77383C5.8969 6.79951 5.87014 6.82019 5.8399 6.83441C5.80965 6.84862 5.77666 6.85604 5.74324 6.85613C5.71311 6.85613 5.68327 6.85018 5.65545 6.83861C5.62763 6.82704 5.60237 6.81008 5.58112 6.78871C5.55988 6.76734 5.54307 6.74198 5.53165 6.7141C5.52024 6.68621 5.51445 6.65634 5.51463 6.62621C5.51445 6.59608 5.52024 6.56621 5.53165 6.53832C5.54307 6.51043 5.55988 6.48508 5.58112 6.46372C5.60237 6.44235 5.62763 6.42539 5.65545 6.41382C5.68327 6.40225 5.71311 6.39629 5.74324 6.39629C5.80422 6.39629 5.8627 6.42052 5.90582 6.46364C5.94893 6.50675 5.97316 6.56523 5.97316 6.62621C5.97444 6.63924 5.97444 6.65237 5.97316 6.6654L7.30041 7.282C7.34988 7.17305 7.42151 7.07563 7.51074 6.99591L6.48917 5.92078C6.44522 5.94675 6.39521 5.96071 6.34416 5.96127C6.3058 5.96145 6.26777 5.95404 6.23228 5.93947C6.19678 5.92491 6.16452 5.90348 6.13733 5.87641C6.11014 5.84935 6.08856 5.81718 6.07384 5.78175C6.05912 5.74632 6.05154 5.70833 6.05154 5.66996C6.05154 5.59235 6.08237 5.51792 6.13725 5.46304C6.19212 5.40816 6.26655 5.37734 6.34416 5.37734C6.38253 5.37734 6.42052 5.38492 6.45595 5.39964C6.49138 5.41436 6.52355 5.43593 6.55062 5.46312C6.57769 5.49031 6.59912 5.52258 6.61368 5.55808C6.62824 5.59357 6.63565 5.63159 6.63548 5.66996C6.6353 5.7311 6.61562 5.79059 6.57931 5.83978L7.6061 6.92145C7.71955 6.84482 7.8501 6.79726 7.98625 6.78298C7.9967 6.40413 8.00585 6.02529 8.0163 5.64775C7.96279 5.6334 7.9155 5.60182 7.88173 5.5579C7.84797 5.51398 7.82961 5.46016 7.82949 5.40477C7.82949 5.33812 7.85587 5.2742 7.90287 5.22695C7.94987 5.17971 8.01367 5.15298 8.08031 5.15264C8.14718 5.15264 8.21131 5.17921 8.25859 5.22649C8.30587 5.27377 8.33244 5.3379 8.33244 5.40477C8.33239 5.46184 8.31299 5.5172 8.27739 5.56182C8.2418 5.60643 8.19212 5.63765 8.13648 5.65036C8.12734 6.02659 8.11689 6.40282 8.10774 6.77905C8.2338 6.78237 8.35749 6.81408 8.4696 6.87181L8.93859 6.07885C8.90591 6.04308 8.88734 5.99665 8.88633 5.94821C8.88633 5.89486 8.90753 5.84369 8.94526 5.80596C8.98298 5.76823 9.03416 5.74703 9.08751 5.74703C9.14087 5.74703 9.19204 5.76823 9.22977 5.80596C9.26749 5.84369 9.28869 5.89486 9.28869 5.94821C9.28886 5.97474 9.28378 6.00104 9.27375 6.0256C9.26372 6.05016 9.24893 6.07249 9.23023 6.09131C9.21153 6.11013 9.1893 6.12507 9.1648 6.13526C9.14031 6.14545 9.11404 6.1507 9.08751 6.1507C9.07288 6.14904 9.05844 6.14597 9.0444 6.14155C8.88764 6.40282 8.73044 6.66802 8.57281 6.93713C8.65087 6.99211 8.71929 7.05965 8.77529 7.13699L9.5996 6.37147C9.58182 6.33808 9.57241 6.30087 9.57217 6.26304C9.572 6.23211 9.57796 6.20146 9.58972 6.17286C9.60147 6.14425 9.61878 6.11825 9.64065 6.09638C9.66252 6.07451 9.68852 6.0572 9.71712 6.04545C9.74573 6.03369 9.77638 6.02773 9.80731 6.0279C9.86968 6.0279 9.92949 6.05268 9.97359 6.09677C10.0177 6.14087 10.0425 6.20068 10.0425 6.26304C10.0421 6.3253 10.0172 6.38491 9.97321 6.42894C9.92918 6.47296 9.86957 6.49784 9.80731 6.49818C9.76096 6.49886 9.71547 6.48567 9.67668 6.4603L8.83408 7.23628C8.86712 7.29987 8.89171 7.3675 8.90723 7.43745L10.0281 7.27155C10.0349 7.22468 10.0583 7.1818 10.094 7.15066C10.1297 7.11952 10.1754 7.10216 10.2227 7.10173C10.2761 7.10173 10.3273 7.12292 10.365 7.16065C10.4027 7.19838 10.4239 7.24955 10.4239 7.3029C10.4239 7.35626 10.4027 7.40743 10.365 7.44516C10.3273 7.48289 10.2761 7.50408 10.2227 7.50408C10.1851 7.50392 10.1482 7.49318 10.1163 7.47309C10.0844 7.45299 10.0588 7.42435 10.0425 7.39043L8.92683 7.55503C8.92683 7.57985 8.92683 7.60467 8.92683 7.6308C8.92683 7.65693 8.92683 7.65824 8.92683 7.67261L10.0281 7.75229C10.0434 7.71355 10.07 7.68035 10.1045 7.65703C10.139 7.63372 10.1798 7.62138 10.2214 7.62166C10.2765 7.62166 10.3293 7.64354 10.3683 7.68249C10.4073 7.72145 10.4291 7.77427 10.4291 7.82936C10.4285 7.88288 10.4072 7.9341 10.3697 7.97231C10.3322 8.01052 10.2815 8.03278 10.228 8.03446V8.03708Z" fill="white" fill-opacity="0.5"/>
</svg>
