<svg width="172" height="38" viewBox="0 0 172 38" fill="none" xmlns="http://www.w3.org/2000/svg">
<g clip-path="url(#clip0_7_1407)">
<path d="M69.1405 27.9758H65.4423C64.6962 24.2814 63.9524 20.594 63.1925 16.8262C63.1234 16.9732 63.082 17.0559 63.0474 17.1432C61.5944 20.6767 60.139 24.2079 58.6929 27.7437C58.6123 27.9413 58.511 27.9941 58.3083 27.9918C57.3412 27.9804 56.374 27.9804 55.4092 27.9918C55.1996 27.9941 55.1075 27.9252 55.0292 27.7345C53.567 24.224 52.0978 20.7181 50.6309 17.2122C50.5987 17.1317 50.5572 17.0559 50.4905 16.9112C49.7144 20.6492 48.9568 24.3113 48.1969 27.9735H44.4688C45.7491 21.7473 47.0271 15.5419 48.3074 9.32268C49.2907 9.32268 50.2556 9.31808 51.2204 9.33187C51.2964 9.33187 51.4024 9.46052 51.4392 9.55242C52.236 11.4731 53.0258 13.3961 53.818 15.319C54.7782 17.6579 55.7385 19.9967 56.701 22.3355C56.7309 22.409 56.7678 22.4825 56.8231 22.5997C56.8829 22.471 56.9313 22.3814 56.9704 22.2872C58.7205 18.0438 60.4729 13.8027 62.2161 9.55702C62.2921 9.37552 62.3819 9.31808 62.573 9.32038C63.4205 9.33187 64.2679 9.32957 65.113 9.32038C65.2811 9.32038 65.3479 9.36633 65.3824 9.53864C66.2966 14.0256 67.2177 18.5125 68.1388 22.9972C68.4612 24.5663 68.7882 26.1355 69.1106 27.707C69.1267 27.7874 69.1313 27.8678 69.1451 27.9758H69.1405Z" fill="#124B9A"/>
<path d="M70.6016 23.8525C71.8243 23.5148 72.978 23.1955 74.1409 22.8738C74.5853 23.8525 75.4443 24.2799 76.393 24.5349C77.8967 24.9415 79.3866 24.8887 80.7844 24.1374C81.1781 23.9261 81.542 23.6136 81.839 23.2759C82.2673 22.7865 82.2328 22.1961 81.8229 21.6906C81.3232 21.0749 80.6508 20.7027 79.9024 20.5143C79.1126 20.3144 78.2997 20.2065 77.496 20.0571C76.2687 19.8297 75.0321 19.6275 73.9175 19.0118C72.8491 18.4213 71.9464 17.654 71.4006 16.542C70.5417 14.7936 70.9953 12.7765 72.552 11.3452C73.6757 10.3136 75.0275 9.73694 76.5174 9.5026C78.2651 9.2269 79.9853 9.35556 81.6341 10.0425C82.9006 10.5686 83.9898 11.3268 84.6783 12.5536C84.7935 12.7604 84.8856 12.9787 85.003 13.2245C83.8401 13.6105 82.7026 13.9895 81.5696 14.3663C80.8673 13.2888 79.8034 12.9074 78.6083 12.804C77.473 12.7053 76.3884 12.8868 75.4258 13.5507C75.3568 13.5967 75.29 13.6472 75.2278 13.6978C74.4725 14.3112 74.4564 15.0372 75.1933 15.6667C75.716 16.1147 76.3377 16.3536 77.0078 16.4777C78.2882 16.7166 79.58 16.9119 80.8488 17.2083C82.3019 17.546 83.5776 18.249 84.577 19.3817C86.2995 21.3345 86.2143 23.949 84.3859 25.8031C83.1746 27.0299 81.6778 27.7146 79.9991 28.004C77.952 28.3556 75.9486 28.2039 74.0396 27.3217C72.8859 26.7887 71.8773 26.0604 71.1865 24.9714C70.9677 24.6291 70.8088 24.2477 70.6016 23.8479V23.8525Z" fill="#124B9A"/>
<path d="M128.942 12.4452C128.023 13.1827 127.121 13.9041 126.218 14.6278C125.893 14.3613 125.596 14.0856 125.269 13.8536C122.211 11.6756 117.173 12.9369 116.215 17.4192C115.773 19.4892 116.18 21.4145 117.684 22.986C118.969 24.33 120.592 24.8561 122.437 24.7229C123.915 24.6149 125.154 23.9923 126.19 22.9171C127.109 23.6522 128.016 24.3805 128.924 25.1088C127.024 27.3925 123.245 28.7986 119.446 27.8359C115.409 26.8136 112.595 23.3605 112.408 19.2319C112.222 15.108 114.679 11.3884 118.538 10.0053C122.345 8.64063 126.589 9.7572 128.938 12.4452H128.942Z" fill="#124B9A"/>
<path d="M101.01 22.9234C101.931 23.6632 102.834 24.3869 103.737 25.1106C101.694 27.5206 97.7519 28.8578 93.9017 27.7389C90.2703 26.6844 87.2559 23.3783 87.2076 18.8937C87.1638 14.7789 89.69 11.2385 93.5356 9.94046C97.3213 8.66077 101.466 9.82099 103.744 12.447C102.834 13.1753 101.925 13.9036 101.052 14.6043C100.536 14.2298 100.078 13.8209 99.5527 13.5337C96.3288 11.7669 91.8338 13.3246 91.0071 17.483C90.5996 19.5301 91.0002 21.4209 92.474 22.974C93.7543 24.3226 95.3778 24.8556 97.2223 24.7269C98.6684 24.6258 99.8935 24.0331 100.909 23.0084C100.934 22.9831 100.964 22.9625 101.008 22.928L101.01 22.9234Z" fill="#124B9A"/>
<path d="M140.59 14.6119H144.242V16.2753C144.339 16.1903 144.389 16.1489 144.438 16.103C145.831 14.798 147.494 14.1984 149.393 14.2857C149.983 14.3132 150.588 14.4005 151.148 14.582C152.578 15.0484 153.356 16.0984 153.596 17.5572C153.653 17.9088 153.67 18.2695 153.672 18.6256C153.676 21.6169 153.674 24.6104 153.674 27.6017V27.9808H149.969V27.6546C149.969 25.0929 149.971 22.5335 149.967 19.9719C149.967 19.6801 149.948 19.3814 149.891 19.0965C149.7 18.1684 149.089 17.6101 148.145 17.4676C146.678 17.2471 145.442 17.6928 144.435 18.7703C144.332 18.8829 144.258 19.0713 144.258 19.2252C144.247 22.0235 144.251 24.8241 144.251 27.6224V27.9854H140.59V14.6119Z" fill="#124B9A"/>
<path d="M169.709 23.7887C170.474 24.3998 171.236 25.0132 172.001 25.6267C169.7 28.4571 165.044 28.8684 162.182 26.2722C159.271 23.6325 159.262 19.0421 162.159 16.3955C165.032 13.7718 169.698 14.1922 172.001 17.0181C171.236 17.6315 170.471 18.2449 169.709 18.856C167.998 16.8389 165.2 17.3719 164.005 18.7366C162.739 20.1794 162.762 22.5504 164.056 23.9817C165.182 25.2246 167.936 25.8311 169.709 23.7887Z" fill="#124B9A"/>
<path d="M134.041 27.9941H130.414V9.4375H134.041V27.9941Z" fill="#124B9A"/>
<path d="M18.2719 11.2312C16.7682 11.2266 15.6146 10.0825 15.6007 8.65804C15.5938 8.02853 15.5271 7.41051 15.2599 6.83385C14.8593 5.96771 14.2122 5.44389 13.2174 5.39794C12.271 5.35429 11.5502 4.67424 11.4581 3.76904C11.3706 2.9029 11.9394 2.09649 12.7983 1.86444C13.8414 1.58415 14.9836 2.32394 15.0251 3.37158C15.0941 5.12914 16.2847 5.8896 17.7423 6.01136C18.4999 6.07569 19.2529 6.01825 19.9576 5.69431C20.8533 5.28077 21.3991 4.61221 21.4682 3.60362C21.5188 2.86614 21.8573 2.30785 22.5459 2.00229C23.1883 1.71741 23.8055 1.80471 24.3697 2.21596C24.9453 2.63409 25.2033 3.40604 25.0167 4.10447C24.8325 4.79371 24.22 5.39105 23.5361 5.40024C21.7261 5.42551 20.8234 6.83155 20.8211 8.46505C20.8211 9.39322 20.4987 10.1675 19.7388 10.7303C19.2806 11.0704 18.7578 11.2197 18.2719 11.2289V11.2312Z" fill="#1BB7DA"/>
<path d="M24.3167 24.7953C25.148 24.8182 25.8227 25.1583 26.3616 25.8084C26.6886 26.2013 27.0271 26.6011 27.4232 26.9181C28.3374 27.6533 29.2861 27.6763 30.2855 27.072C30.9326 26.6792 31.6004 26.6723 32.2382 27.0858C32.8761 27.5017 33.1478 28.1243 33.0258 28.8664C32.9014 29.6176 32.4455 30.1323 31.6925 30.3161C30.9809 30.4907 30.3315 30.3161 29.8825 29.7348C29.1203 28.7423 27.939 28.4092 26.654 29.0111C25.8573 29.3833 25.1711 29.9025 24.6852 30.6446C24.0911 31.5544 24.0335 32.4826 24.623 33.4337C25.2494 34.4469 24.7934 35.722 23.6927 36.0919C22.8568 36.3745 21.9656 36.0344 21.5327 35.2717C21.1067 34.5181 21.2771 33.5532 21.9656 33.011C22.5782 32.5262 22.9397 31.922 22.9719 31.1363C22.9926 30.6216 22.866 30.1346 22.6357 29.6797C22.4999 29.4109 22.3387 29.1513 22.1683 28.9031C21.0629 27.2903 21.9426 25.1698 23.87 24.8228C24.0128 24.7976 24.1625 24.8022 24.3213 24.793L24.3167 24.7953Z" fill="#1BB7DA"/>
<path d="M6.06423 13.76C6.04811 12.4734 5.55532 11.6026 4.39704 11.1408C3.54271 10.7985 3.1144 9.88873 3.35158 9.02029C3.57725 8.19321 4.40855 7.60506 5.21912 7.69695C6.18628 7.80723 6.87941 8.52174 6.88862 9.466C6.89092 9.74399 6.7896 10.022 6.74815 10.3023C6.59157 11.3844 7.04291 12.2023 7.92256 12.7858C8.28409 13.0271 8.69859 13.2017 9.11079 13.3487C10.2622 13.7577 10.9668 14.7754 10.9046 15.9954C10.8471 17.1533 10.0158 18.1136 8.84136 18.371C8.36469 18.4766 7.89263 18.4307 7.42747 18.2837C6.78039 18.0792 6.1195 17.985 5.44249 18.1182C4.59047 18.2837 4.00787 18.7684 3.69239 19.584C3.30783 20.5788 2.30153 21.0314 1.33667 20.6661C0.473134 20.3376 0.00567414 19.3841 0.268189 18.4835C0.523795 17.6105 1.4426 16.981 2.29692 17.2383C4.07004 17.7736 5.23985 16.6662 5.72573 15.3061C5.82475 15.0304 5.91225 14.7502 5.97212 14.4653C6.02739 14.208 6.0389 13.9392 6.06193 13.7623L6.06423 13.76Z" fill="#1BB7DA"/>
<path d="M14.7672 27.4551C14.7672 28.0111 14.5922 28.5005 14.2767 28.9485C13.883 29.5091 13.5675 30.1041 13.4754 30.7979C13.3602 31.671 13.632 32.3878 14.3228 32.9392C14.9353 33.4285 15.1771 34.0603 14.9929 34.8185C14.8179 35.5445 14.3343 36.0017 13.5997 36.1418C12.8306 36.2866 12.1904 36.027 11.7575 35.3768C11.3384 34.7473 11.3246 34.0718 11.7368 33.4331C12.1904 32.7301 12.3562 31.9834 12.0292 31.2138C11.8496 30.7864 11.5595 30.3775 11.2302 30.0467C10.5532 29.3643 9.7472 28.875 8.75931 28.7601C7.86815 28.6544 7.13817 28.9508 6.55787 29.6354C5.996 30.3017 5.23149 30.513 4.48079 30.2236C3.4929 29.8422 3.04156 28.721 3.49521 27.7699C3.93964 26.8371 5.13016 26.419 5.9983 26.9979C7.42602 27.9491 8.86524 27.354 9.75641 26.2719C9.98438 25.9962 10.1893 25.6907 10.4587 25.4632C11.2947 24.7648 12.248 24.6201 13.2405 25.0704C14.2514 25.5276 14.7281 26.3615 14.7603 27.4551H14.7672Z" fill="#1BB7DA"/>
<path d="M31.3697 7.76953C32.2471 7.76953 32.9517 8.35079 33.1313 9.21693C33.2994 10.0256 32.8665 10.9079 32.0767 11.1859C30.771 11.6476 30.0986 12.7849 30.4003 14.3357C30.5799 15.2593 30.923 16.1162 31.6438 16.7664C32.2954 17.3545 33.0484 17.5613 33.9166 17.3408C34.886 17.0949 35.7979 17.5751 36.1134 18.478C36.4197 19.3441 36.0121 20.3045 35.1693 20.6973C34.2436 21.1293 33.1106 20.7295 32.7652 19.76C32.2977 18.4504 31.0358 17.7956 29.5344 18.1035C29.1752 18.177 28.8252 18.3011 28.4636 18.3585C27.1442 18.5699 25.8938 17.7336 25.5576 16.4333C25.226 15.149 25.9398 13.7981 27.1994 13.3547C27.8995 13.1088 28.5719 12.8216 29.0854 12.2611C29.6588 11.6339 29.8637 10.9148 29.6404 10.0762C29.3157 8.85393 30.1401 7.76953 31.3674 7.76953H31.3697Z" fill="#1BB7DA"/>
<path d="M158.666 27.9925H155.016V14.6328H158.666V27.9925Z" fill="#124B9A"/>
<path d="M135.41 27.985V14.6367H139.046V27.985H135.41Z" fill="#124B9A"/>
<path d="M8.31997 24.792C6.88074 24.792 5.70864 23.6226 5.71094 22.1844C5.71094 20.7554 6.90377 19.5768 8.33609 19.586C9.75919 19.5952 10.9244 20.7623 10.9313 22.1867C10.9382 23.618 9.7615 24.792 8.31997 24.792Z" fill="#1BB7DA"/>
<path d="M15.6 29.3416C15.6 27.9195 16.7652 26.7615 18.1975 26.7501C19.6229 26.7409 20.8203 27.9309 20.818 29.3554C20.818 30.7867 19.6367 31.9561 18.1952 31.9561C16.7536 31.9561 15.5954 30.789 15.5977 29.3416H15.6Z" fill="#1BB7DA"/>
<path d="M30.6863 22.212C30.6817 23.6571 29.5234 24.799 28.0612 24.7921C26.6358 24.7852 25.4798 23.6158 25.4844 22.1844C25.4867 20.7439 26.668 19.5745 28.1026 19.586C29.5534 19.5998 30.6909 20.7531 30.6863 22.212Z" fill="#1BB7DA"/>
<path d="M21.7148 10.5971C21.7194 9.14737 22.88 8.00323 24.34 8.00783C25.7792 8.01242 26.9237 9.18413 26.9168 10.6476C26.9099 12.0537 25.7401 13.2116 24.3193 13.2139C22.8754 13.2162 21.7125 12.0468 21.7171 10.5994L21.7148 10.5971Z" fill="#1BB7DA"/>
<path d="M14.6987 10.6017C14.6987 12.0445 13.5289 13.2162 12.0943 13.2116C10.6573 13.207 9.46451 12.0146 9.48063 10.5994C9.49675 9.15656 10.6689 8.00323 12.1104 8.00783C13.5381 8.01242 14.6987 9.17494 14.6987 10.604V10.6017Z" fill="#1BB7DA"/>
<path d="M156.833 12.968C155.815 12.9634 154.984 12.1271 155 11.1231C155.016 10.11 155.855 9.29665 156.87 9.31273C157.881 9.32882 158.687 10.1421 158.685 11.1438C158.685 12.1593 157.858 12.9726 156.836 12.968H156.833Z" fill="#124B9A"/>
<path d="M137.225 9.3086C138.254 9.3063 139.069 10.1104 139.071 11.1282C139.071 12.1345 138.261 12.9478 137.254 12.9524C136.216 12.957 135.403 12.1643 135.398 11.1443C135.394 10.1173 136.195 9.3109 137.227 9.3086H137.225Z" fill="#124B9A"/>
<path d="M9.89848 5.12359C9.89618 6.12528 9.09712 6.90871 8.08391 6.90871C7.04076 6.90871 6.25551 6.12069 6.25782 5.07994C6.26012 4.07135 7.07299 3.26724 8.08851 3.26954C9.11094 3.27183 9.90309 4.08284 9.89848 5.12359Z" fill="#1BB7DA"/>
<path d="M34.5714 15.4992C33.5558 15.4924 32.7591 14.6859 32.7637 13.6682C32.7706 12.6573 33.5812 11.8532 34.5921 11.8555C35.6122 11.8555 36.4274 12.6849 36.4159 13.7049C36.4044 14.7135 35.5892 15.5061 34.5691 15.4992H34.5714Z" fill="#1BB7DA"/>
<path d="M9.89847 32.88C9.89847 33.9024 9.10633 34.7065 8.09541 34.7111C7.06148 34.7157 6.25781 33.9162 6.25781 32.8869C6.25781 31.8668 7.05226 31.0742 8.07699 31.0742C9.10402 31.0742 9.89848 31.8599 9.90078 32.8823L9.89847 32.88Z" fill="#1BB7DA"/>
<path d="M28.3312 31.0703C29.3467 31.0703 30.1665 31.8813 30.1688 32.883C30.1688 33.8962 29.3421 34.7118 28.3173 34.7095C27.3133 34.7072 26.4867 33.8755 26.4982 32.8807C26.5074 31.8698 27.3226 31.068 28.3335 31.0703H28.3312Z" fill="#1BB7DA"/>
<path d="M1.85422 22.4771C2.88125 22.5 3.66649 23.3202 3.65037 24.3518C3.63195 25.3535 2.78223 26.1415 1.74829 26.1185C0.753502 26.0956 -0.0225281 25.257 0.000499464 24.23C0.0235271 23.2375 0.85252 22.4541 1.85422 22.4771Z" fill="#1BB7DA"/>
<path d="M28.3127 6.90883C27.2995 6.90423 26.4867 6.08634 26.4982 5.08235C26.5074 4.06917 27.3433 3.25816 28.3657 3.26965C29.349 3.28114 30.1688 4.10593 30.1711 5.09154C30.1711 6.10012 29.3421 6.91342 28.315 6.90883H28.3127Z" fill="#1BB7DA"/>
<path d="M20.0226 36.1802C20.0203 37.1888 19.2028 38.0044 18.2011 37.9998C17.1994 37.9952 16.375 37.1704 16.375 36.171C16.375 35.1602 17.2155 34.3285 18.2241 34.34C19.235 34.3514 20.0272 35.1602 20.0249 36.1802H20.0226Z" fill="#1BB7DA"/>
<path d="M34.6154 22.4766C35.647 22.4972 36.4369 23.3174 36.4185 24.3444C36.4 25.3576 35.5664 26.1387 34.5233 26.1203C33.54 26.102 32.7456 25.268 32.764 24.2686C32.7824 23.2577 33.6068 22.4582 34.6131 22.4789L34.6154 22.4766Z" fill="#1BB7DA"/>
<path d="M18.1968 2.01081e-05C19.2262 -0.00457481 20.0206 0.778859 20.0229 1.79893C20.0229 2.8236 19.2354 3.63001 18.2268 3.6392C17.2043 3.64609 16.373 2.82819 16.373 1.81501C16.373 0.804131 17.179 0.00231757 18.1968 2.01081e-05Z" fill="#1BB7DA"/>
<path d="M8.0908e-05 13.6607C0.00929194 12.6475 0.819863 11.8503 1.83538 11.8595C2.8555 11.8663 3.65917 12.6934 3.64765 13.7204C3.63614 14.7198 2.80484 15.517 1.78932 15.5032C0.769203 15.4871 -0.00913013 14.6876 8.0908e-05 13.6607Z" fill="#1BB7DA"/>
</g>
<defs>
<clipPath id="clip0_7_1407">
<rect width="172" height="38" fill="white"/>
</clipPath>
</defs>
</svg>
