<svg width="24" height="24" viewBox="0 0 24 24" fill="none" xmlns="http://www.w3.org/2000/svg">
<path d="M8.05631 9.58129C9.10976 8.489 9.10976 6.71803 8.05631 5.62574C7.00286 4.53344 5.29488 4.53344 4.24142 5.62574C3.18797 6.71803 3.18797 8.489 4.24142 9.58129C5.29488 10.6736 7.00285 10.6736 8.05631 9.58129Z" fill="white"/>
<path d="M9.03822 17.1946C8.54903 17.1941 8.08 16.9924 7.73405 16.6338C7.3881 16.2752 7.19347 15.7889 7.19287 15.2817C7.19335 14.7744 7.38786 14.2881 7.73373 13.9294C8.0796 13.5707 8.54858 13.3689 9.03777 13.3683H10.4032C10.4885 13.3684 10.5737 13.3746 10.6581 13.387C10.171 12.6013 9.50059 11.9556 8.70898 11.5097C7.91737 11.0638 7.0301 10.8321 6.12923 10.836C3.16601 10.8468 0.786133 13.3833 0.786133 16.4581V17.5408C0.786133 17.6475 0.806402 17.7531 0.845782 17.8516C0.885163 17.9502 0.942881 18.0397 1.01564 18.1151C1.0884 18.1905 1.17478 18.2503 1.26984 18.2911C1.36489 18.3319 1.46676 18.3528 1.56963 18.3527H10.7272C10.8301 18.3528 10.932 18.3319 11.027 18.2911C11.1221 18.2503 11.2085 18.1905 11.2812 18.1151C11.354 18.0397 11.4117 17.9502 11.4511 17.8516C11.4905 17.7531 11.5107 17.6475 11.5107 17.5408V16.8085C11.1919 17.0584 10.8033 17.1939 10.4037 17.1946H9.03822Z" fill="white"/>
<path d="M19.758 9.58129C20.8114 8.489 20.8114 6.71803 19.758 5.62574C18.7045 4.53344 16.9965 4.53344 15.9431 5.62574C14.8896 6.71803 14.8896 8.489 15.9431 9.58129C16.9965 10.6736 18.7045 10.6736 19.758 9.58129Z" fill="white"/>
<path d="M17.8324 10.836C15.9581 10.8425 14.3179 11.8601 13.3649 13.3842C13.4416 13.3737 13.5189 13.3684 13.5963 13.3683H14.9618C15.451 13.3689 15.9199 13.5707 16.2658 13.9294C16.6117 14.2881 16.8062 14.7744 16.8067 15.2817C16.8061 15.7888 16.6115 16.275 16.2656 16.6336C15.9198 16.9922 15.4509 17.194 14.9618 17.1946H13.5963C13.1966 17.1939 12.8081 17.0584 12.4893 16.8085V17.5408C12.4893 17.6475 12.5095 17.7531 12.5489 17.8516C12.5883 17.9502 12.646 18.0397 12.7188 18.1151C12.7915 18.1905 12.8779 18.2503 12.973 18.2911C13.068 18.3318 13.1699 18.3528 13.2728 18.3527H22.4299C22.5328 18.3528 22.6346 18.3318 22.7297 18.2911C22.8247 18.2503 22.9111 18.1905 22.9839 18.1151C23.0566 18.0397 23.1144 17.9502 23.1537 17.8516C23.1931 17.7531 23.2134 17.6475 23.2134 17.5408V16.3958C23.2134 15.664 23.0741 14.9394 22.8034 14.2636C22.5328 13.5877 22.1361 12.974 21.6362 12.4574C21.1363 11.9409 20.5429 11.5318 19.8902 11.2535C19.2374 10.9753 18.5381 10.8334 17.8324 10.836Z" fill="white"/>
<path d="M13.5958 16.5399H14.9613C15.2826 16.5394 15.5907 16.4068 15.818 16.1712C16.0452 15.9355 16.1731 15.6161 16.1736 15.2829C16.1732 14.9496 16.0454 14.63 15.8181 14.3943C15.5909 14.1585 15.2827 14.0259 14.9613 14.0254H13.5958C13.3579 14.0253 13.1253 14.0983 12.9275 14.2353C12.6613 14.4178 12.475 14.7015 12.4088 15.0252H11.5909C11.5272 14.7117 11.3505 14.4353 11.0971 14.2521C10.8941 14.1043 10.652 14.0251 10.4039 14.0254H9.03844C8.71691 14.0258 8.40865 14.1584 8.18129 14.3941C7.95393 14.6299 7.82604 14.9495 7.82568 15.2829C7.82616 15.6161 7.95404 15.9355 8.18129 16.1712C8.40854 16.4068 8.71661 16.5394 9.03799 16.5399H10.4035C10.6276 16.5398 10.8473 16.4755 11.0383 16.3539C11.2293 16.2323 11.3841 16.0583 11.4856 15.8512C11.5338 15.7529 11.5694 15.6484 11.5914 15.5406H12.4092C12.4319 15.6518 12.4692 15.7593 12.5199 15.8601C12.622 16.0647 12.7763 16.2363 12.966 16.3562C13.1558 16.4761 13.3736 16.5396 13.5958 16.5399ZM10.4039 16.0245H9.03844C8.84874 16.0244 8.66682 15.9462 8.53264 15.8072C8.39845 15.6681 8.32295 15.4796 8.32272 15.2829C8.32284 15.0862 8.39822 14.8975 8.53232 14.7584C8.66642 14.6193 8.84828 14.541 9.03799 14.5408H10.4035C10.5495 14.541 10.6919 14.5875 10.8117 14.6741C10.9315 14.7607 11.0229 14.8832 11.0736 15.0252H11.0478C10.987 15.0252 10.9283 15.0483 10.8828 15.0902C10.8374 15.1321 10.8083 15.1898 10.8011 15.2524C10.8011 15.2623 10.8011 15.2726 10.8011 15.2829C10.8011 15.2932 10.8011 15.303 10.8011 15.3129C10.8082 15.3756 10.8372 15.4334 10.8827 15.4753C10.9282 15.5173 10.9869 15.5405 11.0478 15.5406H11.0736C11.0228 15.6824 10.9315 15.8047 10.8118 15.8912C10.6921 15.9777 10.5498 16.0242 10.4039 16.0245ZM13.5958 14.5408H14.9613C15.151 14.541 15.3328 14.6193 15.4669 14.7584C15.601 14.8975 15.6764 15.0862 15.6765 15.2829C15.6763 15.4795 15.6009 15.668 15.4668 15.807C15.3327 15.9461 15.1509 16.0243 14.9613 16.0245H13.5958C13.4498 16.0243 13.3074 15.9779 13.1876 15.8914C13.0679 15.8048 12.9765 15.6824 12.9257 15.5406H13.0016C13.0452 15.5404 13.0881 15.5284 13.1258 15.5057C13.1636 15.483 13.1949 15.4504 13.2167 15.4112C13.2385 15.3722 13.25 15.328 13.2501 15.2829C13.2499 15.2376 13.2384 15.1932 13.2167 15.154C13.1948 15.1149 13.1634 15.0825 13.1257 15.0599C13.088 15.0373 13.0452 15.0253 13.0016 15.0252H12.9257C12.9764 14.8832 13.0678 14.7607 13.1875 14.6741C13.3073 14.5875 13.4498 14.541 13.5958 14.5408Z" fill="white"/>
</svg>
