<svg width="19" height="27" viewBox="0 0 19 27" fill="none" xmlns="http://www.w3.org/2000/svg">
<path d="M18.2781 13.4385C18.2695 16.2316 16.1426 18.3745 13.4945 18.4002C12.3242 18.413 11.1753 18.5371 10.1033 19.0332C8.4931 19.7775 7.5193 20.9794 7.43388 22.8272C7.35273 24.5852 6.0885 25.924 4.4057 26.0951C2.79551 26.2576 1.29637 25.2011 0.864996 23.6057C0.343927 21.6681 1.71921 19.5465 3.66681 19.4695C6.93417 19.3412 8.34788 17.1298 8.57425 14.4223C8.69384 13.015 8.58706 11.6164 7.98484 10.3075C7.21605 8.64361 5.97318 7.62988 4.09818 7.50156C2.72718 7.40746 1.68931 6.77869 1.12126 5.49977C0.591648 4.30639 0.753948 3.16007 1.51847 2.11213C2.2958 1.04279 3.73087 0.563734 5.02927 0.910198C6.31059 1.25238 7.42106 2.39015 7.43815 3.66052C7.48513 7.0225 10.099 8.69921 13.1357 8.70349C14.8612 8.70349 16.3006 9.30232 17.347 10.7138C17.9791 11.565 18.2567 12.536 18.2738 13.4385L18.2781 13.4385Z" fill="#45DDFF"/>
</svg>
