<svg width="19" height="26" viewBox="0 0 19 26" fill="none" xmlns="http://www.w3.org/2000/svg">
<path d="M18.2781 13.0183C18.2695 15.8114 16.1426 17.9544 13.4945 17.98C12.3242 17.9929 11.1753 18.1169 10.1033 18.6131C8.4931 19.3573 7.5193 20.5593 7.43388 22.4071C7.35273 24.165 6.0885 25.5039 4.4057 25.6749C2.79551 25.8375 1.29637 24.781 0.864996 23.1855C0.343927 21.2479 1.71921 19.1264 3.66681 19.0494C6.93417 18.921 8.34788 16.7097 8.57425 14.0021C8.69384 12.5949 8.58706 11.1962 7.98484 9.88732C7.21605 8.22344 5.97318 7.20971 4.09818 7.08139C2.72718 6.98729 1.68931 6.35852 1.12126 5.0796C0.591648 3.88623 0.753948 2.73991 1.51847 1.69196C2.2958 0.622627 3.73087 0.143568 5.02927 0.490032C6.31059 0.832218 7.42106 1.96999 7.43815 3.24035C7.48513 6.60233 10.099 8.27905 13.1357 8.28332C14.8612 8.28332 16.3006 8.88215 17.347 10.2937C17.9791 11.1449 18.2567 12.1158 18.2738 13.0183L18.2781 13.0183Z" fill="#45DDFF"/>
</svg>
